<?xml version="1.0" encoding="utf-8"?>
<!-- Generator: Adobe Illustrator 25.2.0, SVG Export Plug-In . SVG Version: 6.00 Build 0)  -->
<svg version="1.1" id="Camada_1" xmlns:v="https://vecta.io/nano"
	 xmlns="http://www.w3.org/2000/svg" xmlns:xlink="http://www.w3.org/1999/xlink" x="0px" y="0px" viewBox="0 0 64 64"
	 style="enable-background:new 0 0 64 64;" xml:space="preserve">
<style type="text/css">
	.st0{fill:#FFFFFF;}
	.st1{fill:#FFC7F4;}
	.st2{fill:#E500BA;}
	.st3{opacity:0.7;}
	.st4{fill:url(#SVGID_1_);}
	.st5{fill:#414043;}
	.st6{fill:#7FC03D;}
	.st7{fill:#F98A20;}
	.st8{fill:#55C4FF;}
	.st9{fill:#F7889C;}
	.st10{fill:#C68DBB;}
	.st11{fill:#FADC2B;}
	.st12{fill:#414143;}
	.st13{fill:#D8D0D0;}
	.st14{fill:#A7A9AC;}
	.st15{fill:#E55158;}
	.st16{fill:url(#SVGID_2_);}
	.st17{fill:url(#SVGID_3_);}
	.st18{fill:url(#SVGID_4_);}
	.st19{fill:url(#SVGID_5_);}
	.st20{fill:url(#SVGID_6_);}
	.st21{fill:url(#SVGID_7_);}
	.st22{fill:url(#SVGID_8_);}
	.st23{fill:#4D4E4E;}
	.st24{fill:#C62B2E;}
</style>
<path class="st0" d="M61,22.9c0.6,0.6,0.7,1.7,0.2,2.4c-9.5,13.6-21.3,25.5-34.8,35.1l-1.1,0.8c-0.8,0.6-1.9,0.5-2.5-0.2L18,56.2
	c2.9-3,2.8-7.7-0.2-10.6c-2.9-2.8-7.5-2.8-10.5,0l-4.4-4.4c-0.8-0.8-0.7-2.2,0.2-2.9l1.1-0.8c13.2-9.4,24.7-21,34-34.3
	c0.6-0.8,1.7-1,2.5-0.4c0.2,0,0.3,0.1,0.3,0.1l4.5,4.5c-2.9,3-2.8,7.7,0.2,10.6c2.9,2.8,7.5,2.8,10.4,0L61,22.9L61,22.9z"/>
<path class="st1" d="M63.2,24.3L46,46L23.7,62.9l-4.3-4.3l-1.5-1.9l1.5-2.2l0.5-2.2l-0.3-2.4l-0.9-2.2l-1.5-1.8l-1.8-1.2L13.6,44
	h-2.4l-2.5,0.9l-1.5,1.3l-3.6-4.3L9.4,41c18-2.7,35.1-10,49.5-21.1L63.2,24.3L63.2,24.3z"/>
<g>
	<path class="st2" d="M15.8,56.4c0-0.6,0.3-1.2,0.7-1.7l0,0c2-2,1.9-5.3-0.2-7.3c-2-1.9-5.1-1.9-7.1,0l0,0c-0.9,0.9-2.4,0.9-3.4,0
		l0,0l-4.6-4.6c-1.7-1.7-1.7-4.4,0-6.1c0.2-0.2,0.3-0.3,0.5-0.5l1.1-0.8l1.4,1.9l-1.1,0.8c-1,0.7-1.1,2.1-0.2,2.9l4.6,4.6l0,0
		c2.9-2.9,7.7-2.9,10.6,0s2.9,7.7,0,10.6l0,0l4.6,4.6c0.7,0.7,1.8,0.8,2.5,0.2l1.1-0.8c13.5-9.6,25.3-21.5,34.8-35.1
		c0.5-0.7,0.4-1.8-0.2-2.4l-4.8-4.8L56,18c-3,2.9-7.7,2.9-10.6-0.1c-2.9-2.9-2.9-7.6,0-10.5l0.1-0.1L41,2.9c-0.7-0.7-1.9-0.7-2.6,0
		c-0.1,0.1-0.1,0.2-0.2,0.2C29,16.5,17.5,28.1,4.3,37.5l-1.4-1.9c13-9.3,24.3-20.7,33.4-33.7c1.3-1.9,4-2.4,5.9-1
		c0.2,0.1,0.4,0.3,0.6,0.5l4.5,4.5c0.9,0.9,0.9,2.4,0,3.4l0,0l0,0c-2,2-1.9,5.3,0.2,7.3c2,1.9,5.1,1.9,7.1,0l0,0
		c0.9-0.9,2.4-1,3.4,0l0,0l4.8,4.8c1.5,1.5,1.7,3.8,0.5,5.4c-9.7,13.8-21.7,25.9-35.4,35.7l-1.1,0.8c-1.7,1.2-4.1,1-5.6-0.5
		l-4.6-4.6C16.1,57.7,15.8,57,15.8,56.4L15.8,56.4z"/>
	<g>
		<path id="A" class="st2" d="M32,11.3l1.1,1.1c0.5,0.5,0.5,1.2,0,1.7s-1.2,0.5-1.7,0L30.3,13c-0.5-0.5-0.5-1.2,0-1.7
			S31.5,10.8,32,11.3z"/>
	</g>
	<g>
		<path id="A_1_" class="st2" d="M36.4,15.7l1.1,1.1c0.5,0.5,0.5,1.2,0,1.7s-1.2,0.5-1.7,0l-1.1-1.1c-0.5-0.5-0.5-1.2,0-1.7
			C35.2,15.2,35.9,15.2,36.4,15.7z"/>
	</g>
	<g>
		<path id="B" class="st2" d="M41.9,22.8c-0.5,0.5-1.2,0.5-1.7,0l0,0l-1.3-1.3c-0.5-0.5-0.5-1.2,0-1.7s1.2-0.5,1.7,0l1.3,1.3
			C42.3,21.6,42.3,22.4,41.9,22.8L41.9,22.8z"/>
	</g>
	<g>
		<path id="B_1_" class="st2" d="M46.3,27.2c-0.5,0.5-1.2,0.5-1.7,0l0,0L43.4,26c-0.5-0.5-0.5-1.2,0-1.7s1.2-0.5,1.7,0l1.3,1.3
			C46.8,26,46.8,26.8,46.3,27.2L46.3,27.2z"/>
	</g>
	<path class="st2" d="M49.5,28.7l1.1,1.1c0.5,0.5,0.5,1.2,0,1.7c-0.5,0.5-1.2,0.5-1.7,0l-1.1-1.1c-0.5-0.5-0.5-1.2,0-1.7
		C48.2,28.3,49,28.3,49.5,28.7L49.5,28.7z"/>
	<g>
		<path id="A_2_" class="st2" d="M53.9,33.1l1.1,1.1c0.5,0.5,0.5,1.2,0,1.7s-1.2,0.5-1.7,0l-1.1-1.1c-0.5-0.5-0.5-1.2,0-1.7
			C52.7,32.7,53.4,32.7,53.9,33.1z"/>
	</g>
</g>
<g>
	<image style="overflow:visible;" width="24" height="24" xlink:href="3AE38BEA.png"  transform="matrix(1 0 0 1 20 21)">
	</image>
	
		<image style="overflow:visible;opacity:0.4;" width="24" height="24" xlink:href="3AE38BEE.png"  transform="matrix(1 0 0 1 20 21)">
	</image>
	<g class="st3">
		
			<linearGradient id="SVGID_1_" gradientUnits="userSpaceOnUse" x1="-169.9099" y1="-64.1033" x2="-166.1437" y2="-64.1033" gradientTransform="matrix(-0.2226 0.6651 -0.9544 -0.3624 -61.1701 130.206)">
			<stop  offset="0" style="stop-color:#FFFFFF;stop-opacity:0"/>
			<stop  offset="0.5484" style="stop-color:#FFFFFF"/>
			<stop  offset="1" style="stop-color:#FFFFFF;stop-opacity:0"/>
		</linearGradient>
		<path class="st4" d="M35.9,42.3c0.9-0.2,2.2-1,2.8-1.5L39,41c-0.7,0.6-2,1.4-2.9,1.6L35.9,42.3z"/>
	</g>
	<image style="overflow:visible;" width="15" height="7" xlink:href="3AE38BE9.png"  transform="matrix(1 0 0 1 25 22)">
	</image>
	<g>
		<g>
			<path class="st5" d="M38.4,34.2c1.1-0.5,2.4,1.2,1.2,2c0.9,0.7,0.1,2.1-1,2.2C38.6,38.4,38.4,34.2,38.4,34.2z"/>
		</g>
		<g>
			<path class="st5" d="M32.6,39.3c-0.6,1,0.9,2.5,1.8,1.4c0.5,1,2.1,0.3,2.3-0.8C36.8,40,32.6,39.3,32.6,39.3z"/>
		</g>
		<g>
			<g>
				
					<rect x="27.1" y="33.5" transform="matrix(0.1241 -0.9923 0.9923 0.1241 -12.2699 58.6571)" class="st6" width="0.1" height="5.6"/>
			</g>
			<g>
				<g>
					<path class="st6" d="M29.3,37c0,0.1-0.1,0.2-0.2,0.2c-0.1,0-0.2,0-0.2,0c-0.1-0.1-0.1-0.2-0.1-0.3c0-0.1,0.1-0.2,0.3-0.4l0,0
						l0,0C29.2,36.7,29.3,36.8,29.3,37C29.3,37,29.3,37,29.3,37z M28.9,37c0,0.1,0,0.1,0.1,0.2c0,0,0.1,0,0.1,0
						c0.2-0.1,0.2-0.3,0-0.6C29,36.8,28.9,36.9,28.9,37z"/>
				</g>
				<g>
					<path class="st6" d="M29.4,36.1C29.4,36.1,29.4,36.2,29.4,36.1c0,0.2-0.1,0.3-0.2,0.4l0,0l0,0c-0.1-0.2-0.1-0.3-0.2-0.4
						c0-0.1,0-0.2,0.1-0.3c0.1,0,0.2,0,0.2,0C29.4,35.9,29.4,36,29.4,36.1z M29.1,36.5c0.2-0.2,0.2-0.4,0.1-0.5c0,0-0.1,0-0.1,0
						C29,36,28.9,36.1,29.1,36.5z"/>
				</g>
			</g>
			<g>
				<g>
					<path class="st6" d="M28.7,36.9c0,0.1-0.1,0.2-0.2,0.2c-0.1,0-0.2,0-0.2,0c-0.1-0.1-0.1-0.2-0.1-0.3c0-0.1,0.1-0.2,0.3-0.4l0,0
						l0,0C28.7,36.6,28.7,36.7,28.7,36.9C28.7,36.9,28.7,36.9,28.7,36.9z M28.3,36.9c0,0.1,0,0.1,0.1,0.2c0,0,0.1,0,0.1,0
						c0.2-0.1,0.2-0.3,0-0.6C28.4,36.7,28.3,36.8,28.3,36.9z"/>
				</g>
				<g>
					<path class="st6" d="M28.8,36.1C28.8,36.1,28.8,36.1,28.8,36.1c0,0.2-0.1,0.3-0.2,0.4l0,0l0,0c-0.1-0.2-0.1-0.3-0.2-0.4
						c0-0.1,0-0.2,0.1-0.3c0.1,0,0.2,0,0.2,0C28.8,35.9,28.8,36,28.8,36.1z M28.6,36.4c0.2-0.2,0.2-0.4,0.1-0.5c0,0-0.1,0-0.1,0
						C28.5,35.9,28.4,36,28.6,36.4z"/>
				</g>
			</g>
			<g>
				<g>
					<path class="st6" d="M28.1,36.8c0,0.1-0.1,0.2-0.2,0.2c-0.1,0-0.2,0-0.2,0c-0.1-0.1-0.1-0.2-0.1-0.3c0-0.1,0.1-0.2,0.3-0.4l0,0
						l0,0C28.1,36.5,28.1,36.7,28.1,36.8C28.1,36.8,28.1,36.8,28.1,36.8z M27.8,36.8c0,0.1,0,0.1,0.1,0.2c0,0,0.1,0,0.1,0
						c0.2-0.1,0.2-0.3,0-0.6C27.8,36.6,27.8,36.7,27.8,36.8z"/>
				</g>
				<g>
					<path class="st6" d="M28.2,36C28.2,36,28.2,36,28.2,36c0,0.2-0.1,0.3-0.2,0.4l0,0l0,0c-0.1-0.2-0.1-0.3-0.2-0.4
						c0-0.1,0-0.2,0.1-0.3c0.1,0,0.2,0,0.2,0C28.2,35.8,28.3,35.9,28.2,36z M28,36.3c0.2-0.2,0.2-0.4,0.1-0.5c0,0-0.1,0-0.1,0
						C27.9,35.8,27.8,35.9,28,36.3z"/>
				</g>
			</g>
			<g>
				<g>
					<path class="st6" d="M27.6,36.8c0,0.1-0.1,0.2-0.2,0.2c-0.1,0-0.2,0-0.2,0c-0.1-0.1-0.1-0.2-0.1-0.3c0-0.1,0.1-0.2,0.3-0.4l0,0
						l0,0C27.5,36.5,27.6,36.6,27.6,36.8C27.6,36.7,27.6,36.8,27.6,36.8z M27.2,36.8c0,0.1,0,0.1,0.1,0.2c0,0,0.1,0,0.1,0
						c0.2-0.1,0.2-0.3,0-0.6C27.2,36.6,27.2,36.7,27.2,36.8z"/>
				</g>
				<g>
					<path class="st6" d="M27.7,35.9C27.7,35.9,27.7,36,27.7,35.9c0,0.2-0.1,0.3-0.2,0.4l0,0l0,0c-0.1-0.2-0.1-0.3-0.2-0.4
						c0-0.1,0-0.2,0.1-0.3c0.1,0,0.2,0,0.2,0C27.7,35.7,27.7,35.8,27.7,35.9z M27.4,36.2c0.2-0.2,0.2-0.4,0.1-0.5c0,0-0.1,0-0.1,0
						C27.3,35.7,27.2,35.9,27.4,36.2z"/>
				</g>
			</g>
			<g>
				<g>
					<path class="st6" d="M27,36.7c0,0.1-0.1,0.2-0.2,0.2c-0.1,0-0.2,0-0.2,0c-0.1-0.1-0.1-0.2-0.1-0.3c0-0.1,0.1-0.2,0.3-0.4l0,0
						l0,0C27,36.4,27,36.5,27,36.7C27,36.7,27,36.7,27,36.7z M26.6,36.7c0,0.1,0,0.1,0.1,0.2c0,0,0.1,0,0.1,0c0.2-0.1,0.2-0.3,0-0.6
						C26.7,36.5,26.6,36.6,26.6,36.7z"/>
				</g>
				<g>
					<path class="st6" d="M27.1,35.8C27.1,35.9,27.1,35.9,27.1,35.8c0,0.2-0.1,0.3-0.2,0.4l0,0l0,0c-0.1-0.2-0.1-0.3-0.2-0.4
						c0-0.1,0-0.2,0.1-0.3c0.1,0,0.2,0,0.2,0C27.1,35.6,27.1,35.7,27.1,35.8z M26.8,36.2c0.2-0.2,0.2-0.4,0.1-0.5c0,0-0.1,0-0.1,0
						C26.7,35.7,26.6,35.8,26.8,36.2z"/>
				</g>
			</g>
			<g>
				<g>
					<path class="st6" d="M26.4,36.6c0,0.1-0.1,0.2-0.2,0.2c-0.1,0-0.2,0-0.2,0c-0.1-0.1-0.1-0.2-0.1-0.3c0-0.1,0.1-0.2,0.3-0.4l0,0
						l0,0C26.4,36.3,26.4,36.5,26.4,36.6C26.4,36.6,26.4,36.6,26.4,36.6z M26,36.6c0,0.1,0,0.1,0.1,0.2c0,0,0.1,0,0.1,0
						c0.2-0.1,0.2-0.3,0-0.6C26.1,36.4,26,36.5,26,36.6z"/>
				</g>
				<g>
					<path class="st6" d="M26.5,35.8C26.5,35.8,26.5,35.8,26.5,35.8c0,0.2-0.1,0.3-0.2,0.4l0,0l0,0c-0.1-0.2-0.1-0.3-0.2-0.4
						c0-0.1,0-0.2,0.1-0.3c0.1,0,0.2,0,0.2,0C26.5,35.6,26.5,35.7,26.5,35.8z M26.3,36.1c0.2-0.2,0.2-0.4,0.1-0.5c0,0-0.1,0-0.1,0
						C26.2,35.6,26.1,35.7,26.3,36.1z"/>
				</g>
			</g>
			<g>
				<g>
					<path class="st6" d="M25.9,36.6c0,0.1-0.1,0.2-0.2,0.2c-0.1,0-0.2,0-0.2,0c-0.1-0.1-0.1-0.2-0.1-0.3c0-0.1,0.1-0.2,0.3-0.4l0,0
						l0,0C25.8,36.3,25.9,36.4,25.9,36.6C25.9,36.5,25.9,36.5,25.9,36.6z M25.5,36.5c0,0.1,0,0.1,0.1,0.2c0,0,0.1,0,0.1,0
						c0.2-0.1,0.2-0.3,0-0.6C25.5,36.3,25.5,36.5,25.5,36.5z"/>
				</g>
				<g>
					<path class="st6" d="M26,35.7C26,35.7,26,35.7,26,35.7c0,0.2-0.1,0.3-0.2,0.4l0,0l0,0c-0.1-0.2-0.1-0.3-0.2-0.4
						c0-0.1,0-0.2,0.1-0.3c0.1,0,0.2,0,0.2,0C25.9,35.5,26,35.6,26,35.7z M25.7,36c0.2-0.2,0.2-0.4,0.1-0.5c0,0-0.1,0-0.1,0
						C25.6,35.5,25.5,35.6,25.7,36z"/>
				</g>
			</g>
			<g>
				<g>
					<path class="st6" d="M25.3,36.5c0,0.1-0.1,0.2-0.2,0.2c-0.1,0-0.2,0-0.2,0c-0.1-0.1-0.1-0.2-0.1-0.3c0-0.1,0.1-0.2,0.3-0.4l0,0
						l0,0C25.2,36.2,25.3,36.3,25.3,36.5C25.3,36.5,25.3,36.5,25.3,36.5z M24.9,36.5c0,0.1,0,0.1,0.1,0.2c0,0,0.1,0,0.1,0
						c0.2-0.1,0.2-0.3,0-0.6C25,36.3,24.9,36.4,24.9,36.5z"/>
				</g>
				<g>
					<path class="st6" d="M25.4,35.6C25.4,35.6,25.4,35.7,25.4,35.6c0,0.2-0.1,0.3-0.2,0.4l0,0l0,0c-0.1-0.2-0.1-0.3-0.2-0.4
						c0-0.1,0-0.2,0.1-0.3c0.1,0,0.2,0,0.2,0C25.4,35.4,25.4,35.5,25.4,35.6z M25.1,36c0.2-0.2,0.2-0.4,0.1-0.5c0,0-0.1,0-0.1,0
						C25,35.5,24.9,35.6,25.1,36z"/>
				</g>
			</g>
			<g>
				<g>
					<g>
						<path class="st6" d="M24.4,36.4c0,0.1-0.1,0.2-0.2,0.2c-0.1,0-0.2,0-0.2,0c-0.1-0.1-0.1-0.2-0.1-0.3c0-0.1,0.1-0.2,0.3-0.4
							l0,0l0,0C24.4,36.1,24.4,36.2,24.4,36.4C24.4,36.3,24.4,36.4,24.4,36.4z M24,36.4c0,0.1,0,0.1,0.1,0.2c0,0,0.1,0,0.1,0
							c0.2-0.1,0.2-0.3,0-0.6C24.1,36.2,24,36.3,24,36.4z"/>
					</g>
					<g>
						<path class="st6" d="M24.5,35.5C24.5,35.5,24.5,35.6,24.5,35.5c0,0.2-0.1,0.3-0.2,0.4l0,0l0,0c-0.1-0.2-0.1-0.3-0.2-0.4
							c0-0.1,0-0.2,0.1-0.3c0.1,0,0.2,0,0.2,0C24.5,35.3,24.5,35.4,24.5,35.5z M24.3,35.8c0.2-0.2,0.2-0.4,0.1-0.5c0,0-0.1,0-0.1,0
							C24.2,35.3,24.1,35.5,24.3,35.8z"/>
					</g>
				</g>
				<g>
					<g>
						<path class="st6" d="M24.3,35.9L24.3,35.9c-0.2,0.1-0.3,0.2-0.5,0.2c-0.1,0-0.2,0-0.3-0.2c0-0.1,0-0.2,0-0.2
							c0.1-0.1,0.2-0.1,0.3-0.1C24,35.7,24.1,35.8,24.3,35.9L24.3,35.9z M23.6,35.8C23.6,35.9,23.6,35.9,23.6,35.8
							c0.1,0.2,0.3,0.2,0.6,0.1C23.8,35.6,23.7,35.7,23.6,35.8C23.6,35.8,23.6,35.8,23.6,35.8z"/>
					</g>
					<g>
						<path class="st6" d="M25,36c0,0,0,0.1-0.1,0.1c-0.1,0.1-0.2,0.1-0.3,0.1c-0.1,0-0.2-0.1-0.4-0.2l0,0l0,0
							c0.2-0.1,0.3-0.1,0.4-0.2c0.1,0,0.2,0,0.3,0.1C25,35.9,25,36,25,36z M24.3,35.9c0.2,0.2,0.4,0.2,0.5,0.1c0,0,0-0.1,0-0.1
							C24.8,35.8,24.7,35.7,24.3,35.9z"/>
					</g>
				</g>
				<g>
					<circle class="st6" cx="24.2" cy="35.9" r="0.1"/>
				</g>
			</g>
		</g>
		<g>
			<g>
				
					<rect x="27.3" y="31.1" transform="matrix(0.2335 -0.9723 0.9723 0.2335 -11.9432 52.5903)" class="st7" width="0.1" height="5.6"/>
			</g>
			<g>
				<g>
					<path class="st7" d="M29.5,34.8c0,0.1-0.1,0.2-0.2,0.2c-0.1,0-0.2,0-0.2-0.1c-0.1-0.1-0.1-0.2,0-0.3c0-0.1,0.1-0.2,0.3-0.3l0,0
						l0,0C29.5,34.5,29.5,34.7,29.5,34.8C29.5,34.8,29.5,34.8,29.5,34.8z M29.1,34.8c0,0.1,0,0.1,0,0.2c0,0,0.1,0.1,0.1,0
						c0.2-0.1,0.2-0.3,0.1-0.6C29.2,34.6,29.1,34.7,29.1,34.8z"/>
				</g>
				<g>
					<path class="st7" d="M29.7,34C29.7,34,29.7,34,29.7,34c-0.1,0.2-0.1,0.3-0.3,0.4l0,0l0,0c-0.1-0.2-0.1-0.3-0.1-0.4
						c0-0.1,0.1-0.2,0.2-0.3c0.1,0,0.2,0,0.2,0.1C29.7,33.8,29.7,33.9,29.7,34z M29.4,34.3c0.2-0.2,0.3-0.4,0.2-0.5
						c0,0-0.1-0.1-0.1,0C29.3,33.8,29.2,33.9,29.4,34.3z"/>
				</g>
			</g>
			<g>
				<g>
					<path class="st7" d="M28.9,34.7c0,0.1-0.1,0.2-0.2,0.2c-0.1,0-0.2,0-0.2-0.1c-0.1-0.1-0.1-0.2,0-0.3c0-0.1,0.1-0.2,0.3-0.3l0,0
						l0,0C28.9,34.4,28.9,34.5,28.9,34.7C28.9,34.6,28.9,34.7,28.9,34.7z M28.5,34.6c0,0.1,0,0.1,0,0.2c0,0,0.1,0.1,0.1,0
						c0.2-0.1,0.2-0.3,0.1-0.6C28.6,34.4,28.6,34.5,28.5,34.6z"/>
				</g>
				<g>
					<path class="st7" d="M29.1,33.8C29.1,33.9,29.1,33.9,29.1,33.8c-0.1,0.2-0.1,0.3-0.3,0.4l0,0l0,0c-0.1-0.2-0.1-0.3-0.1-0.4
						c0-0.1,0.1-0.2,0.2-0.3c0.1,0,0.2,0,0.2,0.1C29.1,33.6,29.2,33.7,29.1,33.8z M28.8,34.1c0.2-0.2,0.3-0.4,0.2-0.5
						c0,0-0.1-0.1-0.1,0C28.8,33.6,28.7,33.7,28.8,34.1z"/>
				</g>
			</g>
			<g>
				<g>
					<path class="st7" d="M28.4,34.6c0,0.1-0.1,0.2-0.2,0.2c-0.1,0-0.2,0-0.2-0.1c-0.1-0.1-0.1-0.2,0-0.3c0-0.1,0.1-0.2,0.3-0.3l0,0
						l0,0C28.4,34.2,28.4,34.4,28.4,34.6C28.4,34.5,28.4,34.5,28.4,34.6z M28,34.5c0,0.1,0,0.1,0,0.2c0,0,0.1,0.1,0.1,0
						c0.2-0.1,0.2-0.3,0.1-0.6C28.1,34.3,28,34.4,28,34.5z"/>
				</g>
				<g>
					<path class="st7" d="M28.6,33.7C28.6,33.7,28.6,33.7,28.6,33.7c-0.1,0.2-0.1,0.3-0.3,0.4l0,0l0,0c-0.1-0.2-0.1-0.3-0.1-0.4
						c0-0.1,0.1-0.2,0.2-0.3c0.1,0,0.2,0,0.2,0.1C28.6,33.5,28.6,33.6,28.6,33.7z M28.3,34c0.2-0.2,0.3-0.4,0.2-0.5
						c0,0-0.1-0.1-0.1,0C28.2,33.5,28.1,33.6,28.3,34z"/>
				</g>
			</g>
			<g>
				<g>
					<path class="st7" d="M27.8,34.4c0,0.1-0.1,0.2-0.2,0.2c-0.1,0-0.2,0-0.2-0.1c-0.1-0.1-0.1-0.2,0-0.3c0-0.1,0.1-0.2,0.3-0.3l0,0
						l0,0C27.8,34.1,27.8,34.2,27.8,34.4C27.8,34.4,27.8,34.4,27.8,34.4z M27.4,34.4c0,0.1,0,0.1,0,0.2c0,0,0.1,0.1,0.1,0
						c0.2-0.1,0.2-0.3,0.1-0.6C27.5,34.2,27.4,34.3,27.4,34.4z"/>
				</g>
				<g>
					<path class="st7" d="M28,33.6C28,33.6,28,33.6,28,33.6c-0.1,0.2-0.1,0.3-0.3,0.4l0,0l0,0c-0.1-0.2-0.1-0.3-0.1-0.4
						c0-0.1,0.1-0.2,0.2-0.3c0.1,0,0.2,0,0.2,0.1C28,33.4,28,33.5,28,33.6z M27.7,33.9c0.2-0.2,0.3-0.4,0.2-0.5c0,0-0.1-0.1-0.1,0
						C27.7,33.4,27.5,33.5,27.7,33.9z"/>
				</g>
			</g>
			<g>
				<g>
					<path class="st7" d="M27.2,34.3c0,0.1-0.1,0.2-0.2,0.2c-0.1,0-0.2,0-0.2-0.1c-0.1-0.1-0.1-0.2,0-0.3c0-0.1,0.1-0.2,0.3-0.3l0,0
						l0,0C27.2,34,27.3,34.1,27.2,34.3C27.3,34.2,27.3,34.3,27.2,34.3z M26.9,34.2c0,0.1,0,0.1,0,0.2c0,0,0.1,0.1,0.1,0
						c0.2-0.1,0.2-0.3,0.1-0.6C27,34,26.9,34.1,26.9,34.2z"/>
				</g>
				<g>
					<path class="st7" d="M27.5,33.4C27.4,33.5,27.4,33.5,27.5,33.4c-0.1,0.2-0.1,0.3-0.3,0.4l0,0l0,0C27,33.6,27,33.5,27,33.4
						c0-0.1,0.1-0.2,0.2-0.3c0.1,0,0.2,0,0.2,0.1C27.5,33.2,27.5,33.3,27.5,33.4z M27.2,33.7c0.2-0.2,0.3-0.4,0.2-0.5
						c0,0-0.1-0.1-0.1,0C27.1,33.2,27,33.3,27.2,33.7z"/>
				</g>
			</g>
			<g>
				<g>
					<path class="st7" d="M26.7,34.2c0,0.1-0.1,0.2-0.2,0.2c-0.1,0-0.2,0-0.2-0.1c-0.1-0.1-0.1-0.2,0-0.3c0-0.1,0.1-0.2,0.3-0.3l0,0
						l0,0C26.7,33.8,26.7,34,26.7,34.2C26.7,34.1,26.7,34.1,26.7,34.2z M26.3,34.1c0,0.1,0,0.1,0,0.2c0,0,0.1,0.1,0.1,0
						c0.2-0.1,0.2-0.3,0.1-0.6C26.4,33.9,26.3,34,26.3,34.1z"/>
				</g>
				<g>
					<path class="st7" d="M26.9,33.3C26.9,33.3,26.9,33.3,26.9,33.3c-0.1,0.2-0.1,0.3-0.3,0.4l0,0l0,0c-0.1-0.2-0.1-0.3-0.1-0.4
						c0-0.1,0.1-0.2,0.2-0.3c0.1,0,0.2,0,0.2,0.1C26.9,33.1,26.9,33.2,26.9,33.3z M26.6,33.6c0.2-0.2,0.3-0.4,0.2-0.5
						c0,0-0.1-0.1-0.1,0C26.5,33.1,26.4,33.2,26.6,33.6z"/>
				</g>
			</g>
			<g>
				<g>
					<path class="st7" d="M26.1,34c0,0.1-0.1,0.2-0.2,0.2c-0.1,0-0.2,0-0.2-0.1c-0.1-0.1-0.1-0.2,0-0.3c0-0.1,0.1-0.2,0.3-0.3l0,0
						l0,0C26.1,33.7,26.1,33.8,26.1,34C26.1,34,26.1,34,26.1,34z M25.7,34c0,0.1,0,0.1,0,0.2c0,0,0.1,0.1,0.1,0
						c0.2-0.1,0.2-0.3,0.1-0.6C25.8,33.8,25.8,33.9,25.7,34z"/>
				</g>
				<g>
					<path class="st7" d="M26.3,33.2C26.3,33.2,26.3,33.2,26.3,33.2c-0.1,0.2-0.1,0.3-0.3,0.4l0,0l0,0c-0.1-0.2-0.1-0.3-0.1-0.4
						c0-0.1,0.1-0.2,0.2-0.3c0.1,0,0.2,0,0.2,0.1C26.3,33,26.4,33.1,26.3,33.2z M26,33.5c0.2-0.2,0.3-0.4,0.2-0.5c0,0-0.1-0.1-0.1,0
						C26,33,25.9,33.1,26,33.5z"/>
				</g>
			</g>
			<g>
				<g>
					<path class="st7" d="M25.6,33.9c0,0.1-0.1,0.2-0.2,0.2c-0.1,0-0.2,0-0.2-0.1c-0.1-0.1-0.1-0.2,0-0.3c0-0.1,0.1-0.2,0.3-0.3l0,0
						l0,0C25.6,33.6,25.6,33.7,25.6,33.9C25.6,33.8,25.6,33.9,25.6,33.9z M25.2,33.8c0,0.1,0,0.1,0,0.2c0,0,0.1,0.1,0.1,0
						c0.2-0.1,0.2-0.3,0.1-0.6C25.3,33.6,25.2,33.7,25.2,33.8z"/>
				</g>
				<g>
					<path class="st7" d="M25.8,33C25.8,33.1,25.8,33.1,25.8,33c-0.1,0.2-0.1,0.3-0.3,0.4l0,0l0,0c-0.1-0.2-0.1-0.3-0.1-0.4
						c0-0.1,0.1-0.2,0.2-0.3c0.1,0,0.2,0,0.2,0.1C25.8,32.8,25.8,32.9,25.8,33z M25.5,33.3c0.2-0.2,0.3-0.4,0.2-0.5
						c0,0-0.1-0.1-0.1,0C25.4,32.8,25.3,32.9,25.5,33.3z"/>
				</g>
			</g>
			<g>
				<g>
					<g>
						<path class="st7" d="M24.7,33.7c0,0.1-0.1,0.2-0.2,0.2c-0.1,0-0.2,0-0.2-0.1c-0.1-0.1-0.1-0.2,0-0.3c0-0.1,0.1-0.2,0.3-0.3
							l0,0l0,0C24.7,33.4,24.7,33.5,24.7,33.7C24.7,33.6,24.7,33.7,24.7,33.7z M24.3,33.6c0,0.1,0,0.1,0,0.2c0,0,0.1,0.1,0.1,0
							c0.2-0.1,0.2-0.3,0.1-0.6C24.4,33.4,24.4,33.5,24.3,33.6z"/>
					</g>
					<g>
						<path class="st7" d="M24.9,32.8C24.9,32.8,24.9,32.9,24.9,32.8c-0.1,0.2-0.1,0.3-0.3,0.4l0,0l0,0c-0.1-0.2-0.1-0.3-0.1-0.4
							c0-0.1,0.1-0.2,0.2-0.3c0.1,0,0.2,0,0.2,0.1C24.9,32.6,24.9,32.7,24.9,32.8z M24.6,33.1c0.2-0.2,0.3-0.4,0.2-0.5
							c0,0-0.1-0.1-0.1,0C24.6,32.6,24.5,32.7,24.6,33.1z"/>
					</g>
				</g>
				<g>
					<g>
						<path class="st7" d="M24.6,33.2L24.6,33.2c-0.2,0.1-0.4,0.1-0.5,0.1c-0.1,0-0.2-0.1-0.3-0.2c0-0.1,0-0.2,0.1-0.2
							c0.1-0.1,0.2-0.1,0.3,0C24.4,32.9,24.5,33,24.6,33.2L24.6,33.2z M24,33C23.9,33.1,23.9,33.1,24,33c0.1,0.2,0.3,0.3,0.6,0.2
							C24.2,32.9,24.1,32.9,24,33C24,33,24,33,24,33z"/>
					</g>
					<g>
						<path class="st7" d="M25.3,33.4c0,0,0,0.1-0.1,0.1c-0.1,0.1-0.2,0.1-0.3,0c-0.1,0-0.2-0.1-0.3-0.3l0,0l0,0
							c0.2-0.1,0.3-0.1,0.4-0.1c0.1,0,0.2,0.1,0.3,0.2C25.3,33.3,25.3,33.3,25.3,33.4z M24.7,33.2c0.2,0.2,0.4,0.3,0.5,0.2
							c0,0,0.1-0.1,0-0.1C25.2,33.2,25.1,33.1,24.7,33.2z"/>
					</g>
				</g>
				<g>
					<circle class="st7" cx="24.6" cy="33.2" r="0.1"/>
				</g>
			</g>
		</g>
		<g>
			<g>
				
					<rect x="27.9" y="28.7" transform="matrix(0.3812 -0.9245 0.9245 0.3812 -11.7898 45.3303)" class="st8" width="0.1" height="5.6"/>
			</g>
			<g>
				<g>
					<path class="st8" d="M29.9,32.7c0,0.1-0.1,0.2-0.2,0.2c-0.1,0-0.2,0-0.2-0.1c-0.1-0.1-0.1-0.2,0-0.3c0.1-0.1,0.2-0.2,0.3-0.3
						l0,0l0,0.1C29.9,32.4,29.9,32.6,29.9,32.7C29.9,32.7,29.9,32.7,29.9,32.7z M29.5,32.6c0,0.1,0,0.1,0,0.2c0,0,0.1,0.1,0.1,0
						c0.2-0.1,0.2-0.2,0.2-0.5C29.6,32.4,29.6,32.5,29.5,32.6z"/>
				</g>
				<g>
					<path class="st8" d="M30.2,31.9C30.2,32,30.2,32,30.2,31.9c-0.1,0.2-0.2,0.2-0.3,0.3l0,0l0-0.1c0-0.2-0.1-0.3,0-0.4
						c0-0.1,0.1-0.2,0.2-0.3c0.1,0,0.2,0,0.2,0.1C30.3,31.7,30.3,31.8,30.2,31.9z M29.9,32.2c0.3-0.2,0.3-0.3,0.3-0.5
						c0,0-0.1-0.1-0.1-0.1C29.9,31.7,29.8,31.8,29.9,32.2z"/>
				</g>
			</g>
			<g>
				<g>
					<path class="st8" d="M29.4,32.5c0,0.1-0.1,0.2-0.2,0.2c-0.1,0-0.2,0-0.2-0.1c-0.1-0.1-0.1-0.2,0-0.3c0.1-0.1,0.2-0.2,0.3-0.3
						l0,0l0,0.1C29.4,32.2,29.4,32.4,29.4,32.5C29.4,32.5,29.4,32.5,29.4,32.5z M29,32.4c0,0.1,0,0.1,0,0.2c0,0,0.1,0.1,0.1,0
						c0.2-0.1,0.2-0.2,0.2-0.5C29.1,32.2,29,32.3,29,32.4z"/>
				</g>
				<g>
					<path class="st8" d="M29.7,31.7C29.7,31.7,29.7,31.8,29.7,31.7c-0.1,0.2-0.2,0.2-0.3,0.3l0,0l0-0.1c0-0.2-0.1-0.3,0-0.4
						c0-0.1,0.1-0.2,0.2-0.3c0.1,0,0.2,0,0.2,0.1C29.7,31.5,29.7,31.6,29.7,31.7z M29.4,32c0.3-0.2,0.3-0.3,0.3-0.5
						c0,0-0.1-0.1-0.1-0.1C29.4,31.4,29.3,31.5,29.4,32z"/>
				</g>
			</g>
			<g>
				<g>
					<path class="st8" d="M28.8,32.3c0,0.1-0.1,0.2-0.2,0.2c-0.1,0-0.2,0-0.2-0.1c-0.1-0.1-0.1-0.2,0-0.3c0.1-0.1,0.2-0.2,0.3-0.3
						l0,0l0,0.1C28.9,32,28.9,32.1,28.8,32.3C28.8,32.3,28.8,32.3,28.8,32.3z M28.5,32.2c0,0.1,0,0.1,0,0.2c0,0,0.1,0.1,0.1,0
						c0.2-0.1,0.2-0.2,0.2-0.5C28.6,32,28.5,32.1,28.5,32.2z"/>
				</g>
				<g>
					<path class="st8" d="M29.2,31.5C29.2,31.5,29.1,31.5,29.2,31.5c-0.1,0.2-0.2,0.2-0.3,0.3l0,0l0-0.1c0-0.2-0.1-0.3,0-0.4
						c0-0.1,0.1-0.2,0.2-0.3c0.1,0,0.2,0,0.2,0.1C29.2,31.3,29.2,31.4,29.2,31.5z M28.8,31.7c0.3-0.2,0.3-0.3,0.3-0.5
						c0,0-0.1-0.1-0.1-0.1C28.9,31.2,28.7,31.3,28.8,31.7z"/>
				</g>
			</g>
			<g>
				<g>
					<path class="st8" d="M28.3,32.1c0,0.1-0.1,0.2-0.2,0.2c-0.1,0-0.2,0-0.2-0.1c-0.1-0.1-0.1-0.2,0-0.3c0.1-0.1,0.2-0.2,0.3-0.3
						l0,0l0,0.1C28.3,31.8,28.3,31.9,28.3,32.1C28.3,32,28.3,32.1,28.3,32.1z M27.9,32c0,0.1,0,0.1,0,0.2c0,0,0.1,0.1,0.1,0
						c0.2-0.1,0.2-0.2,0.2-0.5C28,31.8,28,31.9,27.9,32z"/>
				</g>
				<g>
					<path class="st8" d="M28.6,31.3C28.6,31.3,28.6,31.3,28.6,31.3c-0.1,0.2-0.2,0.2-0.3,0.3l0,0l0-0.1c0-0.2-0.1-0.3,0-0.4
						c0-0.1,0.1-0.2,0.2-0.3c0.1,0,0.2,0,0.2,0.1C28.7,31.1,28.7,31.2,28.6,31.3z M28.3,31.5c0.3-0.2,0.3-0.3,0.3-0.5
						c0,0-0.1-0.1-0.1-0.1C28.3,31,28.2,31.1,28.3,31.5z"/>
				</g>
			</g>
			<g>
				<g>
					<path class="st8" d="M27.8,31.9c0,0.1-0.1,0.2-0.2,0.2c-0.1,0-0.2,0-0.2-0.1c-0.1-0.1-0.1-0.2,0-0.3c0.1-0.1,0.2-0.2,0.3-0.3
						l0,0l0,0.1C27.8,31.6,27.8,31.7,27.8,31.9C27.8,31.8,27.8,31.8,27.8,31.9z M27.4,31.7c0,0.1,0,0.1,0,0.2c0,0,0.1,0.1,0.1,0
						c0.2-0.1,0.2-0.2,0.2-0.5C27.5,31.6,27.4,31.7,27.4,31.7z"/>
				</g>
				<g>
					<path class="st8" d="M28.1,31.1C28.1,31.1,28.1,31.1,28.1,31.1c-0.1,0.2-0.2,0.2-0.3,0.3l0,0l0-0.1c0-0.2-0.1-0.3,0-0.4
						c0-0.1,0.1-0.2,0.2-0.3c0.1,0,0.2,0,0.2,0.1C28.1,30.9,28.1,31,28.1,31.1z M27.8,31.3c0.3-0.2,0.3-0.3,0.3-0.5
						c0,0-0.1-0.1-0.1-0.1C27.8,30.8,27.7,30.9,27.8,31.3z"/>
				</g>
			</g>
			<g>
				<g>
					<path class="st8" d="M27.2,31.6c0,0.1-0.1,0.2-0.2,0.2c-0.1,0-0.2,0-0.2-0.1c-0.1-0.1-0.1-0.2,0-0.3c0.1-0.1,0.2-0.2,0.3-0.3
						l0,0l0,0.1C27.3,31.3,27.3,31.5,27.2,31.6C27.2,31.6,27.2,31.6,27.2,31.6z M26.9,31.5c0,0.1,0,0.1,0,0.2c0,0,0.1,0.1,0.1,0
						c0.2-0.1,0.2-0.2,0.2-0.5C27,31.3,26.9,31.4,26.9,31.5z"/>
				</g>
				<g>
					<path class="st8" d="M27.6,30.8C27.6,30.9,27.5,30.9,27.6,30.8c-0.1,0.2-0.2,0.2-0.3,0.3l0,0l0-0.1c0-0.2-0.1-0.3,0-0.4
						c0-0.1,0.1-0.2,0.2-0.3c0.1,0,0.2,0,0.2,0.1C27.6,30.6,27.6,30.7,27.6,30.8z M27.2,31.1c0.3-0.2,0.3-0.3,0.3-0.5
						c0,0-0.1-0.1-0.1-0.1C27.3,30.6,27.1,30.7,27.2,31.1z"/>
				</g>
			</g>
			<g>
				<g>
					<path class="st8" d="M26.7,31.4c0,0.1-0.1,0.2-0.2,0.2c-0.1,0-0.2,0-0.2-0.1c-0.1-0.1-0.1-0.2,0-0.3c0.1-0.1,0.2-0.2,0.3-0.3
						l0,0l0,0.1C26.7,31.1,26.7,31.3,26.7,31.4C26.7,31.4,26.7,31.4,26.7,31.4z M26.3,31.3c0,0.1,0,0.1,0,0.2c0,0,0.1,0.1,0.1,0
						c0.2-0.1,0.2-0.2,0.2-0.5C26.4,31.1,26.4,31.2,26.3,31.3z"/>
				</g>
				<g>
					<path class="st8" d="M27,30.6C27,30.6,27,30.7,27,30.6c-0.1,0.2-0.2,0.2-0.3,0.3l0,0l0-0.1c0-0.2-0.1-0.3,0-0.4
						c0-0.1,0.1-0.2,0.2-0.3c0.1,0,0.2,0,0.2,0.1C27.1,30.4,27.1,30.5,27,30.6z M26.7,30.9c0.3-0.2,0.3-0.3,0.3-0.5
						c0,0-0.1-0.1-0.1-0.1C26.7,30.3,26.6,30.4,26.7,30.9z"/>
				</g>
			</g>
			<g>
				<g>
					<path class="st8" d="M26.2,31.2c0,0.1-0.1,0.2-0.2,0.2c-0.1,0-0.2,0-0.2-0.1c-0.1-0.1-0.1-0.2,0-0.3c0.1-0.1,0.2-0.2,0.3-0.3
						l0,0l0,0.1C26.2,30.9,26.2,31,26.2,31.2C26.2,31.2,26.2,31.2,26.2,31.2z M25.8,31.1c0,0.1,0,0.1,0,0.2c0,0,0.1,0.1,0.1,0
						c0.2-0.1,0.2-0.2,0.2-0.5C25.9,30.9,25.8,31,25.8,31.1z"/>
				</g>
				<g>
					<path class="st8" d="M26.5,30.4C26.5,30.4,26.5,30.4,26.5,30.4c-0.1,0.2-0.2,0.2-0.3,0.3l0,0l0-0.1c0-0.2-0.1-0.3,0-0.4
						c0-0.1,0.1-0.2,0.2-0.3c0.1,0,0.2,0,0.2,0.1C26.5,30.2,26.5,30.3,26.5,30.4z M26.2,30.6c0.3-0.2,0.3-0.3,0.3-0.5
						c0,0-0.1-0.1-0.1-0.1C26.2,30.1,26.1,30.2,26.2,30.6z"/>
				</g>
			</g>
			<g>
				<g>
					<g>
						<path class="st8" d="M25.4,30.9c0,0.1-0.1,0.2-0.2,0.2c-0.1,0-0.2,0-0.2-0.1c-0.1-0.1-0.1-0.2,0-0.3c0.1-0.1,0.2-0.2,0.3-0.3
							l0,0l0,0.1C25.4,30.6,25.4,30.7,25.4,30.9C25.4,30.8,25.4,30.8,25.4,30.9z M25,30.7c0,0.1,0,0.1,0,0.2c0,0,0.1,0.1,0.1,0
							c0.2-0.1,0.2-0.2,0.2-0.5C25.1,30.6,25,30.7,25,30.7z"/>
					</g>
					<g>
						<path class="st8" d="M25.7,30.1C25.7,30.1,25.7,30.1,25.7,30.1c-0.1,0.2-0.2,0.2-0.3,0.3l0,0l0-0.1c0-0.2-0.1-0.3,0-0.4
							c0-0.1,0.1-0.2,0.2-0.3c0.1,0,0.2,0,0.2,0.1C25.7,29.9,25.7,30,25.7,30.1z M25.4,30.3c0.3-0.2,0.3-0.3,0.3-0.5
							c0,0-0.1-0.1-0.1-0.1C25.4,29.8,25.3,29.9,25.4,30.3z"/>
					</g>
				</g>
				<g>
					<g>
						<path class="st8" d="M25.4,30.4L25.4,30.4c-0.2,0.1-0.4,0.1-0.5,0c-0.1,0-0.2-0.1-0.2-0.2c0-0.1,0-0.2,0.1-0.2
							c0.1-0.1,0.2-0.1,0.3,0C25.1,30.1,25.2,30.2,25.4,30.4L25.4,30.4z M24.7,30.1C24.7,30.1,24.7,30.2,24.7,30.1
							c0.1,0.2,0.2,0.3,0.5,0.2C25,30,24.8,30,24.7,30.1C24.7,30.1,24.7,30.1,24.7,30.1z"/>
					</g>
					<g>
						<path class="st8" d="M26,30.6C26,30.7,25.9,30.7,26,30.6c-0.2,0.1-0.3,0.1-0.4,0.1c-0.1-0.1-0.2-0.2-0.3-0.3l0,0l0.1,0
							c0.2,0,0.3-0.1,0.4,0c0.1,0,0.2,0.1,0.3,0.2C26,30.6,26,30.6,26,30.6z M25.4,30.4c0.2,0.3,0.3,0.3,0.5,0.3
							c0,0,0.1-0.1,0.1-0.1C25.9,30.4,25.8,30.3,25.4,30.4z"/>
					</g>
				</g>
				<g>
					<circle class="st8" cx="25.3" cy="30.4" r="0.1"/>
				</g>
			</g>
		</g>
		<g>
			<g>
				
					<rect x="36.1" y="25.5" transform="matrix(1 -7.927733e-03 7.927733e-03 1 -0.2229 0.2876)" class="st9" width="0.1" height="5.6"/>
			</g>
			<g>
				<g>
					<path class="st9" d="M36.6,30.5c-0.1,0-0.2-0.1-0.4-0.2l0,0l0,0c0.2-0.1,0.3-0.2,0.4-0.2c0.1,0,0.2,0,0.3,0.1
						c0.1,0.1,0.1,0.2,0,0.2C36.8,30.5,36.7,30.5,36.6,30.5C36.6,30.5,36.6,30.5,36.6,30.5z M36.3,30.3c0.3,0.2,0.4,0.2,0.6,0
						c0,0,0-0.1,0-0.1c0,0-0.1-0.1-0.2-0.1C36.6,30.1,36.4,30.2,36.3,30.3z"/>
				</g>
				<g>
					<path class="st9" d="M35.5,30.4c-0.1-0.1-0.1-0.2,0-0.2c0.1-0.1,0.2-0.1,0.3-0.1c0.1,0,0.2,0.1,0.4,0.2l0,0l0,0
						c-0.1,0.1-0.3,0.2-0.4,0.2c0,0,0,0-0.1,0C35.6,30.5,35.6,30.5,35.5,30.4z M35.5,30.2c0,0,0,0.1,0,0.1c0.1,0.1,0.3,0.1,0.6,0
						C35.8,30.1,35.6,30.1,35.5,30.2z"/>
				</g>
			</g>
			<g>
				<g>
					<path class="st9" d="M36.6,29.9c-0.1,0-0.2-0.1-0.4-0.2l0,0l0,0c0.2-0.1,0.3-0.2,0.4-0.2c0.1,0,0.2,0,0.3,0.1
						c0.1,0.1,0.1,0.2,0,0.2C36.8,29.9,36.7,29.9,36.6,29.9C36.6,29.9,36.6,29.9,36.6,29.9z M36.3,29.7c0.3,0.2,0.4,0.2,0.6,0
						c0,0,0-0.1,0-0.1c0,0-0.1-0.1-0.2-0.1C36.6,29.6,36.4,29.6,36.3,29.7z"/>
				</g>
				<g>
					<path class="st9" d="M35.5,29.8c-0.1-0.1-0.1-0.2,0-0.2c0.1-0.1,0.2-0.1,0.3-0.1c0.1,0,0.2,0.1,0.4,0.2l0,0l0,0
						c-0.1,0.1-0.3,0.2-0.4,0.2c0,0,0,0-0.1,0C35.6,29.9,35.6,29.9,35.5,29.8z M35.5,29.6c0,0,0,0.1,0,0.1c0.1,0.1,0.3,0.1,0.6,0
						C35.7,29.5,35.6,29.6,35.5,29.6z"/>
				</g>
			</g>
			<g>
				<g>
					<path class="st9" d="M36.6,29.4c-0.1,0-0.2-0.1-0.4-0.2l0,0l0,0c0.2-0.1,0.3-0.2,0.4-0.2c0.1,0,0.2,0,0.3,0.1
						c0.1,0.1,0.1,0.2,0,0.2C36.8,29.3,36.7,29.4,36.6,29.4C36.6,29.4,36.6,29.4,36.6,29.4z M36.3,29.1c0.3,0.2,0.4,0.2,0.6,0
						c0,0,0-0.1,0-0.1c0,0-0.1-0.1-0.2-0.1C36.5,29,36.4,29,36.3,29.1z"/>
				</g>
				<g>
					<path class="st9" d="M35.5,29.3c-0.1-0.1-0.1-0.2,0-0.2c0.1-0.1,0.2-0.1,0.3-0.1c0.1,0,0.2,0.1,0.4,0.2l0,0l0,0
						c-0.1,0.1-0.3,0.2-0.4,0.2c0,0,0,0-0.1,0C35.6,29.4,35.6,29.3,35.5,29.3z M35.5,29.1c0,0,0,0.1,0,0.1c0.1,0.1,0.3,0.1,0.6,0
						C35.7,28.9,35.6,29,35.5,29.1z"/>
				</g>
			</g>
			<g>
				<g>
					<path class="st9" d="M36.5,28.8c-0.1,0-0.2-0.1-0.4-0.2l0,0l0,0c0.2-0.1,0.3-0.2,0.4-0.2c0.1,0,0.2,0,0.3,0.1
						c0.1,0.1,0.1,0.2,0,0.2C36.8,28.7,36.7,28.8,36.5,28.8C36.6,28.8,36.6,28.8,36.5,28.8z M36.2,28.6c0.3,0.2,0.4,0.2,0.6,0
						c0,0,0-0.1,0-0.1c0,0-0.1-0.1-0.2-0.1C36.5,28.4,36.4,28.4,36.2,28.6z"/>
				</g>
				<g>
					<path class="st9" d="M35.5,28.7c-0.1-0.1-0.1-0.2,0-0.2c0.1-0.1,0.2-0.1,0.3-0.1c0.1,0,0.2,0.1,0.4,0.2l0,0l0,0
						c-0.1,0.1-0.3,0.2-0.4,0.2c0,0,0,0-0.1,0C35.6,28.8,35.5,28.8,35.5,28.7z M35.5,28.5c0,0,0,0.1,0,0.1c0.1,0.1,0.3,0.1,0.6,0
						C35.7,28.3,35.6,28.4,35.5,28.5z"/>
				</g>
			</g>
			<g>
				<g>
					<path class="st9" d="M36.5,28.2c-0.1,0-0.2-0.1-0.4-0.2l0,0l0,0c0.2-0.1,0.3-0.2,0.4-0.2c0.1,0,0.2,0,0.3,0.1
						c0.1,0.1,0.1,0.2,0,0.2C36.8,28.2,36.7,28.2,36.5,28.2C36.6,28.2,36.6,28.2,36.5,28.2z M36.2,28c0.3,0.2,0.4,0.2,0.6,0
						c0,0,0-0.1,0-0.1c0,0-0.1-0.1-0.2-0.1C36.5,27.8,36.4,27.9,36.2,28z"/>
				</g>
				<g>
					<path class="st9" d="M35.5,28.1c-0.1-0.1-0.1-0.2,0-0.2c0.1-0.1,0.2-0.1,0.3-0.1c0.1,0,0.2,0.1,0.4,0.2l0,0l0,0
						c-0.1,0.1-0.3,0.2-0.4,0.2c0,0,0,0-0.1,0C35.6,28.2,35.5,28.2,35.5,28.1z M35.5,27.9c0,0,0,0.1,0,0.1c0.1,0.1,0.3,0.1,0.6,0
						C35.7,27.7,35.6,27.8,35.5,27.9z"/>
				</g>
			</g>
			<g>
				<g>
					<path class="st9" d="M36.5,27.6c-0.1,0-0.2-0.1-0.4-0.2l0,0l0,0c0.2-0.1,0.3-0.2,0.4-0.2c0.1,0,0.2,0,0.3,0.1
						c0.1,0.1,0.1,0.2,0,0.2C36.8,27.6,36.7,27.6,36.5,27.6C36.6,27.6,36.6,27.6,36.5,27.6z M36.2,27.4c0.3,0.2,0.4,0.2,0.6,0
						c0,0,0-0.1,0-0.1c0,0-0.1-0.1-0.2-0.1C36.5,27.2,36.4,27.3,36.2,27.4z"/>
				</g>
				<g>
					<path class="st9" d="M35.5,27.5c-0.1-0.1-0.1-0.2,0-0.2c0.1-0.1,0.2-0.1,0.3-0.1c0.1,0,0.2,0.1,0.4,0.2l0,0l0,0
						c-0.1,0.1-0.3,0.2-0.4,0.2c0,0,0,0-0.1,0C35.6,27.6,35.5,27.6,35.5,27.5z M35.5,27.3c0,0,0,0.1,0,0.1c0.1,0.1,0.3,0.1,0.6,0
						C35.7,27.2,35.6,27.3,35.5,27.3z"/>
				</g>
			</g>
			<g>
				<g>
					<path class="st9" d="M36.5,27.1c-0.1,0-0.2-0.1-0.4-0.2l0,0l0,0c0.2-0.1,0.3-0.2,0.4-0.2c0.1,0,0.2,0,0.3,0.1
						c0.1,0.1,0.1,0.2,0,0.2C36.8,27,36.7,27.1,36.5,27.1C36.6,27.1,36.6,27.1,36.5,27.1z M36.2,26.8c0.3,0.2,0.4,0.2,0.6,0
						c0,0,0-0.1,0-0.1c0,0-0.1-0.1-0.2-0.1C36.5,26.7,36.4,26.7,36.2,26.8z"/>
				</g>
				<g>
					<path class="st9" d="M35.5,26.9c-0.1-0.1-0.1-0.2,0-0.2c0.1-0.1,0.2-0.1,0.3-0.1c0.1,0,0.2,0.1,0.4,0.2l0,0l0,0
						C36,27,35.9,27,35.8,27.1c0,0,0,0-0.1,0C35.6,27.1,35.5,27,35.5,26.9z M35.5,26.8c0,0,0,0.1,0,0.1c0.1,0.1,0.3,0.1,0.6,0
						C35.7,26.6,35.6,26.7,35.5,26.8z"/>
				</g>
			</g>
			<g>
				<g>
					<path class="st9" d="M36.5,26.5c-0.1,0-0.2-0.1-0.4-0.2l0,0l0,0c0.2-0.1,0.3-0.2,0.4-0.2c0.1,0,0.2,0,0.3,0.1
						c0.1,0.1,0.1,0.2,0,0.2C36.8,26.4,36.7,26.5,36.5,26.5C36.6,26.5,36.5,26.5,36.5,26.5z M36.2,26.3c0.3,0.2,0.4,0.2,0.6,0
						c0,0,0-0.1,0-0.1c0,0-0.1-0.1-0.2-0.1C36.5,26.1,36.4,26.1,36.2,26.3z"/>
				</g>
				<g>
					<path class="st9" d="M35.5,26.4c-0.1-0.1-0.1-0.2,0-0.2c0.1-0.1,0.2-0.1,0.3-0.1c0.1,0,0.2,0.1,0.4,0.2l0,0l0,0
						c-0.1,0.1-0.3,0.2-0.4,0.2c0,0,0,0-0.1,0C35.6,26.5,35.5,26.4,35.5,26.4z M35.5,26.2c0,0,0,0.1,0,0.1c0.1,0.1,0.3,0.1,0.6,0
						C35.7,26,35.6,26.1,35.5,26.2z"/>
				</g>
			</g>
			<g>
				<g>
					<g>
						<path class="st9" d="M36.5,25.6c-0.1,0-0.2-0.1-0.4-0.2l0,0l0,0c0.2-0.1,0.3-0.2,0.4-0.2c0.1,0,0.2,0,0.3,0.1
							c0.1,0.1,0.1,0.2,0,0.2C36.8,25.6,36.7,25.6,36.5,25.6C36.6,25.6,36.5,25.6,36.5,25.6z M36.2,25.4c0.3,0.2,0.4,0.2,0.6,0
							c0,0,0-0.1,0-0.1c0,0-0.1-0.1-0.2-0.1C36.5,25.2,36.4,25.3,36.2,25.4z"/>
					</g>
					<g>
						<path class="st9" d="M35.4,25.5c-0.1-0.1-0.1-0.2,0-0.2c0.1-0.1,0.2-0.1,0.3-0.1c0.1,0,0.2,0.1,0.4,0.2l0,0l0,0
							c-0.1,0.1-0.3,0.2-0.4,0.2c0,0,0,0-0.1,0C35.6,25.6,35.5,25.6,35.4,25.5z M35.5,25.3c0,0,0,0.1,0,0.1c0.1,0.1,0.3,0.1,0.6,0
							C35.7,25.1,35.6,25.2,35.5,25.3z"/>
					</g>
				</g>
				<g>
					<g>
						<path class="st9" d="M36.1,25.4c-0.1-0.2-0.2-0.3-0.2-0.4c0-0.1,0-0.2,0.1-0.3c0.1-0.1,0.2-0.1,0.2,0c0.1,0.1,0.1,0.2,0.1,0.3
							C36.3,25.1,36.3,25.2,36.1,25.4L36.1,25.4L36.1,25.4z M36.1,24.7c-0.1,0.1-0.2,0.2,0.1,0.6c0.2-0.3,0.2-0.4,0-0.6
							C36.2,24.7,36.1,24.7,36.1,24.7C36.1,24.7,36.1,24.7,36.1,24.7z"/>
					</g>
					<g>
						<path class="st9" d="M36,26.1c-0.1-0.1-0.1-0.2-0.1-0.3c0-0.1,0.1-0.2,0.2-0.4l0,0l0,0c0.1,0.1,0.2,0.3,0.2,0.4
							c0,0.1,0,0.2-0.1,0.3c0,0-0.1,0-0.1,0C36.1,26.1,36.1,26.1,36,26.1z M36.1,26c0,0,0.1,0,0.1,0c0.1-0.1,0.1-0.3,0-0.6
							C35.9,25.8,36,25.9,36.1,26z"/>
					</g>
				</g>
				<g>
					<circle class="st9" cx="36.1" cy="25.4" r="0.1"/>
				</g>
			</g>
		</g>
		<g>
			<g>
				
					<rect x="33.7" y="25.5" transform="matrix(0.9929 -0.119 0.119 0.9929 -3.1232 4.2144)" class="st10" width="0.1" height="5.6"/>
			</g>
			<g>
				<g>
					<path class="st10" d="M34.4,30.5c-0.1,0-0.2,0-0.4-0.1l0,0l0,0c0.1-0.1,0.3-0.2,0.4-0.3c0.1,0,0.2,0,0.3,0.1
						c0.1,0.1,0.1,0.2,0,0.2C34.6,30.4,34.5,30.5,34.4,30.5C34.4,30.5,34.4,30.5,34.4,30.5z M34.1,30.3c0.3,0.1,0.5,0.1,0.6,0
						c0,0,0-0.1,0-0.1c0,0-0.1-0.1-0.2-0.1C34.3,30.1,34.2,30.1,34.1,30.3z"/>
				</g>
				<g>
					<path class="st10" d="M33.3,30.5c-0.1-0.1-0.1-0.2,0-0.2c0.1-0.1,0.2-0.2,0.3-0.1c0.1,0,0.2,0.1,0.4,0.2l0,0l0,0
						c-0.1,0.1-0.3,0.2-0.4,0.2c0,0,0,0-0.1,0C33.5,30.6,33.4,30.6,33.3,30.5z M33.3,30.3c0,0,0,0.1,0,0.1c0.1,0.1,0.3,0.1,0.5-0.1
						C33.5,30.1,33.4,30.2,33.3,30.3z"/>
				</g>
			</g>
			<g>
				<g>
					<path class="st10" d="M34.3,29.9c-0.1,0-0.2,0-0.4-0.1l0,0l0,0c0.1-0.1,0.3-0.2,0.4-0.3c0.1,0,0.2,0,0.3,0.1
						c0.1,0.1,0.1,0.2,0,0.2C34.6,29.8,34.5,29.9,34.3,29.9C34.4,29.9,34.3,29.9,34.3,29.9z M34,29.7c0.3,0.1,0.5,0.1,0.6,0
						c0,0,0-0.1,0-0.1c0,0-0.1-0.1-0.2-0.1C34.3,29.5,34.2,29.6,34,29.7z"/>
				</g>
				<g>
					<path class="st10" d="M33.2,29.9c-0.1-0.1-0.1-0.2,0-0.2c0.1-0.1,0.2-0.2,0.3-0.1c0.1,0,0.2,0.1,0.4,0.2l0,0l0,0
						c-0.1,0.1-0.3,0.2-0.4,0.2c0,0,0,0-0.1,0C33.4,30,33.3,30,33.2,29.9z M33.3,29.7c0,0,0,0.1,0,0.1c0.1,0.1,0.3,0.1,0.5-0.1
						C33.5,29.5,33.3,29.6,33.3,29.7z"/>
				</g>
			</g>
			<g>
				<g>
					<path class="st10" d="M34.2,29.3c-0.1,0-0.2,0-0.4-0.1l0,0l0,0c0.1-0.1,0.3-0.2,0.4-0.3c0.1,0,0.2,0,0.3,0.1
						c0.1,0.1,0.1,0.2,0,0.2C34.5,29.3,34.4,29.3,34.2,29.3C34.3,29.3,34.3,29.3,34.2,29.3z M33.9,29.2c0.3,0.1,0.5,0.1,0.6,0
						c0,0,0-0.1,0-0.1c0,0-0.1-0.1-0.2-0.1C34.2,28.9,34.1,29,33.9,29.2z"/>
				</g>
				<g>
					<path class="st10" d="M33.2,29.3c-0.1-0.1-0.1-0.2,0-0.2c0.1-0.1,0.2-0.2,0.3-0.1c0.1,0,0.2,0.1,0.4,0.2l0,0l0,0
						c-0.1,0.1-0.3,0.2-0.4,0.2c0,0,0,0-0.1,0C33.3,29.4,33.2,29.4,33.2,29.3z M33.2,29.2c0,0,0,0.1,0,0.1c0.1,0.1,0.3,0.1,0.5-0.1
						C33.4,29,33.3,29.1,33.2,29.2z"/>
				</g>
			</g>
			<g>
				<g>
					<path class="st10" d="M34.2,28.8c-0.1,0-0.2,0-0.4-0.1l0,0l0,0c0.1-0.1,0.3-0.2,0.4-0.3c0.1,0,0.2,0,0.3,0.1
						c0.1,0.1,0.1,0.2,0,0.2C34.4,28.7,34.3,28.7,34.2,28.8C34.2,28.8,34.2,28.8,34.2,28.8z M33.9,28.6c0.3,0.1,0.5,0.1,0.6,0
						c0,0,0-0.1,0-0.1c0,0-0.1-0.1-0.2-0.1C34.1,28.4,34,28.4,33.9,28.6z"/>
				</g>
				<g>
					<path class="st10" d="M33.1,28.8c-0.1-0.1-0.1-0.2,0-0.2c0.1-0.1,0.2-0.2,0.3-0.1c0.1,0,0.2,0.1,0.4,0.2l0,0l0,0
						c-0.1,0.1-0.3,0.2-0.4,0.2c0,0,0,0-0.1,0C33.3,28.9,33.2,28.8,33.1,28.8z M33.1,28.6c0,0,0,0.1,0,0.1c0.1,0.1,0.3,0.1,0.5-0.1
						C33.3,28.4,33.2,28.5,33.1,28.6z"/>
				</g>
			</g>
			<g>
				<g>
					<path class="st10" d="M34.1,28.2c-0.1,0-0.2,0-0.4-0.1l0,0l0,0c0.1-0.1,0.3-0.2,0.4-0.3c0.1,0,0.2,0,0.3,0.1
						c0.1,0.1,0.1,0.2,0,0.2C34.4,28.1,34.3,28.2,34.1,28.2C34.1,28.2,34.1,28.2,34.1,28.2z M33.8,28c0.3,0.1,0.5,0.1,0.6,0
						c0,0,0-0.1,0-0.1c0,0-0.1-0.1-0.2-0.1C34.1,27.8,33.9,27.9,33.8,28z"/>
				</g>
				<g>
					<path class="st10" d="M33,28.2C33,28.1,33,28,33,28c0.1-0.1,0.2-0.2,0.3-0.1c0.1,0,0.2,0.1,0.4,0.2l0,0l0,0
						c-0.1,0.1-0.3,0.2-0.4,0.2c0,0,0,0-0.1,0C33.2,28.3,33.1,28.3,33,28.2z M33.1,28c0,0,0,0.1,0,0.1c0.1,0.1,0.3,0.1,0.5-0.1
						C33.3,27.8,33.1,27.9,33.1,28z"/>
				</g>
			</g>
			<g>
				<g>
					<path class="st10" d="M34,27.6c-0.1,0-0.2,0-0.4-0.1l0,0l0,0c0.1-0.1,0.3-0.2,0.4-0.3c0.1,0,0.2,0,0.3,0.1
						c0.1,0.1,0.1,0.2,0,0.2C34.3,27.5,34.2,27.6,34,27.6C34.1,27.6,34.1,27.6,34,27.6z M33.7,27.4c0.3,0.1,0.5,0.1,0.6,0
						c0,0,0-0.1,0-0.1c0,0-0.1-0.1-0.2-0.1C34,27.2,33.9,27.3,33.7,27.4z"/>
				</g>
				<g>
					<path class="st10" d="M33,27.6c-0.1-0.1-0.1-0.2,0-0.2c0.1-0.1,0.2-0.2,0.3-0.1c0.1,0,0.2,0.1,0.4,0.2l0,0l0,0
						c-0.1,0.1-0.3,0.2-0.4,0.2c0,0,0,0-0.1,0C33.1,27.7,33,27.7,33,27.6z M33,27.4c0,0,0,0.1,0,0.1c0.1,0.1,0.3,0.1,0.5-0.1
						C33.2,27.2,33.1,27.3,33,27.4z"/>
				</g>
			</g>
			<g>
				<g>
					<path class="st10" d="M34,27c-0.1,0-0.2,0-0.4-0.1l0,0l0,0c0.1-0.1,0.3-0.2,0.4-0.3c0.1,0,0.2,0,0.3,0.1c0.1,0.1,0.1,0.2,0,0.2
						C34.2,27,34.1,27,34,27C34,27,34,27,34,27z M33.7,26.9c0.3,0.1,0.5,0.1,0.6,0c0,0,0-0.1,0-0.1c0,0-0.1-0.1-0.2-0.1
						C33.9,26.7,33.8,26.7,33.7,26.9z"/>
				</g>
				<g>
					<path class="st10" d="M32.9,27c-0.1-0.1-0.1-0.2,0-0.2c0.1-0.1,0.2-0.2,0.3-0.1c0.1,0,0.2,0.1,0.4,0.2l0,0l0,0
						c-0.1,0.1-0.3,0.2-0.4,0.2c0,0,0,0-0.1,0C33.1,27.2,33,27.1,32.9,27z M32.9,26.9c0,0,0,0.1,0,0.1c0.1,0.1,0.3,0.1,0.5-0.1
						C33.1,26.7,33,26.8,32.9,26.9z"/>
				</g>
			</g>
			<g>
				<g>
					<path class="st10" d="M33.9,26.5c-0.1,0-0.2,0-0.4-0.1l0,0l0,0c0.1-0.1,0.3-0.2,0.4-0.3c0.1,0,0.2,0,0.3,0.1
						c0.1,0.1,0.1,0.2,0,0.2C34.1,26.4,34.1,26.5,33.9,26.5C33.9,26.5,33.9,26.5,33.9,26.5z M33.6,26.3c0.3,0.1,0.5,0.1,0.6,0
						c0,0,0-0.1,0-0.1c0,0-0.1-0.1-0.2-0.1C33.9,26.1,33.7,26.1,33.6,26.3z"/>
				</g>
				<g>
					<path class="st10" d="M32.8,26.5c-0.1-0.1-0.1-0.2,0-0.2c0.1-0.1,0.2-0.2,0.3-0.1c0.1,0,0.2,0.1,0.4,0.2l0,0l0,0
						c-0.1,0.1-0.3,0.2-0.4,0.2c0,0,0,0-0.1,0C33,26.6,32.9,26.5,32.8,26.5z M32.9,26.3c0,0,0,0.1,0,0.1c0.1,0.1,0.3,0.1,0.5-0.1
						C33,26.1,32.9,26.2,32.9,26.3z"/>
				</g>
			</g>
			<g>
				<g>
					<g>
						<path class="st10" d="M33.8,25.6c-0.1,0-0.2,0-0.4-0.1l0,0l0,0c0.1-0.1,0.3-0.2,0.4-0.3c0.1,0,0.2,0,0.3,0.1
							c0.1,0.1,0.1,0.2,0,0.2C34,25.5,34,25.6,33.8,25.6C33.8,25.6,33.8,25.6,33.8,25.6z M33.5,25.4c0.3,0.1,0.5,0.1,0.6,0
							c0,0,0-0.1,0-0.1c0,0-0.1-0.1-0.2-0.1C33.7,25.2,33.6,25.3,33.5,25.4z"/>
					</g>
					<g>
						<path class="st10" d="M32.7,25.6c-0.1-0.1-0.1-0.2,0-0.2c0.1-0.1,0.2-0.2,0.3-0.1c0.1,0,0.2,0.1,0.4,0.2l0,0l0,0
							c-0.1,0.1-0.3,0.2-0.4,0.2c0,0,0,0-0.1,0C32.9,25.7,32.8,25.7,32.7,25.6z M32.8,25.4c0,0,0,0.1,0,0.1c0.1,0.1,0.3,0.1,0.5-0.1
							C32.9,25.2,32.8,25.3,32.8,25.4z"/>
					</g>
				</g>
				<g>
					<g>
						<path class="st10" d="M33.4,25.4c-0.1-0.1-0.2-0.3-0.3-0.4c0-0.1,0-0.2,0.1-0.3c0.1-0.1,0.2-0.1,0.2,0
							c0.1,0.1,0.2,0.2,0.2,0.3C33.6,25.1,33.5,25.3,33.4,25.4L33.4,25.4L33.4,25.4z M33.2,24.8c-0.1,0.1-0.1,0.2,0.2,0.5
							c0.1-0.3,0.1-0.5,0-0.6C33.4,24.8,33.3,24.8,33.2,24.8C33.3,24.8,33.3,24.8,33.2,24.8z"/>
					</g>
					<g>
						<path class="st10" d="M33.4,26.1c-0.1-0.1-0.2-0.2-0.1-0.3c0-0.1,0.1-0.2,0.2-0.4l0,0l0,0c0.1,0.1,0.2,0.3,0.2,0.4
							c0,0.1,0,0.2-0.1,0.3c0,0-0.1,0.1-0.1,0.1C33.4,26.1,33.4,26.1,33.4,26.1z M33.4,26.1c0,0,0.1,0,0.1,0
							c0.1-0.1,0.1-0.3-0.1-0.5C33.2,25.9,33.3,26,33.4,26.1z"/>
					</g>
				</g>
				<g>
					<circle class="st10" cx="33.4" cy="25.4" r="0.1"/>
				</g>
			</g>
		</g>
		<g>
			<g>
				
					<rect x="31.3" y="25.8" transform="matrix(0.9625 -0.2712 0.2712 0.9625 -6.5742 9.5559)" class="st11" width="0.1" height="5.6"/>
			</g>
			<g>
				<g>
					<path class="st11" d="M32.3,30.6c-0.1,0-0.2,0-0.4-0.1l0,0l0,0c0.1-0.2,0.2-0.3,0.3-0.3c0.1-0.1,0.2-0.1,0.3,0
						c0.1,0,0.1,0.1,0.1,0.2C32.5,30.5,32.4,30.6,32.3,30.6C32.3,30.6,32.3,30.6,32.3,30.6z M31.9,30.5c0.3,0.1,0.5,0.1,0.5-0.1
						c0,0,0-0.1,0-0.1c0,0-0.1-0.1-0.2,0C32.2,30.3,32.1,30.3,31.9,30.5z"/>
				</g>
				<g>
					<path class="st11" d="M31.2,30.8c-0.1,0-0.1-0.1-0.1-0.2c0.1-0.1,0.1-0.2,0.3-0.2c0.1,0,0.3,0,0.4,0.1l0,0l0,0
						c-0.1,0.1-0.2,0.2-0.3,0.3c0,0,0,0-0.1,0C31.4,30.9,31.3,30.9,31.2,30.8z M31.2,30.6c0,0,0,0.1,0,0.1c0.2,0.1,0.3,0,0.5-0.2
						C31.4,30.4,31.3,30.5,31.2,30.6z"/>
				</g>
			</g>
			<g>
				<g>
					<path class="st11" d="M32.1,30.1c-0.1,0-0.2,0-0.4-0.1l0,0l0,0c0.1-0.2,0.2-0.3,0.3-0.3c0.1-0.1,0.2-0.1,0.3,0
						c0.1,0,0.1,0.1,0.1,0.2C32.3,30,32.3,30,32.1,30.1C32.1,30.1,32.1,30.1,32.1,30.1z M31.8,30c0.3,0.1,0.5,0.1,0.5-0.1
						c0,0,0-0.1,0-0.1c0,0-0.1-0.1-0.2,0C32,29.7,31.9,29.8,31.8,30z"/>
				</g>
				<g>
					<path class="st11" d="M31,30.3C31,30.2,31,30.1,31,30c0.1-0.1,0.1-0.2,0.3-0.2c0.1,0,0.3,0,0.4,0.1l0,0l0,0
						c-0.1,0.1-0.2,0.2-0.3,0.3c0,0,0,0-0.1,0C31.2,30.3,31.1,30.3,31,30.3z M31.1,30.1c0,0,0,0.1,0,0.1c0.2,0.1,0.3,0,0.5-0.2
						C31.2,29.9,31.1,30,31.1,30.1z"/>
				</g>
			</g>
			<g>
				<g>
					<path class="st11" d="M32,29.5c-0.1,0-0.2,0-0.4-0.1l0,0l0,0c0.1-0.2,0.2-0.3,0.3-0.3c0.1-0.1,0.2-0.1,0.3,0
						c0.1,0,0.1,0.1,0.1,0.2C32.2,29.4,32.1,29.5,32,29.5C32,29.5,32,29.5,32,29.5z M31.6,29.4c0.3,0.1,0.5,0.1,0.5-0.1
						c0,0,0-0.1,0-0.1c0,0-0.1-0.1-0.2,0C31.8,29.2,31.7,29.2,31.6,29.4z"/>
				</g>
				<g>
					<path class="st11" d="M30.9,29.7c-0.1,0-0.1-0.1-0.1-0.2c0.1-0.1,0.1-0.2,0.3-0.2c0.1,0,0.3,0,0.4,0.1l0,0l0,0
						c-0.1,0.1-0.2,0.2-0.3,0.3c0,0,0,0-0.1,0C31.1,29.8,31,29.8,30.9,29.7z M30.9,29.5c0,0,0,0.1,0,0.1c0.2,0.1,0.3,0,0.5-0.2
						C31.1,29.3,30.9,29.4,30.9,29.5z"/>
				</g>
			</g>
			<g>
				<g>
					<path class="st11" d="M31.8,29c-0.1,0-0.2,0-0.4-0.1l0,0l0,0c0.1-0.2,0.2-0.3,0.3-0.3c0.1-0.1,0.2-0.1,0.3,0
						c0.1,0,0.1,0.1,0.1,0.2C32,28.9,32,28.9,31.8,29C31.8,29,31.8,29,31.8,29z M31.5,28.9c0.3,0.1,0.5,0.1,0.5-0.1c0,0,0-0.1,0-0.1
						c0,0-0.1-0.1-0.2,0C31.7,28.6,31.6,28.7,31.5,28.9z"/>
				</g>
				<g>
					<path class="st11" d="M30.7,29.2c-0.1,0-0.1-0.1-0.1-0.2c0.1-0.1,0.1-0.2,0.3-0.2c0.1,0,0.3,0,0.4,0.1l0,0l0,0
						c-0.1,0.1-0.2,0.2-0.3,0.3c0,0,0,0-0.1,0C30.9,29.2,30.8,29.2,30.7,29.2z M30.7,29c0,0,0,0.1,0,0.1c0.2,0.1,0.3,0,0.5-0.2
						C30.9,28.7,30.8,28.9,30.7,29z"/>
				</g>
			</g>
			<g>
				<g>
					<path class="st11" d="M31.6,28.4c-0.1,0-0.2,0-0.4-0.1l0,0l0,0c0.1-0.2,0.2-0.3,0.3-0.3c0.1-0.1,0.2-0.1,0.3,0
						c0.1,0,0.1,0.1,0.1,0.2C31.9,28.3,31.8,28.4,31.6,28.4C31.7,28.4,31.7,28.4,31.6,28.4z M31.3,28.3c0.3,0.1,0.5,0.1,0.5-0.1
						c0,0,0-0.1,0-0.1c0,0-0.1-0.1-0.2,0C31.5,28.1,31.4,28.1,31.3,28.3z"/>
				</g>
				<g>
					<path class="st11" d="M30.6,28.6c-0.1,0-0.1-0.1-0.1-0.2c0.1-0.1,0.1-0.2,0.3-0.2c0.1,0,0.3,0,0.4,0.1l0,0l0,0
						c-0.1,0.1-0.2,0.2-0.3,0.3c0,0,0,0-0.1,0C30.8,28.7,30.7,28.7,30.6,28.6z M30.6,28.4c0,0,0,0.1,0,0.1c0.2,0.1,0.3,0,0.5-0.2
						C30.7,28.2,30.6,28.3,30.6,28.4z"/>
				</g>
			</g>
			<g>
				<g>
					<path class="st11" d="M31.5,27.9c-0.1,0-0.2,0-0.4-0.1l0,0l0,0c0.1-0.2,0.2-0.3,0.3-0.3c0.1-0.1,0.2-0.1,0.3,0
						c0.1,0,0.1,0.1,0.1,0.2C31.7,27.8,31.6,27.8,31.5,27.9C31.5,27.9,31.5,27.9,31.5,27.9z M31.1,27.7c0.3,0.1,0.5,0.1,0.5-0.1
						c0,0,0-0.1,0-0.1c0,0-0.1-0.1-0.2,0C31.4,27.5,31.3,27.6,31.1,27.7z"/>
				</g>
				<g>
					<path class="st11" d="M30.4,28c-0.1,0-0.1-0.1-0.1-0.2c0.1-0.1,0.1-0.2,0.3-0.2c0.1,0,0.3,0,0.4,0.1l0,0l0,0
						c-0.1,0.1-0.2,0.2-0.3,0.3c0,0,0,0-0.1,0C30.6,28.1,30.5,28.1,30.4,28z M30.4,27.9c0,0,0,0.1,0,0.1c0.2,0.1,0.3,0,0.5-0.2
						C30.6,27.6,30.5,27.8,30.4,27.9z"/>
				</g>
			</g>
			<g>
				<g>
					<path class="st11" d="M31.3,27.3c-0.1,0-0.2,0-0.4-0.1l0,0l0,0c0.1-0.2,0.2-0.3,0.3-0.3c0.1-0.1,0.2-0.1,0.3,0
						c0.1,0,0.1,0.1,0.1,0.2C31.6,27.2,31.5,27.3,31.3,27.3C31.4,27.3,31.3,27.3,31.3,27.3z M31,27.2c0.3,0.1,0.5,0.1,0.5-0.1
						c0,0,0-0.1,0-0.1c0,0-0.1-0.1-0.2,0C31.2,26.9,31.1,27,31,27.2z"/>
				</g>
				<g>
					<path class="st11" d="M30.3,27.5c-0.1,0-0.1-0.1-0.1-0.2c0.1-0.1,0.1-0.2,0.3-0.2c0.1,0,0.3,0,0.4,0.1l0,0l0,0
						c-0.1,0.1-0.2,0.2-0.3,0.3c0,0,0,0-0.1,0C30.5,27.6,30.4,27.5,30.3,27.5z M30.3,27.3c0,0,0,0.1,0,0.1c0.2,0.1,0.3,0,0.5-0.2
						C30.4,27.1,30.3,27.2,30.3,27.3z"/>
				</g>
			</g>
			<g>
				<g>
					<path class="st11" d="M31.2,26.8c-0.1,0-0.2,0-0.4-0.1l0,0l0,0c0.1-0.2,0.2-0.3,0.3-0.3c0.1-0.1,0.2-0.1,0.3,0
						c0.1,0,0.1,0.1,0.1,0.2C31.4,26.7,31.3,26.7,31.2,26.8C31.2,26.8,31.2,26.8,31.2,26.8z M30.8,26.6c0.3,0.1,0.5,0.1,0.5-0.1
						c0,0,0-0.1,0-0.1c0,0-0.1-0.1-0.2,0C31.1,26.4,31,26.5,30.8,26.6z"/>
				</g>
				<g>
					<path class="st11" d="M30.1,26.9c-0.1,0-0.1-0.1-0.1-0.2c0.1-0.1,0.1-0.2,0.3-0.2c0.1,0,0.3,0,0.4,0.1l0,0l0,0
						c-0.1,0.1-0.2,0.2-0.3,0.3c0,0,0,0-0.1,0C30.3,27,30.2,27,30.1,26.9z M30.1,26.7c0,0,0,0.1,0,0.1c0.2,0.1,0.3,0,0.5-0.2
						C30.3,26.5,30.2,26.6,30.1,26.7z"/>
				</g>
			</g>
			<g>
				<g>
					<g>
						<path class="st11" d="M30.9,25.9c-0.1,0-0.2,0-0.4-0.1l0,0l0,0c0.1-0.2,0.2-0.3,0.3-0.3c0.1-0.1,0.2-0.1,0.3,0
							c0.1,0,0.1,0.1,0.1,0.2C31.2,25.8,31.1,25.9,30.9,25.9C31,25.9,30.9,25.9,30.9,25.9z M30.6,25.8c0.3,0.1,0.5,0.1,0.5-0.1
							c0,0,0-0.1,0-0.1c0,0-0.1-0.1-0.2,0C30.8,25.5,30.7,25.6,30.6,25.8z"/>
					</g>
					<g>
						<path class="st11" d="M29.9,26.1c-0.1,0-0.1-0.1-0.1-0.2c0.1-0.1,0.1-0.2,0.3-0.2c0.1,0,0.3,0,0.4,0.1l0,0l0,0
							c-0.1,0.1-0.2,0.2-0.3,0.3c0,0,0,0-0.1,0C30.1,26.2,30,26.2,29.9,26.1z M29.9,25.9c0,0,0,0.1,0,0.1c0.2,0.1,0.3,0,0.5-0.2
							C30,25.7,29.9,25.8,29.9,25.9z"/>
					</g>
				</g>
				<g>
					<g>
						<path class="st11" d="M30.5,25.8c-0.2-0.1-0.3-0.2-0.3-0.3c-0.1-0.1-0.1-0.2,0-0.3c0-0.1,0.1-0.1,0.2-0.1
							c0.1,0.1,0.2,0.1,0.2,0.3C30.6,25.5,30.6,25.6,30.5,25.8L30.5,25.8L30.5,25.8z M30.3,25.2c-0.1,0.1-0.1,0.2,0.2,0.5
							c0.1-0.3,0.1-0.5-0.1-0.5C30.4,25.2,30.3,25.2,30.3,25.2C30.3,25.2,30.3,25.2,30.3,25.2z"/>
					</g>
					<g>
						<path class="st11" d="M30.6,26.5c-0.1-0.1-0.2-0.1-0.2-0.3c0-0.1,0-0.3,0.1-0.4l0,0l0,0c0.1,0.1,0.2,0.2,0.3,0.3
							c0.1,0.1,0,0.2,0,0.3c0,0-0.1,0.1-0.1,0.1C30.7,26.5,30.6,26.5,30.6,26.5z M30.6,26.4c0,0,0.1,0,0.1,0c0.1-0.2,0-0.3-0.2-0.5
							C30.4,26.3,30.5,26.4,30.6,26.4z"/>
					</g>
				</g>
				<g>
					<circle class="st11" cx="30.5" cy="25.8" r="0.1"/>
				</g>
			</g>
		</g>
		<path class="st12" d="M32,39.1c-0.4-0.2-1.7-1.1-2.1-1.4l2.1-1.9l2.9,3.2L32,39.1z"/>
		<path class="st12" d="M38.4,33.5c-0.2-0.4-0.9-1.8-1.2-2.2l-2.1,1.9l2.9,3.2L38.4,33.5z"/>
		<path class="st1" d="M33.4,39.9c-0.5,0.5-1.5,0.1-1.8-0.5c-0.1-0.1-0.1-0.3,0-0.5c0.1-0.3,0.4-0.3,0.6-0.3L33.4,39.9z"/>
		<path class="st13" d="M32.4,38.8c-1,0.4,0.1,1.4,0.8,0.9"/>
		<g>
			<path class="st14" d="M32.4,38.8c-0.1,0-0.2,0.1-0.2,0.1c0,0-0.1,0.1-0.1,0.1c0,0-0.1,0.1-0.1,0.1c0,0,0,0.1,0,0.1
				c0,0,0,0.1,0,0.1c0,0,0.1,0.1,0.1,0.1c0,0,0.1,0.1,0.1,0.1c-0.1-0.1-0.1-0.1-0.2-0.2c0,0,0-0.1-0.1-0.1c0,0,0-0.1,0-0.1
				c0,0,0-0.1,0.1-0.1c0,0,0.1-0.1,0.1-0.1C32.3,38.8,32.3,38.8,32.4,38.8L32.4,38.8z"/>
		</g>
		<path class="st1" d="M39,34.9c0.5-0.5,0.2-1.5-0.3-1.8C38.5,33,38.4,33,38.2,33c-0.3,0.1-0.4,0.4-0.4,0.5L39,34.9z"/>
		<path class="st13" d="M38,33.8c0.5-0.9,1.3,0.3,0.8,0.8"/>
		<g>
			<path class="st14" d="M38,33.8c0-0.1,0.1-0.2,0.2-0.2c0,0,0.1-0.1,0.1-0.1c0,0,0.1,0,0.1-0.1c0,0,0.1,0,0.1,0c0,0,0.1,0,0.1,0.1
				c0,0,0.1,0.1,0.1,0.1c0,0,0.1,0.1,0.1,0.1c-0.1-0.1-0.1-0.2-0.2-0.2c0,0-0.1-0.1-0.1-0.1c0,0-0.1,0-0.1,0c0,0-0.1,0-0.1,0
				c0,0-0.1,0.1-0.1,0.1C38.1,33.6,38,33.7,38,33.8L38,33.8z"/>
		</g>
		<path class="st1" d="M35.3,31l-5.5,4.9c2.3,4.1,4.8,5.9,7.8,3.3l0.1-0.1C40.6,36.5,39.1,33.8,35.3,31z"/>
		<path class="st15" d="M33.9,38.1l-0.3,0.2c-0.1,0.1-0.1,0.2-0.1,0.3c0,0.1,0.1,0.1,0.2,0.2c0.1,0,0.2,0,0.3-0.1l0.1-0.1
			c0.1-0.1,0.1-0.1,0.1-0.2c0,0,0.1-0.2,0-0.3c0-0.1-0.1-0.1-0.2-0.1C34.1,38,34,38,33.9,38.1z"/>
		<path class="st15" d="M37,35.3l0.3-0.2c0.1-0.1,0.2-0.1,0.3,0c0.1,0,0.1,0.1,0.1,0.2c0,0.1,0,0.2-0.1,0.3l-0.1,0.1
			c-0.1,0.1-0.1,0.1-0.2,0.1c0,0-0.2,0.1-0.3,0c-0.1,0-0.1-0.1-0.1-0.2C36.9,35.5,37,35.4,37,35.3z"/>
		<path class="st15" d="M35.9,37.1C35.9,37.1,35.9,37.1,35.9,37.1c0.2-0.3,0.4-0.1,0.3,0.1c-0.2,0.2-0.3,0.2-0.4,0.2
			c-0.1,0-0.1-0.1-0.1-0.1C35.8,37.2,35.8,37.2,35.9,37.1z"/>
		<path class="st5" d="M31.6,38.5c1.2,1.2,1.5,1.2,1.5,1.2c-1.1-1-1.8-2.2-1.7-3.4l-1,0.9C30.4,37.3,31.2,38.1,31.6,38.5z"/>
		<path class="st5" d="M37.9,33c1,1.3,1.1,1.7,1.1,1.7c-0.9-1.2-2-2-3.2-2.1l1-0.9C36.7,31.7,37.5,32.5,37.9,33z"/>
		
			<linearGradient id="SVGID_2_" gradientUnits="userSpaceOnUse" x1="81.364" y1="51.6726" x2="81.364" y2="47.156" gradientTransform="matrix(0.7471 -0.6648 0.6648 0.7471 -61.1001 50.4323)">
			<stop  offset="0" style="stop-color:#1B75BC"/>
			<stop  offset="1" style="stop-color:#27AAE1"/>
		</linearGradient>
		<path class="st16" d="M36.7,30.6c-2.3,0.1-5.5,0.4-5.8,0.8c-0.5,0.2-1.2,3.4-1.5,5.7c0,0.1,0,0.2,0.1,0.3l1.3,0.9
			c0.3-1.4,0.9-2.6,1.7-3.6l0.1,0.1l1-0.5l0.6-0.9L34,33.4c1.1-0.7,2.3-1.1,3.7-1.2L37,30.7C36.9,30.6,36.8,30.6,36.7,30.6z"/>
		
			<linearGradient id="SVGID_3_" gradientUnits="userSpaceOnUse" x1="76.6563" y1="50.4352" x2="77.0378" y2="50.4352" gradientTransform="matrix(0.7471 -0.6648 0.6648 0.7471 -61.1001 50.4323)">
			<stop  offset="0" style="stop-color:#D7DF23"/>
			<stop  offset="1" style="stop-color:#8DC63F"/>
		</linearGradient>
		<circle class="st17" cx="29.8" cy="37" r="0.2"/>
		
			<linearGradient id="SVGID_4_" gradientUnits="userSpaceOnUse" x1="81.3634" y1="47.0508" x2="81.3634" y2="55.8445" gradientTransform="matrix(0.7471 -0.6648 0.6648 0.7471 -61.1001 50.4323)">
			<stop  offset="0" style="stop-color:#F9ED32"/>
			<stop  offset="1" style="stop-color:#F15A29"/>
		</linearGradient>
		<path class="st18" d="M36.4,31.9c0.1-0.2,0.3-0.3,0.6-0.2c0.2,0,0.3,0,0.2-0.2c0,0,0-0.1-0.1-0.1c-0.3-0.1-0.5-0.1-0.8,0.1
			c0-0.2-0.1-0.4-0.2-0.5c0,0-0.1-0.1-0.2-0.1c-0.1,0-0.3,0-0.3,0.1c0,0,0,0.1,0,0.1c0.4,0.3,0.4,0.6,0.1,1
			c-0.3,0.1-0.5,0.1-0.8,0.2c0.1-0.3,0.3-0.3,0.6-0.3c0.1,0,0.2,0,0.2-0.1c0,0,0-0.1-0.1-0.1c-0.2-0.2-0.5-0.2-0.9,0.2
			c-0.4-0.1-0.7,0.1-0.9,0.5c-0.6-0.1-1,0.2-1.1,0.9c-0.2-0.1-0.3-0.3-0.3-0.5c-0.1-0.8-0.7-1.2-1.4-1.2l0,0c0,0,0,0,0,0
			c0,0,0,0,0,0l0,0c-0.1,0.7,0.3,1.4,1,1.5c0.2,0.1,0.4,0.2,0.5,0.4c-0.7,0-1.1,0.4-1.1,1c-0.5,0.1-0.7,0.4-0.6,0.8
			c-0.4,0.3-0.5,0.6-0.3,0.9c0,0,0.1,0.1,0.1,0.1c0.1,0,0.1-0.1,0.1-0.2c0-0.3,0.1-0.5,0.4-0.5c-0.1,0.2-0.2,0.5-0.3,0.7
			c-0.3,0.2-0.6,0.1-0.9-0.2c0,0-0.1,0-0.1,0c-0.1,0-0.2,0.1-0.1,0.3c0,0.1,0,0.1,0.1,0.2c0.1,0.2,0.3,0.3,0.5,0.3
			c-0.2,0.2-0.3,0.5-0.2,0.7c0,0,0.1,0.1,0.1,0.1c0.1,0,0.2,0,0.2-0.2c0-0.3,0.1-0.5,0.3-0.6c-0.1,0.4-0.2,0.7-0.3,1.1l0.4,0.3
			c0.4-1.4,0.9-2.6,1.7-3.5c0.5,0.1,0.9,0,1.4-0.1l0,0c0,0,0,0,0,0c0.1-0.5,0.2-0.9,0.2-1.4c0.9-0.7,2.2-1.1,3.6-1.3l-0.2-0.4
			C37.2,31.8,36.8,31.9,36.4,31.9z M34.8,32.2l0,0.1c-0.2,0.1-0.3,0.2-0.5,0.2l-0.1,0C34.4,32.3,34.6,32.2,34.8,32.2z M31.2,35.4
			c0-0.3,0.1-0.4,0.4-0.5l0,0.1c-0.1,0.1-0.2,0.3-0.3,0.4L31.2,35.4z M33.5,34.3C33.5,34.3,33.5,34.3,33.5,34.3
			c-0.4,0.3-0.9,0.3-1.4,0.2c0.2-0.4,0.5-0.5,1.1-0.2L33.5,34.3L33.5,34.3L33.5,34.3L33.5,34.3L33.5,34.3l0-0.2
			c-0.2-0.7,0-1,0.3-1.1C33.8,33.5,33.8,34,33.5,34.3z"/>
		
			<linearGradient id="SVGID_5_" gradientUnits="userSpaceOnUse" x1="85.728" y1="50.4352" x2="86.1096" y2="50.4352" gradientTransform="matrix(0.7471 -0.6648 0.6648 0.7471 -61.1001 50.4323)">
			<stop  offset="0" style="stop-color:#D7DF23"/>
			<stop  offset="1" style="stop-color:#8DC63F"/>
		</linearGradient>
		<circle class="st19" cx="36.6" cy="31" r="0.2"/>
		
			<linearGradient id="SVGID_6_" gradientUnits="userSpaceOnUse" x1="80.1554" y1="48.7435" x2="80.537" y2="48.7435" gradientTransform="matrix(0.7471 -0.6648 0.6648 0.7471 -61.1001 50.4323)">
			<stop  offset="0" style="stop-color:#D7DF23"/>
			<stop  offset="1" style="stop-color:#8DC63F"/>
		</linearGradient>
		<circle class="st20" cx="31.3" cy="33.4" r="0.2"/>
		
			<linearGradient id="SVGID_7_" gradientUnits="userSpaceOnUse" x1="82.1925" y1="48.7435" x2="82.5741" y2="48.7435" gradientTransform="matrix(0.7471 -0.6648 0.6648 0.7471 -61.1001 50.4323)">
			<stop  offset="0" style="stop-color:#D7DF23"/>
			<stop  offset="1" style="stop-color:#8DC63F"/>
		</linearGradient>
		<circle class="st21" cx="32.8" cy="32.1" r="0.2"/>
		
			<linearGradient id="SVGID_8_" gradientUnits="userSpaceOnUse" x1="81.3706" y1="51.8355" x2="81.3706" y2="50.2305" gradientTransform="matrix(0.7471 -0.6648 0.6648 0.7471 -61.1001 50.4323)">
			<stop  offset="0" style="stop-color:#D7DF23"/>
			<stop  offset="1" style="stop-color:#8DC63F"/>
		</linearGradient>
		<path class="st22" d="M33,33.7c-0.1,0.6,0.3,1,0.7,0.9c0.1,0,0.1-0.1,0.1-0.1C33.9,34.2,33.5,33.7,33,33.7z"/>
		<g>
			<g>
				<g>
					
						<ellipse transform="matrix(0.7471 -0.6648 0.6648 0.7471 -16.1446 32.0579)" class="st23" cx="34.1" cy="37.2" rx="0.3" ry="0.5"/>
				</g>
				<g>
					
						<ellipse transform="matrix(0.7471 -0.6647 0.6647 0.7471 -16.0546 31.9368)" class="st0" cx="33.9" cy="37.1" rx="0.1" ry="0.2"/>
				</g>
			</g>
			<g>
				<path class="st23" d="M33.3,36.7C33.3,36.7,33.3,36.6,33.3,36.7c0.2-0.1,0.3-0.3,0.2-0.4c-0.2-0.2-0.6,0.3-0.5,0.5
					C33.1,36.9,33.2,36.8,33.3,36.7z"/>
			</g>
			<g>
				<path class="st15" d="M33.4,37c0.1,0,0.1,0.1,0.1,0.1c0,0-0.1,0.1-0.1,0c-0.1,0-0.1-0.1-0.1-0.1C33.2,37,33.3,37,33.4,37z"/>
			</g>
			<g>
				<path class="st15" d="M33.6,37.7c0-0.1,0.1-0.1,0-0.1c0,0-0.1,0-0.1,0c0,0.1-0.1,0.1,0,0.1C33.5,37.7,33.5,37.7,33.6,37.7z"/>
			</g>
			<g>
				
					<ellipse transform="matrix(0.9138 -0.4061 0.4061 0.9138 -12.3048 16.7837)" class="st15" cx="33.4" cy="37.4" rx="0.1" ry="0.1"/>
			</g>
		</g>
		<g>
			<g>
				<g>
					
						<ellipse transform="matrix(0.7471 -0.6648 0.6648 0.7471 -14.3431 32.9959)" class="st23" cx="36.2" cy="35.3" rx="0.3" ry="0.5"/>
				</g>
				<g>
					
						<ellipse transform="matrix(0.7471 -0.6648 0.6648 0.7471 -14.2956 32.8531)" class="st0" cx="36" cy="35.2" rx="0.1" ry="0.2"/>
				</g>
			</g>
			<g>
				<path class="st23" d="M35.7,34.5C35.7,34.5,35.7,34.5,35.7,34.5c-0.2,0.2-0.3,0.3-0.4,0.2c-0.2-0.2,0.4-0.6,0.6-0.4
					C35.9,34.4,35.8,34.4,35.7,34.5z"/>
			</g>
			<g>
				<path class="st15" d="M36.1,34.7c0,0.1,0.1,0.1,0.1,0.1c0,0,0.1-0.1,0-0.1c0-0.1-0.1-0.1-0.1-0.1C36.1,34.5,36,34.6,36.1,34.7z"
					/>
			</g>
			<g>
				<path class="st15" d="M36.6,34.9c-0.1,0-0.1,0-0.1,0s0-0.1,0.1-0.1c0.1,0,0.1,0,0.1,0S36.7,34.9,36.6,34.9z"/>
			</g>
			<g>
				<path class="st15" d="M36.3,34.7c0,0.1,0,0.1,0,0.1s0.1,0,0.1-0.1c0-0.1,0-0.1,0-0.1C36.4,34.6,36.4,34.6,36.3,34.7z"/>
			</g>
		</g>
		<g>
			<path class="st0" d="M37.5,37.4c-0.1,0.1-0.2,0.1-0.3,0.1c0,0,0,0-0.1,0c0,0,0,0,0,0c0,0-0.2,0-0.4,0.2c0,0-0.1,0.1-0.1,0.1
				c0,0-0.1,0-0.2,0.2c0,0-0.1,0.1-0.2,0.3c0,0-0.1,0.3-0.2,0.3c0,0,0,0,0,0c0.1,0,0.1,0,0.2-0.1c0.2-0.1,0.4-0.2,0.4-0.2
				c0.2-0.1,0.3-0.3,0.4-0.4C37.3,37.9,37.4,37.7,37.5,37.4z"/>
			<path class="st24" d="M37.2,38.6c0.3-0.3,0.5-0.7,0.5-1c0-0.1,0-0.2,0-0.3c0,0.1-0.1,0.1-0.1,0.1c-0.1,0.1-0.1,0.2-0.2,0.3
				c-0.1,0.2-0.3,0.4-0.5,0.5c-0.2,0.2-0.4,0.3-0.6,0.4c-0.1,0-0.2,0.1-0.3,0.2c-0.1,0-0.1,0.1-0.2,0.1c0.1,0,0.2,0,0.3,0
				C36.5,39,36.9,38.9,37.2,38.6z"/>
			<path class="st24" d="M36.8,37.8c0.2-0.1,0.4-0.2,0.5-0.2c0.2-0.1,0.3-0.2,0.4-0.3c-0.2,0.1-0.4,0.1-0.6,0.1c-0.1,0-0.1,0-0.2,0
				s-0.1,0.1-0.2,0.1c-0.1,0.1-0.1,0.2-0.2,0.2c-0.1,0.1-0.2,0.1-0.2,0.1c-0.1,0-0.1,0.1-0.1,0.2c0,0.1-0.1,0.1-0.1,0.2
				c0,0.2-0.1,0.4-0.2,0.6c0.2-0.1,0.3-0.2,0.4-0.3c0.1-0.2,0.1-0.4,0.3-0.5c0.1-0.1,0.1-0.1,0.2-0.1C36.7,37.9,36.7,37.9,36.8,37.8
				z"/>
		</g>
	</g>
</g>
</svg>
