<?xml version="1.0" encoding="utf-8"?>
<!-- Generator: Adobe Illustrator 25.2.0, SVG Export Plug-In . SVG Version: 6.00 Build 0)  -->
<svg version="1.1" id="Camada_1" xmlns:v="https://vecta.io/nano" opacity="0.1"
	 xmlns="http://www.w3.org/2000/svg" xmlns:xlink="http://www.w3.org/1999/xlink" x="0px" y="0px" viewBox="0 0 193 230"
	 style="enable-background:new 0 0 193 230;" xml:space="preserve">
<style type="text/css">
	.st0{fill:#FFFFFF;}
	.st1{fill:#48BAC1;}
	.st2{fill:#0F6073;}
	.st3{fill:#DBCDF9;}
	.st4{fill:#D9852F;}
	.st5{fill:#F2A727;}
	.st6{fill:#EDD04C;}
	.st7{fill:#FFC7F4;}
	.st8{fill:#E500BA;}
	.st9{opacity:0.7;}
	.st10{fill:url(#SVGID_1_);}
	.st11{fill:#414043;}
	.st12{fill:#7FC03D;}
	.st13{fill:#F98A20;}
	.st14{fill:#55C4FF;}
	.st15{fill:#F7889C;}
	.st16{fill:#C68DBB;}
	.st17{fill:#FADC2B;}
	.st18{fill:#414143;}
	.st19{fill:#D8D0D0;}
	.st20{fill:#A7A9AC;}
	.st21{fill:#E55158;}
	.st22{fill:url(#SVGID_2_);}
	.st23{fill:url(#SVGID_3_);}
	.st24{fill:url(#SVGID_4_);}
	.st25{fill:url(#SVGID_5_);}
	.st26{fill:url(#SVGID_6_);}
	.st27{fill:url(#SVGID_7_);}
	.st28{fill:url(#SVGID_8_);}
	.st29{fill:#4D4E4E;}
	.st30{fill:#C62B2E;}
</style>
<g>
	<path class="st0" d="M219.4,82.4c2.3,2.3,2.6,5.9,0.8,8.6c-34.3,48.9-76.6,91.7-125.3,126.4l-3.8,2.7c-2.8,2-6.7,1.7-9.1-0.8
		L64.7,202c10.4-10.7,10.1-27.8-0.6-38.2c-10.5-10.2-27.1-10.2-37.6,0L10.6,148c-3-3-2.6-8,0.9-10.5l3.8-2.7
		C62.8,101,104.1,59.2,137.5,11.5c2.1-3,6.2-3.7,9.2-1.6c0.3,0.2,0.6,0.5,0.9,0.7l16.2,16.2c-10.4,10.7-10,27.8,0.7,38.2
		c10.5,10.1,27,10.1,37.5,0L219.4,82.4L219.4,82.4z"/>
	<path class="st1" d="M227.1,87.2l-61.8,78.3l-80,60.5l-15.4-15.5l-5.5-6.7l5.5-8l1.9-8l-1.1-8.6l-3.2-8l-5.3-6.4l-6.4-4.3l-7-2.1
		h-8.6l-9.1,3.2l-5.3,4.8L13,150.8l20.9-3.1c64.8-9.7,126-35.8,177.8-76L227.1,87.2L227.1,87.2z"/>
	<g>
		<path class="st2" d="M56.9,202.8c0-2.3,0.9-4.5,2.5-6.1l0,0c7-7.4,6.8-19-0.6-26.1c-7.1-6.8-18.3-6.8-25.5,0l0,0
			c-3.3,3.4-8.8,3.4-12.1,0l0,0L4.5,154.1c-6-6.1-6-15.9,0-21.9c0.6-0.6,1.2-1.1,1.9-1.6l3.8-2.7l5,7l-3.8,2.7
			C8,140,7.6,145,10.6,148l16.7,16.7l0,0c10.6-10.5,27.7-10.5,38.2,0s10.5,27.6,0,38.1l-0.1,0.1L82,219.4c2.4,2.4,6.3,2.8,9.1,0.8
			l3.8-2.7c48.6-34.7,91-77.4,125.3-126.4c1.9-2.7,1.6-6.3-0.8-8.6L202,65l-0.4,0.4c-10.6,10.5-27.7,10.4-38.2-0.3
			c-10.4-10.5-10.4-27.4,0-37.9l0.4-0.4l-16.3-16.3c-2.6-2.6-6.7-2.6-9.3,0c-0.3,0.3-0.5,0.6-0.7,0.9
			c-33.4,47.8-74.8,89.5-122.2,123.3l-5-7C57,94.5,97.6,53.5,130.5,6.5c4.8-6.8,14.2-8.5,21.1-3.7c0.7,0.5,1.4,1.1,2,1.7l16.3,16.3
			c3.3,3.3,3.3,8.8,0,12.1c0,0,0,0-0.1,0.1l-0.1,0.1c-7,7.4-6.8,19,0.6,26.1c7.1,6.8,18.3,6.8,25.5,0l0.1-0.1
			c3.3-3.4,8.7-3.4,12.1-0.1c0,0,0,0,0.1,0.1l17.4,17.4c5.2,5.2,6,13.5,1.7,19.6c-34.8,49.7-77.9,93.2-127.3,128.4l-3.8,2.7
			c-6.2,4.4-14.7,3.7-20.1-1.7L59.5,209C57.8,207.3,56.9,205.1,56.9,202.8L56.9,202.8z"/>
		<g>
			<path id="A" class="st2" d="M115,40.5l3.8,3.8c1.7,1.7,1.7,4.4,0,6.1c-1.7,1.7-4.4,1.7-6.1,0l-3.8-3.8c-1.7-1.7-1.7-4.4,0-6.1
				S113.3,38.8,115,40.5z"/>
		</g>
		<g>
			<path id="A_1_" class="st2" d="M130.9,56.4l3.8,3.8c1.7,1.7,1.7,4.4,0,6.1c-1.7,1.7-4.4,1.7-6.1,0l-3.8-3.8
				c-1.7-1.7-1.7-4.4,0-6.1C126.5,54.7,129.2,54.7,130.9,56.4z"/>
		</g>
		<g>
			<path id="B" class="st2" d="M150.6,82.1c-1.7,1.7-4.4,1.7-6.1,0l0,0l-4.5-4.5c-1.7-1.7-1.7-4.4,0-6.1s4.4-1.7,6.1,0l4.5,4.5
				C152.3,77.7,152.3,80.4,150.6,82.1L150.6,82.1z"/>
		</g>
		<g>
			<path id="B_1_" class="st2" d="M166.5,98c-1.7,1.7-4.4,1.7-6.1,0l0,0l-4.5-4.5c-1.7-1.7-1.7-4.4,0-6.1s4.4-1.7,6.1,0l4.5,4.5
				C168.1,93.6,168.1,96.3,166.5,98L166.5,98z"/>
		</g>
		<path class="st2" d="M177.8,103.3l3.8,3.8c1.7,1.7,1.7,4.4,0,6.1s-4.4,1.7-6.1,0l-3.8-3.8c-1.7-1.7-1.7-4.4,0-6.1
			C173.4,101.6,176.1,101.6,177.8,103.3L177.8,103.3z"/>
		<g>
			<path id="A_2_" class="st2" d="M193.7,119.2l3.8,3.8c1.7,1.7,1.7,4.4,0,6.1c-1.7,1.7-4.4,1.7-6.1,0l-3.8-3.8
				c-1.7-1.7-1.7-4.4,0-6.1C189.3,117.5,192,117.5,193.7,119.2z"/>
		</g>
	</g>
	<g>
		
			<ellipse transform="matrix(0.7071 -0.7071 0.7071 0.7071 -71.7712 117.6044)" class="st3" cx="106.1" cy="145.4" rx="5.1" ry="7.5"/>
		
			<ellipse transform="matrix(0.7071 -0.7071 0.7071 0.7071 -52.5714 125.5555)" class="st3" cx="125.3" cy="126.2" rx="5.1" ry="7.5"/>
	</g>
	<g>
		<path class="st2" d="M77.9,98.8c-17.2,17.2-17.2,45.2,0,62.5c17.2,17.2,45.2,17.2,62.5,0s17.2-45.2,0-62.5
			C123.1,81.5,95.1,81.5,77.9,98.8z M142.8,115.7c-0.3,0.3-12.8,12.1-25,28.8c0,0-12.1,7-23.5,18.8c-5.2-1.8-10.1-4.8-14.3-9
			c-14.8-14.8-14.8-38.8,0-53.7s38.8-14.8,53.6,0C138,105,141,110.2,142.8,115.7L142.8,115.7z"/>
		<path class="st1" d="M78.8,99.6c-16.2,16.2-16.2,42.5,0,58.7s42.5,16.2,58.7,0s16.2-42.5,0-58.7S95,83.4,78.8,99.6z M142.8,115.7
			c-0.3,0.3-12.8,12.1-25,28.8c0,0-12.1,7-23.5,18.8c-5.2-1.8-10.1-4.8-14.3-9c-14.8-14.8-14.8-38.8,0-53.7s38.8-14.8,53.6,0
			C138,105,141,110.2,142.8,115.7L142.8,115.7z"/>
		<path class="st2" d="M79.1,99.9c-15.9,15.9-15.9,41.6,0,57.4c15.9,15.9,41.6,15.9,57.4,0c15.9-15.9,15.9-41.6,0-57.4
			C120.6,84,94.9,84,79.1,99.9z M142.8,115.7c-0.3,0.3-12.8,12.1-25,28.8c0,0-12.1,7-23.5,18.8c-5.2-1.8-10.1-4.8-14.3-9
			c-14.8-14.8-14.8-38.8,0-53.7c14.8-14.8,38.8-14.8,53.6,0C138,105,141,110.2,142.8,115.7L142.8,115.7z"/>
		<path class="st0" d="M133.6,100.7c4.4,4.4,7.4,9.5,9.2,15l0,0c-0.3,0.3-12.8,12.1-25,28.8c0,0-12.1,7-23.5,18.8
			c-5.2-1.8-10.1-4.8-14.3-9c-14.8-14.8-14.8-38.8,0-53.7C94.8,85.9,118.8,85.9,133.6,100.7z"/>
		<path class="st1" d="M116.5,147.1c-11.7,9.3-17.4,15.9-18.6,17.3c-0.8-0.2-1.6-0.4-2.4-0.6C105,154,115.8,147.5,116.5,147.1z"/>
		<path class="st1" d="M114.4,150.8c-6.7,7.1-10.9,12.8-12,14.3c-0.6-0.1-1.3-0.2-1.9-0.3C109.2,154.9,114.4,150.8,114.4,150.8z"/>
		<path class="st1" d="M110,158.4c-2.2,3.2-3.7,5.8-4.4,7c-0.3,0-0.6,0-0.9,0C106.1,163.1,110,158.4,110,158.4z"/>
		<path class="st1" d="M143.6,118.2c-21.3,24.2-28.9,41.9-30.7,46.7c-1.2,0.2-2.5,0.3-3.8,0.4C121.4,137.8,143.6,118.2,143.6,118.2z
			"/>
		<path class="st1" d="M144.3,121.9C144.3,122,144.3,122,144.3,121.9c-14.5,19-22,36.7-23.7,40.9l0,0c-1.2,0.5-2.4,0.9-3.7,1.2
			C128.9,136.6,142.9,123.3,144.3,121.9z"/>
		<path class="st1" d="M144.4,121.8c0,0-0.1,0.1-0.1,0.2l0,0C144.4,121.9,144.4,121.8,144.4,121.8z"/>
		<path class="st1" d="M144.7,126.6c-11.3,19.2-14.9,31-14.9,31c-1.2,0.9-2.4,1.7-3.6,2.4C134.2,138.4,144.5,126.9,144.7,126.6z"/>
		<path class="st1" d="M144.1,134.3c-2.6,5-5.2,13.2-5.4,13.7c-1.1,1.7-2.4,3.4-3.8,5C139.4,139.2,144.1,134.3,144.1,134.3z"/>
		<path class="st2" d="M118.8,123.3c0,0,3.6,6.5-2.3,12.2l4.6,4.6c-0.3,0.4-0.6,0.7-0.8,1.1l-3.1-3.1c0,0-4.4,5.2-12,2.1
			c0,0,4-5,10.8-3.3l-7.4-7.4l1-1l6.5,6.5C116,135,113.1,128.7,118.8,123.3z"/>
		<path class="st2" d="M103.9,143.8c0,0,2.3,4.1-1.4,7.7l2.3,2.3c-0.2,0.2-0.4,0.4-0.7,0.5l-1.2-1.2c0,0-2.8,3.3-7.5,1.3
			c0,0,2.5-3.2,6.8-2.1l-4.6-4.6l0.6-0.6l4.1,4.1C102.1,151.1,100.3,147.2,103.9,143.8z"/>
		<path class="st2" d="M133.1,114.7c0,0,2.3,4.1-1.4,7.7l2.4,2.4c-0.2,0.2-0.4,0.4-0.6,0.6l-1.5-1.5c0,0-2.8,3.3-7.5,1.3
			c0,0,2.5-3.2,6.8-2.1l-4.6-4.6l0.6-0.6l4.1,4.1C131.3,122,129.5,118.1,133.1,114.7z"/>
		<g>
			<ellipse class="st4" cx="90.9" cy="140.5" rx="11.4" ry="11.4"/>
			<ellipse class="st5" cx="90.9" cy="140.5" rx="9.6" ry="9.6"/>
			<ellipse class="st6" cx="90.9" cy="140.5" rx="8.3" ry="8.3"/>
			<g id="Group_1_" transform="translate(7.000000, 7.000000)">
				<polygon id="Fill-1_1_" class="st2" points="81.3,129 81.9,129.6 83.5,128 85.4,129.8 86,129.2 83.5,126.7 				"/>
				<polygon id="Fill-2_1_" class="st2" points="81,137.4 82.9,139.3 83.2,139.6 83.5,139.9 85.8,137.7 85.2,137 83.6,138.6 
					81.7,136.8 				"/>
				<g id="Group-5_2_">
					<g id="Clip-4_2_">
					</g>
					<path id="Fill-3_2_" class="st2" d="M78.3,133.1l2-2c0.1-0.1,0.4-0.1,0.5,0l0.3,0.3c0.1,0.1,0.1,0.3,0,0.5l-2,2L78.3,133.1z
						 M81.2,136l1.3-1.3l-0.6-0.6l-1.3,1.3l-0.9-0.9l2-2c0.1-0.1,0.3-0.1,0.4,0l0.3,0.3l0.8-0.8l-0.1-0.1c-0.3-0.3-0.8-0.3-1.2,0
						l0,0c0,0,0.6-0.7,0.1-1.2c0,0,0-0.1-0.1-0.1c-0.2-0.2-0.9-1.1-1.5-0.6l-2.5,2.5l-0.8,0.8l3.5,3.5L81.2,136L81.2,136z"/>
				</g>
				<path id="Fill-6_1_" class="st2" d="M88.2,133.1l0.2,0.2c0.1,0.1,0.1,0.3,0,0.4l-0.8,0.8l0,0l-1.2,1.2l-0.8-0.9l2-2
					c0.1-0.1,0.3-0.1,0.4,0L88.2,133.1L88.2,133.1z M84.2,133.5l2-2c0.1-0.1,0.4-0.1,0.5,0l0.3,0.3c0.1,0.1,0.1,0.3,0,0.5l-2,2
					L84.2,133.5z M86.2,130.3l-2.5,2.5l-0.8,0.8l3.5,3.5l0.8-0.8l1.3-1.3l0,0c0.2-0.2,1-1,1.2-1.3c0.1-0.1,0.3-0.7-0.1-1.1l-0.4-0.4
					l0,0l-0.1-0.1c-0.3-0.3-0.9-0.3-1.2,0l0,0c0,0,0.6-0.7,0.1-1.2c0,0,0-0.1-0.1-0.1C87.5,130.7,86.8,129.8,86.2,130.3L86.2,130.3z
					"/>
			</g>
		</g>
		<g>
			<ellipse class="st4" cx="120" cy="111.4" rx="11.4" ry="11.4"/>
			<ellipse class="st5" cx="120" cy="111.4" rx="9.6" ry="9.6"/>
			<ellipse class="st6" cx="120" cy="111.4" rx="8.3" ry="8.3"/>
			<g id="Group_2_" transform="translate(7.000000, 7.000000)">
				<polygon id="Fill-1_2_" class="st2" points="110.4,99.8 111,100.4 112.6,98.8 114.5,100.7 115.2,100 112.7,97.6 				"/>
				<polygon id="Fill-2_2_" class="st2" points="110.2,108.3 112.1,110.2 112.4,110.5 112.7,110.8 114.9,108.5 114.3,107.9 
					112.7,109.5 110.8,107.6 				"/>
				<g id="Group-5_3_">
					<g id="Clip-4_3_">
					</g>
					<path id="Fill-3_3_" class="st2" d="M107.5,104l2-2c0.1-0.1,0.4-0.1,0.5,0l0.3,0.3c0.1,0.1,0.1,0.3,0,0.5l-2,2L107.5,104z
						 M110.4,106.9l1.3-1.3L111,105l-1.3,1.3l-0.9-0.9l2-2c0.1-0.1,0.3-0.1,0.4,0l0.3,0.3l0.8-0.8l-0.1-0.1c-0.3-0.3-0.8-0.3-1.2,0
						l0,0c0,0,0.6-0.7,0.1-1.2c0,0,0-0.1-0.1-0.1c-0.2-0.2-0.9-1.1-1.5-0.6l-2.5,2.5l-0.8,0.8l3.5,3.5L110.4,106.9L110.4,106.9z"/>
				</g>
				<path id="Fill-6_2_" class="st2" d="M117.3,103.9l0.2,0.2c0.1,0.1,0.1,0.3,0,0.4l-0.8,0.8l0,0l-1.2,1.2l-0.8-0.9l2-2
					c0.1-0.1,0.3-0.1,0.4,0L117.3,103.9L117.3,103.9z M113.4,104.3l2-2c0.1-0.1,0.4-0.1,0.5,0l0.3,0.3c0.1,0.1,0.1,0.3,0,0.5l-2,2
					L113.4,104.3z M115.3,101.2l-2.5,2.5l-0.8,0.8l3.5,3.5l0.8-0.8l1.3-1.3l0,0c0.2-0.2,1-1,1.2-1.3c0.1-0.1,0.3-0.7-0.1-1.1
					l-0.4-0.4l0,0l-0.1-0.1c-0.3-0.3-0.9-0.3-1.2,0l0,0c0,0,0.6-0.7,0.1-1.2c0,0,0-0.1-0.1-0.1C116.7,101.6,116,100.6,115.3,101.2
					L115.3,101.2z"/>
			</g>
		</g>
		<g>
			<ellipse class="st4" cx="96.3" cy="116.3" rx="18.1" ry="18.1"/>
			<ellipse class="st5" cx="96.3" cy="116.3" rx="15.3" ry="15.3"/>
			<ellipse class="st6" cx="96.3" cy="116.3" rx="13.1" ry="13.1"/>
			<g id="Group" transform="translate(7.000000, 7.000000)">
				<polygon id="Fill-1" class="st2" points="85.2,102.1 86.2,103.1 88.7,100.5 91.7,103.4 92.7,102.4 88.8,98.5 				"/>
				<polygon id="Fill-2" class="st2" points="84.8,115.5 87.8,118.5 88.3,118.9 88.8,119.4 92.4,115.8 91.4,114.9 88.8,117.4 
					85.9,114.5 				"/>
				<g id="Group-5_1_">
					<g id="Clip-4_1_">
					</g>
					<path id="Fill-3_1_" class="st2" d="M80.5,108.7l3.1-3.1c0.2-0.2,0.6-0.2,0.8,0l0.5,0.5c0.2,0.2,0.2,0.5,0,0.7l-3.2,3.2
						L80.5,108.7z M85.1,113.2l2-2l-1-1l-2,2l-1.4-1.4l3.1-3.1c0.2-0.2,0.4-0.2,0.6,0l0.4,0.4l1.3-1.3l-0.2-0.2
						c-0.5-0.5-1.3-0.5-1.9,0l-0.1,0.1c0,0,0.9-1.1,0.1-1.9l-0.1-0.1c-0.3-0.3-1.4-1.8-2.4-0.9l-4,4l-1.3,1.3l5.6,5.6L85.1,113.2
						L85.1,113.2z"/>
				</g>
				<path id="Fill-6" class="st2" d="M96.2,108.6l0.4,0.4c0.2,0.2,0.2,0.4,0,0.6l-1.3,1.3l0,0l-1.9,1.9l-1.3-1.4l3.1-3.1
					c0.2-0.2,0.4-0.2,0.6,0L96.2,108.6L96.2,108.6z M89.9,109.2l3.1-3.1c0.2-0.2,0.6-0.2,0.8,0l0.5,0.5c0.2,0.2,0.2,0.5,0,0.7
					l-3.2,3.2L89.9,109.2z M93,104.2l-4,4l-1.3,1.3l5.5,5.5l1.3-1.3l2-2l0,0c0.4-0.4,1.7-1.6,1.9-2c0.1-0.2,0.5-1.1-0.1-1.8
					l-0.7-0.7l0,0l-0.2-0.2c-0.5-0.5-1.4-0.5-1.9,0l-0.1,0.1c0,0,0.9-1.1,0.1-1.9l-0.1-0.1C95.1,104.8,94,103.4,93,104.2L93,104.2z"
					/>
			</g>
		</g>
	</g>
</g>
<path class="st0" d="M220.7,82.6c2.2,2.2,2.6,6.2,0.7,8.8c-34.7,49.7-77.8,93.2-127.1,128.2l-4,2.9c-2.9,2.2-6.9,1.8-9.1-0.7
	l-17.5-17.5c10.6-11,10.2-28.1-0.7-38.7c-10.6-10.2-27.4-10.2-38.4,0L8.4,149.4c-2.9-2.9-2.6-8,0.7-10.6l4-2.9
	c48.2-34.3,90.2-76.7,124.2-125.3c2.2-2.9,6.2-3.7,9.1-1.5c0.7,0,1.1,0.4,1.1,0.4l16.4,16.4c-10.6,11-10.2,28.1,0.7,38.7
	c10.6,10.2,27.4,10.2,38,0L220.7,82.6L220.7,82.6z"/>
<path class="st7" d="M228.7,87.7L165.9,167l-81.5,61.7L68.7,213l-5.5-6.9l5.5-8l1.8-8l-1.1-8.8l-3.3-8l-5.5-6.6l-6.6-4.4l-6.6-2.6
	h-8.8l-9.1,3.3l-5.5,4.7L11,152l21.2-3.3c65.8-9.9,128.2-36.5,180.9-77.1L228.7,87.7L228.7,87.7z"/>
<g>
	<path class="st8" d="M55.5,205c0-2.2,1.1-4.4,2.6-6.2l0,0c7.3-7.3,6.9-19.4-0.7-26.7c-7.3-6.9-18.6-6.9-25.9,0l0,0
		c-3.3,3.3-8.8,3.3-12.4,0l0,0L2.2,155.3c-6.2-6.2-6.2-16.1,0-22.3c0.7-0.7,1.1-1.1,1.8-1.8l4-2.9l5.1,6.9l-4,2.9
		c-3.7,2.6-4,7.7-0.7,10.6l16.8,16.8l0,0c10.6-10.6,28.1-10.6,38.7,0c10.6,10.6,10.6,28.1,0,38.7l0,0L80.8,221
		c2.6,2.6,6.6,2.9,9.1,0.7l4-2.9c49.3-35.1,92.4-78.6,127.1-128.2c1.8-2.6,1.5-6.6-0.7-8.8l-17.5-17.5l-0.4,0.4
		c-11,10.6-28.1,10.6-38.7-0.4c-10.6-10.6-10.6-27.8,0-38.4l0.4-0.4L147.6,9.5c-2.6-2.6-6.9-2.6-9.5,0c-0.4,0.4-0.4,0.7-0.7,0.7
		c-33.6,49-75.6,91.3-123.9,125.7L8.4,129c47.5-34,88.8-75.6,122-123.1c4.7-6.9,14.6-8.8,21.6-3.7c0.7,0.4,1.5,1.1,2.2,1.8
		l16.4,16.4c3.3,3.3,3.3,8.8,0,12.4l0,0l0,0c-7.3,7.3-6.9,19.4,0.7,26.7c7.3,6.9,18.6,6.9,25.9,0l0,0c3.3-3.3,8.8-3.7,12.4,0l0,0
		l17.5,17.5c5.5,5.5,6.2,13.9,1.8,19.7c-35.4,50.4-79.3,94.6-129.3,130.4l-4,2.9c-6.2,4.4-15,3.7-20.5-1.8l-16.8-16.8
		C56.6,209.7,55.5,207.2,55.5,205L55.5,205z"/>
	<g>
		<path id="A_5_" class="st8" d="M114.7,40.2l4,4c1.8,1.8,1.8,4.4,0,6.2c-1.8,1.8-4.4,1.8-6.2,0l-4-4c-1.8-1.8-1.8-4.4,0-6.2
			C110.3,38.4,112.9,38.4,114.7,40.2z"/>
	</g>
	<g>
		<path id="A_4_" class="st8" d="M130.8,56.3l4,4c1.8,1.8,1.8,4.4,0,6.2c-1.8,1.8-4.4,1.8-6.2,0l-4-4c-1.8-1.8-1.8-4.4,0-6.2
			C126.4,54.4,129,54.4,130.8,56.3z"/>
	</g>
	<g>
		<path id="B_3_" class="st8" d="M150.9,82.2c-1.8,1.8-4.4,1.8-6.2,0l0,0l-4.7-4.7c-1.8-1.8-1.8-4.4,0-6.2c1.8-1.8,4.4-1.8,6.2,0
			l4.7,4.7C152.4,77.8,152.4,80.7,150.9,82.2L150.9,82.2z"/>
	</g>
	<g>
		<path id="B_2_" class="st8" d="M167,98.3c-1.8,1.8-4.4,1.8-6.2,0l0,0l-4.4-4.4c-1.8-1.8-1.8-4.4,0-6.2c1.8-1.8,4.4-1.8,6.2,0
			l4.7,4.7C168.8,93.9,168.8,96.8,167,98.3L167,98.3z"/>
	</g>
	<path class="st8" d="M178.7,103.8l4,4c1.8,1.8,1.8,4.4,0,6.2c-1.8,1.8-4.4,1.8-6.2,0l-4-4c-1.8-1.8-1.8-4.4,0-6.2
		C173.9,102.3,176.8,102.3,178.7,103.8L178.7,103.8z"/>
	<g>
		<path id="A_3_" class="st8" d="M194.7,119.8l4,4c1.8,1.8,1.8,4.4,0,6.2c-1.8,1.8-4.4,1.8-6.2,0l-4-4c-1.8-1.8-1.8-4.4,0-6.2
			C190.4,118.4,192.9,118.4,194.7,119.8z"/>
	</g>
</g>
<g>
	<image style="overflow:visible;" width="85" height="85" xlink:href="5805B22.png"  transform="matrix(1 0 0 1 74 77)">
	</image>
	
		<image style="overflow:visible;opacity:0.4;" width="85" height="85" xlink:href="5805B26.png"  transform="matrix(1 0 0 1 74 77)">
	</image>
	<g class="st9">
		
			<linearGradient id="SVGID_1_" gradientUnits="userSpaceOnUse" x1="-92.297" y1="-20.1165" x2="-78.5373" y2="-20.1165" gradientTransform="matrix(-0.2226 0.6651 -0.9544 -0.3624 96.2922 200.7209)">
			<stop  offset="0" style="stop-color:#FFFFFF;stop-opacity:0"/>
			<stop  offset="0.5484" style="stop-color:#FFFFFF"/>
			<stop  offset="1" style="stop-color:#FFFFFF;stop-opacity:0"/>
		</linearGradient>
		<path class="st10" d="M128.8,153.5c3.1-0.9,7.9-3.5,10.3-5.7l1.2,0.8c-2.4,2.2-7.4,5-10.7,5.9L128.8,153.5z"/>
	</g>
	<image style="overflow:visible;" width="53" height="23" xlink:href="5805B21.png"  transform="matrix(1 0 0 1 90 82)">
	</image>
	<g>
		<g>
			<path class="st11" d="M138.2,123.8c4-1.7,8.8,4.4,4.5,7.3c3.3,2.4,0.4,7.9-3.8,7.9C138.7,139,138.2,123.8,138.2,123.8z"/>
		</g>
		<g>
			<path class="st11" d="M117.1,142.7c-2.2,3.7,3.3,9.2,6.7,5.3c2,3.5,7.8,1.3,8.3-2.8C132.1,144.9,117.1,142.7,117.1,142.7z"/>
		</g>
		<g>
			<g>
				
					<rect x="96.7" y="121.2" transform="matrix(0.1241 -0.9923 0.9923 0.1241 -45.6475 211.1808)" class="st12" width="0.3" height="20.5"/>
			</g>
			<g>
				<g>
					<path class="st12" d="M104.8,134.1c0,0.4-0.2,0.7-0.6,0.9c-0.3,0.2-0.6,0.1-0.8-0.1c-0.3-0.3-0.4-0.7-0.2-1.2
						c0.1-0.4,0.4-0.8,0.9-1.3l0.1-0.1l0.1,0.2c0.3,0.6,0.5,1.1,0.5,1.5C104.8,133.9,104.8,134,104.8,134.1z M103.4,134
						c0,0.3,0.1,0.5,0.2,0.7c0.1,0.1,0.3,0.2,0.5,0.1c0.6-0.4,0.6-1,0.1-2C103.6,133.2,103.4,133.7,103.4,134z"/>
				</g>
				<g>
					<path class="st12" d="M105.2,130.9c0,0.1,0,0.1,0,0.2c-0.1,0.4-0.4,0.8-0.8,1.3l-0.1,0.1l-0.1-0.2c-0.4-0.6-0.5-1.1-0.6-1.5
						c0-0.5,0.1-0.9,0.5-1.1c0.3-0.2,0.6-0.1,0.8,0.1C105.1,130.2,105.3,130.5,105.2,130.9z M104.3,132.1c0.7-0.9,0.9-1.5,0.4-2
						c-0.1-0.1-0.3-0.2-0.5-0.1C103.9,130.2,103.5,130.7,104.3,132.1z"/>
				</g>
			</g>
			<g>
				<g>
					<path class="st12" d="M102.7,133.8c0,0.4-0.2,0.7-0.6,0.9c-0.3,0.2-0.6,0.1-0.8-0.1c-0.3-0.3-0.4-0.7-0.2-1.2
						c0.1-0.4,0.4-0.8,0.9-1.3l0.1-0.1l0.1,0.2c0.3,0.6,0.5,1.1,0.5,1.5C102.7,133.6,102.7,133.7,102.7,133.8z M101.3,133.7
						c0,0.3,0.1,0.5,0.2,0.7c0.1,0.1,0.3,0.2,0.5,0.1c0.6-0.4,0.6-1,0.1-2C101.6,133,101.3,133.4,101.3,133.7z"/>
				</g>
				<g>
					<path class="st12" d="M103.1,130.6c0,0.1,0,0.1,0,0.2c-0.1,0.4-0.4,0.8-0.8,1.3l-0.1,0.1l-0.1-0.2c-0.4-0.6-0.5-1.1-0.6-1.5
						c0-0.5,0.1-0.9,0.5-1.1c0.3-0.2,0.6-0.1,0.8,0.1C103.1,129.9,103.2,130.3,103.1,130.6z M102.2,131.8c0.7-0.9,0.9-1.5,0.4-2
						c-0.1-0.1-0.3-0.2-0.5-0.1C101.8,130,101.4,130.4,102.2,131.8z"/>
				</g>
			</g>
			<g>
				<g>
					<path class="st12" d="M100.6,133.5c0,0.4-0.2,0.7-0.6,0.9c-0.3,0.2-0.6,0.1-0.8-0.1c-0.3-0.3-0.4-0.7-0.2-1.2
						c0.1-0.4,0.4-0.8,0.9-1.3l0.1-0.1l0.1,0.2c0.3,0.6,0.5,1.1,0.5,1.5C100.6,133.4,100.6,133.5,100.6,133.5z M99.2,133.5
						c0,0.3,0.1,0.5,0.2,0.7c0.1,0.1,0.3,0.2,0.5,0.1c0.6-0.4,0.6-1,0.1-2C99.5,132.7,99.3,133.1,99.2,133.5z"/>
				</g>
				<g>
					<path class="st12" d="M101,130.4c0,0.1,0,0.1,0,0.2c-0.1,0.4-0.4,0.8-0.8,1.3L100,132l-0.1-0.2c-0.4-0.6-0.5-1.1-0.6-1.5
						c0-0.5,0.1-0.9,0.5-1.1c0.3-0.2,0.6-0.1,0.8,0.1C101,129.7,101.1,130,101,130.4z M100.1,131.6c0.7-0.9,0.9-1.5,0.4-2
						c-0.1-0.1-0.3-0.2-0.5-0.1C99.7,129.7,99.3,130.2,100.1,131.6z"/>
				</g>
			</g>
			<g>
				<g>
					<path class="st12" d="M98.5,133.3c0,0.4-0.2,0.7-0.6,0.9c-0.3,0.2-0.6,0.1-0.8-0.1c-0.3-0.3-0.4-0.7-0.2-1.2
						c0.1-0.4,0.4-0.8,0.9-1.3l0.1-0.1l0.1,0.2c0.3,0.6,0.5,1.1,0.5,1.5C98.6,133.1,98.6,133.2,98.5,133.3z M97.1,133.2
						c0,0.3,0.1,0.5,0.2,0.7c0.1,0.1,0.3,0.2,0.5,0.1c0.6-0.4,0.6-1,0.1-2C97.4,132.5,97.2,132.9,97.1,133.2z"/>
				</g>
				<g>
					<path class="st12" d="M98.9,130.1c0,0.1,0,0.1,0,0.2c-0.1,0.4-0.4,0.8-0.8,1.3l-0.1,0.1l-0.1-0.2c-0.4-0.6-0.5-1.1-0.6-1.5
						c0-0.5,0.1-0.9,0.5-1.1c0.3-0.2,0.6-0.1,0.8,0.1C98.9,129.4,99,129.7,98.9,130.1z M98,131.3c0.7-0.9,0.9-1.5,0.4-2
						c-0.1-0.1-0.3-0.2-0.5-0.1C97.6,129.5,97.2,129.9,98,131.3z"/>
				</g>
			</g>
			<g>
				<g>
					<path class="st12" d="M96.5,133c0,0.4-0.2,0.7-0.6,0.9c-0.3,0.2-0.6,0.1-0.8-0.1c-0.3-0.3-0.4-0.7-0.2-1.2
						c0.1-0.4,0.4-0.8,0.9-1.3l0.1-0.1l0.1,0.2c0.3,0.6,0.5,1.1,0.5,1.5C96.5,132.9,96.5,132.9,96.5,133z M95,132.9
						c0,0.3,0.1,0.5,0.2,0.7c0.1,0.1,0.3,0.2,0.5,0.1c0.6-0.4,0.6-1,0.1-2C95.3,132.2,95.1,132.6,95,132.9z"/>
				</g>
				<g>
					<path class="st12" d="M96.8,129.9c0,0.1,0,0.1,0,0.2c-0.1,0.4-0.4,0.8-0.8,1.3l-0.1,0.1l-0.1-0.2c-0.4-0.6-0.5-1.1-0.6-1.5
						c0-0.5,0.1-0.9,0.5-1.1c0.3-0.2,0.6-0.1,0.8,0.1C96.8,129.1,96.9,129.5,96.8,129.9z M95.9,131.1c0.7-0.9,0.9-1.5,0.4-2
						c-0.1-0.1-0.3-0.2-0.5-0.1C95.5,129.2,95.1,129.7,95.9,131.1z"/>
				</g>
			</g>
			<g>
				<g>
					<path class="st12" d="M94.4,132.7c0,0.4-0.2,0.7-0.6,0.9c-0.3,0.2-0.6,0.1-0.8-0.1c-0.3-0.3-0.4-0.7-0.2-1.2
						c0.1-0.4,0.4-0.8,0.9-1.3l0.1-0.1l0.1,0.2c0.3,0.6,0.5,1.1,0.5,1.5C94.4,132.6,94.4,132.7,94.4,132.7z M92.9,132.7
						c0,0.3,0.1,0.5,0.2,0.7c0.1,0.1,0.3,0.2,0.5,0.1c0.6-0.4,0.6-1,0.1-2C93.2,131.9,93,132.4,92.9,132.7z"/>
				</g>
				<g>
					<path class="st12" d="M94.8,129.6c0,0.1,0,0.1,0,0.2c-0.1,0.4-0.4,0.8-0.8,1.3l-0.1,0.1l-0.1-0.2c-0.4-0.6-0.5-1.1-0.6-1.5
						c0-0.5,0.1-0.9,0.5-1.1c0.3-0.2,0.6-0.1,0.8,0.1C94.7,128.9,94.8,129.2,94.8,129.6z M93.8,130.8c0.7-0.9,0.9-1.5,0.4-2
						c-0.1-0.1-0.3-0.2-0.5-0.1C93.4,128.9,93,129.4,93.8,130.8z"/>
				</g>
			</g>
			<g>
				<g>
					<path class="st12" d="M92.3,132.5c0,0.4-0.2,0.7-0.6,0.9c-0.3,0.2-0.6,0.1-0.8-0.1c-0.3-0.3-0.4-0.7-0.2-1.2
						c0.1-0.4,0.4-0.8,0.9-1.3l0.1-0.1l0.1,0.2c0.3,0.6,0.5,1.1,0.5,1.5C92.3,132.3,92.3,132.4,92.3,132.5z M90.9,132.4
						c0,0.3,0.1,0.5,0.2,0.7c0.1,0.1,0.3,0.2,0.5,0.1c0.6-0.4,0.6-1,0.1-2C91.1,131.7,90.9,132.1,90.9,132.4z"/>
				</g>
				<g>
					<path class="st12" d="M92.7,129.3c0,0.1,0,0.1,0,0.2c-0.1,0.4-0.4,0.8-0.8,1.3l-0.1,0.1l-0.1-0.2c-0.4-0.6-0.5-1.1-0.6-1.5
						c0-0.5,0.1-0.9,0.5-1.1c0.3-0.2,0.6-0.1,0.8,0.1C92.6,128.6,92.7,129,92.7,129.3z M91.7,130.5c0.7-0.9,0.9-1.5,0.4-2
						c-0.1-0.1-0.3-0.2-0.5-0.1C91.3,128.7,91,129.1,91.7,130.5z"/>
				</g>
			</g>
			<g>
				<g>
					<path class="st12" d="M90.2,132.2c0,0.4-0.2,0.7-0.6,0.9c-0.3,0.2-0.6,0.1-0.8-0.1c-0.3-0.3-0.4-0.7-0.2-1.2
						c0.1-0.4,0.4-0.8,0.9-1.3l0.1-0.1l0.1,0.2c0.3,0.6,0.5,1.1,0.5,1.5C90.2,132.1,90.2,132.2,90.2,132.2z M88.8,132.1
						c0,0.3,0.1,0.5,0.2,0.7c0.1,0.1,0.3,0.2,0.5,0.1c0.6-0.4,0.6-1,0.1-2C89,131.4,88.8,131.8,88.8,132.1z"/>
				</g>
				<g>
					<path class="st12" d="M90.6,129.1c0,0.1,0,0.1,0,0.2c-0.1,0.4-0.4,0.8-0.8,1.3l-0.1,0.1l-0.1-0.2c-0.4-0.6-0.5-1.1-0.6-1.5
						c0-0.5,0.1-0.9,0.5-1.1c0.3-0.2,0.6-0.1,0.8,0.1C90.5,128.4,90.6,128.7,90.6,129.1z M89.6,130.3c0.7-0.9,0.9-1.5,0.4-2
						c-0.1-0.1-0.3-0.2-0.5-0.1C89.2,128.4,88.9,128.9,89.6,130.3z"/>
				</g>
			</g>
			<g>
				<g>
					<g>
						<path class="st12" d="M87,131.8c0,0.4-0.2,0.7-0.6,0.9c-0.3,0.2-0.6,0.1-0.8-0.1c-0.3-0.3-0.4-0.7-0.2-1.2
							c0.1-0.4,0.4-0.8,0.9-1.3l0.1-0.1l0.1,0.2c0.3,0.6,0.5,1.1,0.5,1.5C87,131.7,87,131.7,87,131.8z M85.6,131.7
							c0,0.3,0.1,0.5,0.2,0.7c0.1,0.1,0.3,0.2,0.5,0.1c0.6-0.4,0.6-1,0.1-2C85.8,131,85.6,131.4,85.6,131.7z"/>
					</g>
					<g>
						<path class="st12" d="M87.4,128.6c0,0.1,0,0.1,0,0.2c-0.1,0.4-0.4,0.8-0.8,1.3l-0.1,0.1l-0.1-0.2c-0.4-0.6-0.5-1.1-0.6-1.5
							c0-0.5,0.1-0.9,0.5-1.1c0.3-0.2,0.6-0.1,0.8,0.1C87.3,127.9,87.5,128.3,87.4,128.6z M86.5,129.8c0.7-0.9,0.9-1.5,0.4-2
							c-0.1-0.1-0.3-0.2-0.5-0.1C86.1,128,85.7,128.5,86.5,129.8z"/>
					</g>
				</g>
				<g>
					<g>
						<path class="st12" d="M86.6,130.2l-0.2,0.1c-0.6,0.3-1.1,0.5-1.5,0.5c-0.5,0-0.8-0.2-1.1-0.6c-0.2-0.3-0.1-0.6,0.1-0.8
							c0.3-0.3,0.7-0.4,1.2-0.2c0.4,0.1,0.8,0.4,1.3,0.9L86.6,130.2z M84,129.8c0,0.1,0,0.2,0.1,0.3c0.4,0.6,1,0.6,2,0.1
							c-1.2-1.1-1.7-0.8-2-0.6C84,129.6,84,129.7,84,129.8z"/>
					</g>
					<g>
						<path class="st12" d="M89,130.4c0,0.1-0.1,0.3-0.2,0.4c-0.3,0.3-0.8,0.4-1.2,0.3c-0.4-0.1-0.8-0.4-1.3-0.8l-0.1-0.1l0.2-0.1
							c0.6-0.4,1.1-0.5,1.5-0.6c0.5,0,0.9,0.1,1.1,0.5C89,130.1,89.1,130.3,89,130.4z M86.6,130.2c0.9,0.7,1.5,0.9,2,0.4
							c0.1-0.1,0.2-0.3,0.1-0.5C88.5,129.8,88,129.4,86.6,130.2z"/>
					</g>
				</g>
				<g>
					<circle class="st12" cx="86.4" cy="130.1" r="0.4"/>
				</g>
			</g>
		</g>
		<g>
			<g>
				
					<rect x="97.7" y="112.4" transform="matrix(0.2335 -0.9723 0.9723 0.2335 -44.237 189.1792)" class="st13" width="0.3" height="20.5"/>
			</g>
			<g>
				<g>
					<path class="st13" d="M105.6,126.1c-0.1,0.4-0.3,0.6-0.7,0.8c-0.3,0.1-0.6,0.1-0.8-0.2c-0.3-0.4-0.3-0.8-0.1-1.2
						c0.2-0.4,0.5-0.8,1.1-1.2l0.1-0.1l0.1,0.2c0.2,0.6,0.3,1.1,0.3,1.5C105.6,126,105.6,126.1,105.6,126.1z M104.2,125.9
						c-0.1,0.3,0,0.5,0.2,0.7c0.1,0.1,0.3,0.2,0.5,0.1c0.6-0.3,0.7-0.9,0.3-2C104.5,125.2,104.2,125.6,104.2,125.9z"/>
				</g>
				<g>
					<path class="st13" d="M106.3,123c0,0.1,0,0.1-0.1,0.2c-0.2,0.4-0.5,0.8-1,1.2l-0.1,0.1l-0.1-0.2c-0.3-0.6-0.4-1.2-0.4-1.6
						c0-0.5,0.2-0.8,0.6-1c0.3-0.1,0.6-0.1,0.8,0.2C106.3,122.3,106.4,122.7,106.3,123z M105.2,124.1c0.8-0.8,1-1.4,0.6-1.9
						c-0.1-0.1-0.3-0.2-0.5-0.1C105,122.2,104.6,122.7,105.2,124.1z"/>
				</g>
			</g>
			<g>
				<g>
					<path class="st13" d="M103.5,125.6c-0.1,0.4-0.3,0.6-0.7,0.8c-0.3,0.1-0.6,0.1-0.8-0.2c-0.3-0.4-0.3-0.8-0.1-1.2
						c0.2-0.4,0.5-0.8,1.1-1.2l0.1-0.1l0.1,0.2c0.2,0.6,0.3,1.1,0.3,1.5C103.5,125.5,103.5,125.6,103.5,125.6z M102.1,125.4
						c-0.1,0.3,0,0.5,0.2,0.7c0.1,0.1,0.3,0.2,0.5,0.1c0.6-0.3,0.7-0.9,0.3-2C102.4,124.7,102.2,125.1,102.1,125.4z"/>
				</g>
				<g>
					<path class="st13" d="M104.3,122.5c0,0.1,0,0.1-0.1,0.2c-0.2,0.4-0.5,0.8-1,1.2l-0.1,0.1l-0.1-0.2c-0.3-0.6-0.4-1.2-0.4-1.6
						c0-0.5,0.2-0.8,0.6-1c0.3-0.1,0.6-0.1,0.8,0.2C104.3,121.8,104.3,122.2,104.3,122.5z M103.2,123.6c0.8-0.8,1-1.4,0.6-1.9
						c-0.1-0.1-0.3-0.2-0.5-0.1C103,121.8,102.6,122.2,103.2,123.6z"/>
				</g>
			</g>
			<g>
				<g>
					<path class="st13" d="M101.5,125.1c-0.1,0.4-0.3,0.6-0.7,0.8c-0.3,0.1-0.6,0.1-0.8-0.2c-0.3-0.4-0.3-0.8-0.1-1.2
						c0.2-0.4,0.5-0.8,1.1-1.2l0.1-0.1l0.1,0.2c0.2,0.6,0.3,1.1,0.3,1.5C101.5,125,101.5,125.1,101.5,125.1z M100.1,124.9
						c-0.1,0.3,0,0.5,0.2,0.7c0.1,0.1,0.3,0.2,0.5,0.1c0.6-0.3,0.7-0.9,0.3-2C100.4,124.2,100.1,124.6,100.1,124.9z"/>
				</g>
				<g>
					<path class="st13" d="M102.2,122.1c0,0.1,0,0.1-0.1,0.2c-0.2,0.4-0.5,0.8-1,1.2l-0.1,0.1l-0.1-0.2c-0.3-0.6-0.4-1.2-0.4-1.6
						c0-0.5,0.2-0.8,0.6-1c0.3-0.1,0.6-0.1,0.8,0.2C102.2,121.3,102.3,121.7,102.2,122.1z M101.1,123.1c0.8-0.8,1-1.4,0.6-1.9
						c-0.1-0.1-0.3-0.2-0.5-0.1C100.9,121.3,100.5,121.7,101.1,123.1z"/>
				</g>
			</g>
			<g>
				<g>
					<path class="st13" d="M99.4,124.7c-0.1,0.4-0.3,0.6-0.7,0.8c-0.3,0.1-0.6,0.1-0.8-0.2c-0.3-0.4-0.3-0.8-0.1-1.2
						c0.2-0.4,0.5-0.8,1.1-1.2l0.1-0.1l0.1,0.2c0.2,0.6,0.3,1.1,0.3,1.5C99.4,124.5,99.4,124.6,99.4,124.7z M98,124.4
						c-0.1,0.3,0,0.5,0.2,0.7c0.1,0.1,0.3,0.2,0.5,0.1c0.6-0.3,0.7-0.9,0.3-2C98.3,123.7,98.1,124.1,98,124.4z"/>
				</g>
				<g>
					<path class="st13" d="M100.2,121.6c0,0.1,0,0.1-0.1,0.2c-0.2,0.4-0.5,0.8-1,1.2l-0.1,0.1l-0.1-0.2c-0.3-0.6-0.4-1.2-0.4-1.6
						c0-0.5,0.2-0.8,0.6-1c0.3-0.1,0.6-0.1,0.8,0.2C100.2,120.9,100.2,121.2,100.2,121.6z M99.1,122.6c0.8-0.8,1-1.4,0.6-1.9
						c-0.1-0.1-0.3-0.2-0.5-0.1C98.9,120.8,98.5,121.2,99.1,122.6z"/>
				</g>
			</g>
			<g>
				<g>
					<path class="st13" d="M97.4,124.2c-0.1,0.4-0.3,0.6-0.7,0.8c-0.3,0.1-0.6,0.1-0.8-0.2c-0.3-0.4-0.3-0.8-0.1-1.2
						c0.2-0.4,0.5-0.8,1.1-1.2l0.1-0.1l0.1,0.2c0.2,0.6,0.3,1.1,0.3,1.5C97.4,124,97.4,124.1,97.4,124.2z M96,123.9
						c-0.1,0.3,0,0.5,0.2,0.7c0.1,0.1,0.3,0.2,0.5,0.1c0.6-0.3,0.7-0.9,0.3-2C96.3,123.2,96,123.6,96,123.9z"/>
				</g>
				<g>
					<path class="st13" d="M98.1,121.1c0,0.1,0,0.1-0.1,0.2c-0.2,0.4-0.5,0.8-1,1.2l-0.1,0.1l-0.1-0.2c-0.3-0.6-0.4-1.2-0.4-1.6
						c0-0.5,0.2-0.8,0.6-1c0.3-0.1,0.6-0.1,0.8,0.2C98.1,120.4,98.2,120.7,98.1,121.1z M97,122.2c0.8-0.8,1-1.4,0.6-1.9
						c-0.1-0.1-0.3-0.2-0.5-0.1C96.8,120.3,96.4,120.7,97,122.2z"/>
				</g>
			</g>
			<g>
				<g>
					<path class="st13" d="M95.3,123.7c-0.1,0.4-0.3,0.6-0.7,0.8c-0.3,0.1-0.6,0.1-0.8-0.2c-0.3-0.4-0.3-0.8-0.1-1.2
						c0.2-0.4,0.5-0.8,1.1-1.2l0.1-0.1l0.1,0.2c0.2,0.6,0.3,1.1,0.3,1.5C95.4,123.5,95.3,123.6,95.3,123.7z M93.9,123.4
						c-0.1,0.3,0,0.5,0.2,0.7c0.1,0.1,0.3,0.2,0.5,0.1c0.6-0.3,0.7-0.9,0.3-2C94.3,122.7,94,123.1,93.9,123.4z"/>
				</g>
				<g>
					<path class="st13" d="M96.1,120.6c0,0.1,0,0.1-0.1,0.2c-0.2,0.4-0.5,0.8-1,1.2l-0.1,0.1l-0.1-0.2c-0.3-0.6-0.4-1.2-0.4-1.6
						c0-0.5,0.2-0.8,0.6-1c0.3-0.1,0.6-0.1,0.8,0.2C96.1,119.9,96.2,120.2,96.1,120.6z M95,121.7c0.8-0.8,1-1.4,0.6-1.9
						c-0.1-0.1-0.3-0.2-0.5-0.1C94.8,119.8,94.4,120.2,95,121.7z"/>
				</g>
			</g>
			<g>
				<g>
					<path class="st13" d="M93.3,123.2c-0.1,0.4-0.3,0.6-0.7,0.8c-0.3,0.1-0.6,0.1-0.8-0.2c-0.3-0.4-0.3-0.8-0.1-1.2
						c0.2-0.4,0.5-0.8,1.1-1.2l0.1-0.1l0.1,0.2c0.2,0.6,0.3,1.1,0.3,1.5C93.3,123,93.3,123.1,93.3,123.2z M91.9,122.9
						c-0.1,0.3,0,0.5,0.2,0.7c0.1,0.1,0.3,0.2,0.5,0.1c0.6-0.3,0.7-0.9,0.3-2C92.2,122.2,91.9,122.6,91.9,122.9z"/>
				</g>
				<g>
					<path class="st13" d="M94,120.1c0,0.1,0,0.1-0.1,0.2c-0.2,0.4-0.5,0.8-1,1.2l-0.1,0.1l-0.1-0.2c-0.3-0.6-0.4-1.2-0.4-1.6
						c0-0.5,0.2-0.8,0.6-1c0.3-0.1,0.6-0.1,0.8,0.2C94,119.4,94.1,119.7,94,120.1z M92.9,121.2c0.8-0.8,1-1.4,0.6-1.9
						c-0.1-0.1-0.3-0.2-0.5-0.1C92.7,119.3,92.3,119.7,92.9,121.2z"/>
				</g>
			</g>
			<g>
				<g>
					<path class="st13" d="M91.2,122.7c-0.1,0.4-0.3,0.6-0.7,0.8c-0.3,0.1-0.6,0.1-0.8-0.2c-0.3-0.4-0.3-0.8-0.1-1.2
						c0.2-0.4,0.5-0.8,1.1-1.2l0.1-0.1l0.1,0.2c0.2,0.6,0.3,1.1,0.3,1.5C91.3,122.5,91.2,122.6,91.2,122.7z M89.8,122.5
						c-0.1,0.3,0,0.5,0.2,0.7c0.1,0.1,0.3,0.2,0.5,0.1c0.6-0.3,0.7-0.9,0.3-2C90.2,121.7,89.9,122.1,89.8,122.5z"/>
				</g>
				<g>
					<path class="st13" d="M92,119.6c0,0.1,0,0.1-0.1,0.2c-0.2,0.4-0.5,0.8-1,1.2l-0.1,0.1l-0.1-0.2c-0.3-0.6-0.4-1.2-0.4-1.6
						c0-0.5,0.2-0.8,0.6-1c0.3-0.1,0.6-0.1,0.8,0.2C92,118.9,92.1,119.2,92,119.6z M90.9,120.7c0.8-0.8,1-1.4,0.6-1.9
						c-0.1-0.1-0.3-0.2-0.5-0.1C90.7,118.8,90.3,119.2,90.9,120.7z"/>
				</g>
			</g>
			<g>
				<g>
					<g>
						<path class="st13" d="M88.1,121.9c-0.1,0.4-0.3,0.6-0.7,0.8c-0.3,0.1-0.6,0.1-0.8-0.2c-0.3-0.4-0.3-0.8-0.1-1.2
							c0.2-0.4,0.5-0.8,1.1-1.2l0.1-0.1l0.1,0.2c0.2,0.6,0.3,1.1,0.3,1.5C88.1,121.8,88.1,121.8,88.1,121.9z M86.7,121.7
							c-0.1,0.3,0,0.5,0.2,0.7c0.1,0.1,0.3,0.2,0.5,0.1c0.6-0.3,0.7-0.9,0.3-2C87,121,86.8,121.4,86.7,121.7z"/>
					</g>
					<g>
						<path class="st13" d="M88.9,118.8c0,0.1,0,0.1-0.1,0.2c-0.2,0.4-0.5,0.8-1,1.2l-0.1,0.1l-0.1-0.2c-0.3-0.6-0.4-1.2-0.4-1.6
							c0-0.5,0.2-0.8,0.6-1c0.3-0.1,0.6-0.1,0.8,0.2C88.9,118.1,88.9,118.5,88.9,118.8z M87.8,119.9c0.8-0.8,1-1.4,0.6-1.9
							c-0.1-0.1-0.3-0.2-0.5-0.1C87.6,118,87.2,118.4,87.8,119.9z"/>
					</g>
				</g>
				<g>
					<g>
						<path class="st13" d="M87.8,120.3l-0.2,0.1c-0.6,0.2-1.1,0.3-1.5,0.3c-0.5,0-0.8-0.3-1-0.7c-0.1-0.3-0.1-0.6,0.2-0.8
							c0.4-0.3,0.8-0.3,1.2-0.1c0.4,0.2,0.8,0.5,1.2,1.1L87.8,120.3z M85.3,119.6c0,0.1,0,0.2,0,0.3c0.3,0.6,0.9,0.7,2,0.3
							c-1-1.2-1.6-1-1.9-0.8C85.4,119.4,85.3,119.5,85.3,119.6z"/>
					</g>
					<g>
						<path class="st13" d="M90.3,120.8c0,0.1-0.1,0.3-0.2,0.4c-0.4,0.3-0.8,0.3-1.2,0.1c-0.4-0.2-0.8-0.5-1.2-1l-0.1-0.1l0.2-0.1
							c0.6-0.3,1.2-0.4,1.6-0.4c0.5,0,0.8,0.2,1,0.6C90.3,120.5,90.3,120.6,90.3,120.8z M87.9,120.3c0.8,0.8,1.4,1,1.9,0.6
							c0.1-0.1,0.2-0.3,0.1-0.5C89.8,120.1,89.4,119.7,87.9,120.3z"/>
					</g>
				</g>
				<g>
					<circle class="st13" cx="87.7" cy="120.2" r="0.4"/>
				</g>
			</g>
		</g>
		<g>
			<g>
				
					<rect x="99.9" y="103.6" transform="matrix(0.3812 -0.9245 0.9245 0.3812 -43.4075 162.9213)" class="st14" width="0.3" height="20.5"/>
			</g>
			<g>
				<g>
					<path class="st14" d="M107,118.5c-0.1,0.3-0.4,0.6-0.8,0.7c-0.3,0.1-0.6,0-0.8-0.3c-0.2-0.4-0.2-0.8,0.1-1.2
						c0.2-0.3,0.6-0.7,1.2-1l0.2-0.1l0,0.2c0.1,0.6,0.2,1.2,0.1,1.6C107.1,118.4,107.1,118.4,107,118.5z M105.7,118.1
						c-0.1,0.3,0,0.5,0,0.7c0.1,0.2,0.3,0.2,0.4,0.2c0.6-0.2,0.8-0.8,0.6-1.9C106.1,117.4,105.8,117.8,105.7,118.1z"/>
				</g>
				<g>
					<path class="st14" d="M108.3,115.6c0,0.1-0.1,0.1-0.1,0.2c-0.2,0.4-0.6,0.7-1.1,1.1l-0.2,0.1l0-0.2c-0.2-0.7-0.2-1.2-0.2-1.6
						c0.1-0.5,0.4-0.8,0.8-0.9c0.3-0.1,0.6,0,0.8,0.3C108.4,114.9,108.4,115.2,108.3,115.6z M107,116.5c0.9-0.6,1.2-1.2,0.9-1.8
						c-0.1-0.2-0.3-0.2-0.4-0.2C107.1,114.6,106.7,114.9,107,116.5z"/>
				</g>
			</g>
			<g>
				<g>
					<path class="st14" d="M105.1,117.7c-0.1,0.3-0.4,0.6-0.8,0.7c-0.3,0.1-0.6,0-0.8-0.3c-0.2-0.4-0.2-0.8,0.1-1.2
						c0.2-0.3,0.6-0.7,1.2-1l0.2-0.1l0,0.2c0.1,0.6,0.2,1.2,0.1,1.6C105.2,117.6,105.1,117.6,105.1,117.7z M103.8,117.3
						c-0.1,0.3,0,0.5,0,0.7c0.1,0.2,0.3,0.2,0.4,0.2c0.6-0.2,0.8-0.8,0.6-1.9C104.2,116.6,103.9,117,103.8,117.3z"/>
				</g>
				<g>
					<path class="st14" d="M106.3,114.8c0,0.1-0.1,0.1-0.1,0.2c-0.2,0.4-0.6,0.7-1.1,1.1l-0.2,0.1l0-0.2c-0.2-0.7-0.2-1.2-0.2-1.6
						c0.1-0.5,0.4-0.8,0.8-0.9c0.3-0.1,0.6,0,0.8,0.3C106.4,114.1,106.5,114.4,106.3,114.8z M105.1,115.7c0.9-0.6,1.2-1.2,0.9-1.8
						c-0.1-0.2-0.3-0.2-0.4-0.2C105.2,113.8,104.7,114.1,105.1,115.7z"/>
				</g>
			</g>
			<g>
				<g>
					<path class="st14" d="M103.2,116.9c-0.1,0.3-0.4,0.6-0.8,0.7c-0.3,0.1-0.6,0-0.8-0.3c-0.2-0.4-0.2-0.8,0.1-1.2
						c0.2-0.3,0.6-0.7,1.2-1l0.2-0.1l0,0.2c0.1,0.6,0.2,1.2,0.1,1.6C103.2,116.8,103.2,116.8,103.2,116.9z M101.8,116.5
						c-0.1,0.3,0,0.5,0,0.7c0.1,0.2,0.3,0.2,0.4,0.2c0.6-0.2,0.8-0.8,0.6-1.9C102.2,115.8,101.9,116.2,101.8,116.5z"/>
				</g>
				<g>
					<path class="st14" d="M104.4,114c0,0.1-0.1,0.1-0.1,0.2c-0.2,0.4-0.6,0.7-1.1,1.1l-0.2,0.1l0-0.2c-0.2-0.7-0.2-1.2-0.2-1.6
						c0.1-0.5,0.4-0.8,0.8-0.9c0.3-0.1,0.6,0,0.8,0.3C104.5,113.3,104.5,113.6,104.4,114z M103.1,114.9c0.9-0.6,1.2-1.2,0.9-1.8
						c-0.1-0.2-0.3-0.2-0.4-0.2C103.2,113,102.8,113.3,103.1,114.9z"/>
				</g>
			</g>
			<g>
				<g>
					<path class="st14" d="M101.2,116.1c-0.1,0.3-0.4,0.6-0.8,0.7c-0.3,0.1-0.6,0-0.8-0.3c-0.2-0.4-0.2-0.8,0.1-1.2
						c0.2-0.3,0.6-0.7,1.2-1l0.2-0.1l0,0.2c0.1,0.6,0.2,1.2,0.1,1.6C101.3,116,101.2,116,101.2,116.1z M99.9,115.7
						c-0.1,0.3,0,0.5,0,0.7c0.1,0.2,0.3,0.2,0.4,0.2c0.6-0.2,0.8-0.8,0.6-1.9C100.3,115,100,115.4,99.9,115.7z"/>
				</g>
				<g>
					<path class="st14" d="M102.4,113.2c0,0.1-0.1,0.1-0.1,0.2c-0.2,0.4-0.6,0.7-1.1,1.1l-0.2,0.1l0-0.2c-0.2-0.7-0.2-1.2-0.2-1.6
						c0.1-0.5,0.4-0.8,0.8-0.9c0.3-0.1,0.6,0,0.8,0.3C102.5,112.5,102.6,112.8,102.4,113.2z M101.2,114.1c0.9-0.6,1.2-1.2,0.9-1.8
						c-0.1-0.2-0.3-0.2-0.4-0.2C101.3,112.2,100.8,112.5,101.2,114.1z"/>
				</g>
			</g>
			<g>
				<g>
					<path class="st14" d="M99.3,115.3c-0.1,0.3-0.4,0.6-0.8,0.7c-0.3,0.1-0.6,0-0.8-0.3c-0.2-0.4-0.2-0.8,0.1-1.2
						c0.2-0.3,0.6-0.7,1.2-1l0.2-0.1l0,0.2c0.1,0.6,0.2,1.2,0.1,1.6C99.3,115.2,99.3,115.2,99.3,115.3z M97.9,114.9
						c-0.1,0.3,0,0.5,0,0.7c0.1,0.2,0.3,0.2,0.4,0.2c0.6-0.2,0.8-0.8,0.6-1.9C98.3,114.2,98,114.6,97.9,114.9z"/>
				</g>
				<g>
					<path class="st14" d="M100.5,112.4c0,0.1-0.1,0.1-0.1,0.2c-0.2,0.4-0.6,0.7-1.1,1.1l-0.2,0.1l0-0.2c-0.2-0.7-0.2-1.2-0.2-1.6
						c0.1-0.5,0.4-0.8,0.8-0.9c0.3-0.1,0.6,0,0.8,0.3C100.6,111.7,100.6,112,100.5,112.4z M99.2,113.3c0.9-0.6,1.2-1.2,0.9-1.8
						c-0.1-0.2-0.3-0.2-0.4-0.2C99.3,111.4,98.9,111.7,99.2,113.3z"/>
				</g>
			</g>
			<g>
				<g>
					<path class="st14" d="M97.3,114.5c-0.1,0.3-0.4,0.6-0.8,0.7c-0.3,0.1-0.6,0-0.8-0.3c-0.2-0.4-0.2-0.8,0.1-1.2
						c0.2-0.3,0.6-0.7,1.2-1l0.2-0.1l0,0.2c0.1,0.6,0.2,1.2,0.1,1.6C97.4,114.4,97.3,114.4,97.3,114.5z M96,114.1
						c-0.1,0.3,0,0.5,0,0.7c0.1,0.2,0.3,0.2,0.4,0.2c0.6-0.2,0.8-0.8,0.6-1.9C96.4,113.4,96.1,113.8,96,114.1z"/>
				</g>
				<g>
					<path class="st14" d="M98.5,111.6c0,0.1-0.1,0.1-0.1,0.2c-0.2,0.4-0.6,0.7-1.1,1.1l-0.2,0.1l0-0.2c-0.2-0.7-0.2-1.2-0.2-1.6
						c0.1-0.5,0.4-0.8,0.8-0.9c0.3-0.1,0.6,0,0.8,0.3C98.7,110.9,98.7,111.2,98.5,111.6z M97.3,112.5c0.9-0.6,1.2-1.2,0.9-1.8
						c-0.1-0.2-0.3-0.2-0.4-0.2C97.4,110.6,96.9,110.9,97.3,112.5z"/>
				</g>
			</g>
			<g>
				<g>
					<path class="st14" d="M95.4,113.7c-0.1,0.3-0.4,0.6-0.8,0.7c-0.3,0.1-0.6,0-0.8-0.3c-0.2-0.4-0.2-0.8,0.1-1.2
						c0.2-0.3,0.6-0.7,1.2-1l0.2-0.1l0,0.2c0.1,0.6,0.2,1.2,0.1,1.6C95.4,113.6,95.4,113.6,95.4,113.7z M94,113.2
						c-0.1,0.3,0,0.5,0,0.7c0.1,0.2,0.3,0.2,0.4,0.2c0.6-0.2,0.8-0.8,0.6-1.9C94.5,112.6,94.1,113,94,113.2z"/>
				</g>
				<g>
					<path class="st14" d="M96.6,110.8c0,0.1-0.1,0.1-0.1,0.2c-0.2,0.4-0.6,0.7-1.1,1.1l-0.2,0.1l0-0.2c-0.2-0.7-0.2-1.2-0.2-1.6
						c0.1-0.5,0.4-0.8,0.8-0.9c0.3-0.1,0.6,0,0.8,0.3C96.7,110.1,96.7,110.4,96.6,110.8z M95.3,111.7c0.9-0.6,1.2-1.2,0.9-1.8
						c-0.1-0.2-0.3-0.2-0.4-0.2C95.4,109.8,95,110.1,95.3,111.7z"/>
				</g>
			</g>
			<g>
				<g>
					<path class="st14" d="M93.4,112.9c-0.1,0.3-0.4,0.6-0.8,0.7c-0.3,0.1-0.6,0-0.8-0.3c-0.2-0.4-0.2-0.8,0.1-1.2
						c0.2-0.3,0.6-0.7,1.2-1l0.2-0.1l0,0.2c0.1,0.6,0.2,1.2,0.1,1.6C93.5,112.8,93.4,112.8,93.4,112.9z M92.1,112.4
						c-0.1,0.3,0,0.5,0,0.7c0.1,0.2,0.3,0.2,0.4,0.2c0.6-0.2,0.8-0.8,0.6-1.9C92.5,111.8,92.2,112.2,92.1,112.4z"/>
				</g>
				<g>
					<path class="st14" d="M94.6,110c0,0.1-0.1,0.1-0.1,0.2c-0.2,0.4-0.6,0.7-1.1,1.1l-0.2,0.1l0-0.2c-0.2-0.7-0.2-1.2-0.2-1.6
						c0.1-0.5,0.4-0.8,0.8-0.9c0.3-0.1,0.6,0,0.8,0.3C94.8,109.3,94.8,109.6,94.6,110z M93.4,110.9c0.9-0.6,1.2-1.2,0.9-1.8
						c-0.1-0.2-0.3-0.2-0.4-0.2C93.5,109,93,109.3,93.4,110.9z"/>
				</g>
			</g>
			<g>
				<g>
					<g>
						<path class="st14" d="M90.5,111.7c-0.1,0.3-0.4,0.6-0.8,0.7c-0.3,0.1-0.6,0-0.8-0.3c-0.2-0.4-0.2-0.8,0.1-1.2
							c0.2-0.3,0.6-0.7,1.2-1l0.2-0.1l0,0.2c0.1,0.6,0.2,1.2,0.1,1.6C90.5,111.5,90.5,111.6,90.5,111.7z M89.1,111.2
							c-0.1,0.3,0,0.5,0,0.7c0.1,0.2,0.3,0.2,0.4,0.2c0.6-0.2,0.8-0.8,0.6-1.9C89.6,110.6,89.2,110.9,89.1,111.2z"/>
					</g>
					<g>
						<path class="st14" d="M91.7,108.7c0,0.1-0.1,0.1-0.1,0.2c-0.2,0.4-0.6,0.7-1.1,1.1l-0.2,0.1l0-0.2c-0.2-0.7-0.2-1.2-0.2-1.6
							c0.1-0.5,0.4-0.8,0.8-0.9c0.3-0.1,0.6,0,0.8,0.3C91.8,108,91.8,108.4,91.7,108.7z M90.5,109.6c0.9-0.6,1.2-1.2,0.9-1.8
							c-0.1-0.2-0.3-0.2-0.4-0.2C90.5,107.7,90.1,108.1,90.5,109.6z"/>
					</g>
				</g>
				<g>
					<g>
						<path class="st14" d="M90.4,110l-0.2,0c-0.6,0.1-1.2,0.2-1.6,0.1c-0.5-0.1-0.8-0.4-0.9-0.8c-0.1-0.3,0-0.6,0.3-0.8
							c0.4-0.2,0.8-0.2,1.2,0.1c0.3,0.2,0.7,0.6,1,1.2L90.4,110z M88.1,108.9c0,0.1,0,0.2,0,0.3c0.2,0.6,0.8,0.8,1.9,0.6
							c-0.8-1.4-1.4-1.3-1.8-1.1C88.2,108.8,88.1,108.8,88.1,108.9z"/>
					</g>
					<g>
						<path class="st14" d="M92.8,110.9c-0.1,0.1-0.2,0.3-0.3,0.3c-0.4,0.2-0.8,0.2-1.2,0c-0.4-0.2-0.7-0.6-1.1-1.1l-0.1-0.2l0.2,0
							c0.7-0.2,1.2-0.2,1.6-0.2c0.5,0.1,0.8,0.4,0.9,0.8C92.8,110.6,92.8,110.7,92.8,110.9z M90.5,110c0.6,0.9,1.2,1.2,1.8,0.9
							c0.2-0.1,0.2-0.3,0.2-0.4C92.4,110.1,92.1,109.6,90.5,110z"/>
					</g>
				</g>
				<g>
					<circle class="st14" cx="90.3" cy="109.9" r="0.4"/>
				</g>
			</g>
		</g>
		<g>
			<g>
				
					<rect x="129.8" y="91.9" transform="matrix(1 -7.927733e-03 7.927733e-03 1 -0.8056 1.0335)" class="st15" width="0.3" height="20.5"/>
			</g>
			<g>
				<g>
					<path class="st15" d="M131.4,110.4c-0.4-0.1-0.9-0.3-1.4-0.6l-0.2-0.1l0.2-0.1c0.6-0.4,1-0.7,1.4-0.8c0.5-0.1,0.9,0,1.2,0.4
						c0.2,0.2,0.2,0.6,0,0.8c-0.3,0.3-0.6,0.5-0.9,0.5C131.5,110.4,131.5,110.4,131.4,110.4z M130.3,109.6c1,0.6,1.6,0.7,2,0.1
						c0.1-0.1,0.1-0.3,0-0.5c-0.1-0.2-0.3-0.3-0.6-0.3C131.4,109,130.9,109.1,130.3,109.6z"/>
				</g>
				<g>
					<path class="st15" d="M127.5,110c-0.2-0.2-0.2-0.6,0-0.8c0.3-0.4,0.7-0.5,1.2-0.4c0.4,0.1,0.9,0.3,1.4,0.8l0.2,0.1l-0.2,0.1
						c-0.5,0.4-1,0.6-1.4,0.7c-0.1,0-0.1,0-0.2,0C128.1,110.4,127.7,110.3,127.5,110z M127.7,109.3c-0.1,0.1-0.1,0.3,0,0.5
						c0.4,0.5,1.1,0.5,2-0.2C128.4,108.7,127.9,109,127.7,109.3z"/>
				</g>
			</g>
			<g>
				<g>
					<path class="st15" d="M131.4,108.3c-0.4-0.1-0.9-0.3-1.4-0.6l-0.2-0.1l0.2-0.1c0.6-0.4,1-0.7,1.4-0.8c0.5-0.1,0.9,0,1.2,0.4
						c0.2,0.2,0.2,0.6,0,0.8c-0.3,0.3-0.6,0.5-0.9,0.5C131.5,108.3,131.5,108.3,131.4,108.3z M130.3,107.5c1,0.6,1.6,0.7,2,0.1
						c0.1-0.1,0.1-0.3,0-0.5c-0.1-0.2-0.3-0.3-0.6-0.3C131.4,106.9,130.9,107,130.3,107.5z"/>
				</g>
				<g>
					<path class="st15" d="M127.5,107.9c-0.2-0.2-0.2-0.6,0-0.8c0.3-0.4,0.7-0.5,1.2-0.4c0.4,0.1,0.9,0.3,1.4,0.8l0.2,0.1l-0.2,0.1
						c-0.5,0.4-1,0.6-1.4,0.7c-0.1,0-0.1,0-0.2,0C128,108.3,127.7,108.2,127.5,107.9z M127.7,107.2c-0.1,0.1-0.1,0.3,0,0.5
						c0.4,0.5,1.1,0.5,2-0.2C128.4,106.6,127.9,106.9,127.7,107.2z"/>
				</g>
			</g>
			<g>
				<g>
					<path class="st15" d="M131.4,106.2c-0.4-0.1-0.9-0.3-1.4-0.6l-0.2-0.1l0.2-0.1c0.6-0.4,1-0.7,1.4-0.8c0.5-0.1,0.9,0,1.2,0.4
						c0.2,0.2,0.2,0.6,0,0.8c-0.3,0.3-0.6,0.5-0.9,0.5C131.5,106.2,131.4,106.2,131.4,106.2z M130.3,105.4c1,0.6,1.6,0.7,2,0.1
						c0.1-0.1,0.1-0.3,0-0.5c-0.1-0.2-0.3-0.3-0.6-0.3C131.4,104.8,130.9,104.9,130.3,105.4z"/>
				</g>
				<g>
					<path class="st15" d="M127.5,105.8c-0.2-0.2-0.2-0.6,0-0.8c0.3-0.4,0.7-0.5,1.2-0.4c0.4,0.1,0.9,0.3,1.4,0.8l0.2,0.1l-0.2,0.1
						c-0.5,0.4-1,0.6-1.4,0.7c-0.1,0-0.1,0-0.2,0C128,106.2,127.7,106.1,127.5,105.8z M127.7,105.1c-0.1,0.1-0.1,0.3,0,0.5
						c0.4,0.5,1.1,0.5,2-0.2C128.4,104.5,127.9,104.8,127.7,105.1z"/>
				</g>
			</g>
			<g>
				<g>
					<path class="st15" d="M131.3,104.1c-0.4-0.1-0.9-0.3-1.4-0.6l-0.2-0.1l0.2-0.1c0.6-0.4,1-0.7,1.4-0.8c0.5-0.1,0.9,0,1.2,0.4
						c0.2,0.2,0.2,0.6,0,0.8c-0.3,0.3-0.6,0.5-0.9,0.5C131.5,104.1,131.4,104.1,131.3,104.1z M130.2,103.3c1,0.6,1.6,0.7,2,0.1
						c0.1-0.1,0.1-0.3,0-0.5c-0.1-0.2-0.3-0.3-0.6-0.3C131.3,102.7,130.9,102.8,130.2,103.3z"/>
				</g>
				<g>
					<path class="st15" d="M127.4,103.7c-0.2-0.2-0.2-0.6,0-0.8c0.3-0.4,0.7-0.5,1.2-0.4c0.4,0.1,0.9,0.3,1.4,0.8l0.2,0.1l-0.2,0.1
						c-0.5,0.4-1,0.6-1.4,0.7c-0.1,0-0.1,0-0.2,0C128,104.1,127.7,104,127.4,103.7z M127.6,103c-0.1,0.1-0.1,0.3,0,0.5
						c0.4,0.5,1.1,0.5,2-0.2C128.4,102.4,127.9,102.7,127.6,103z"/>
				</g>
			</g>
			<g>
				<g>
					<path class="st15" d="M131.3,102c-0.4-0.1-0.9-0.3-1.4-0.6l-0.2-0.1l0.2-0.1c0.6-0.4,1-0.7,1.4-0.8c0.5-0.1,0.9,0,1.2,0.4
						c0.2,0.2,0.2,0.6,0,0.8c-0.3,0.3-0.6,0.5-0.9,0.5C131.5,102,131.4,102,131.3,102z M130.2,101.2c1,0.6,1.6,0.7,2,0.1
						c0.1-0.1,0.1-0.3,0-0.5c-0.1-0.2-0.3-0.3-0.6-0.3C131.3,100.6,130.9,100.7,130.2,101.2z"/>
				</g>
				<g>
					<path class="st15" d="M127.4,101.6c-0.2-0.2-0.2-0.6,0-0.8c0.3-0.4,0.7-0.5,1.2-0.4c0.4,0.1,0.9,0.3,1.4,0.8l0.2,0.1l-0.2,0.1
						c-0.5,0.4-1,0.6-1.4,0.7c-0.1,0-0.1,0-0.2,0C128,102,127.7,101.9,127.4,101.6z M127.6,100.9c-0.1,0.1-0.1,0.3,0,0.5
						c0.4,0.5,1.1,0.5,2-0.2C128.4,100.3,127.9,100.6,127.6,100.9z"/>
				</g>
			</g>
			<g>
				<g>
					<path class="st15" d="M131.3,99.9c-0.4-0.1-0.9-0.3-1.4-0.6l-0.2-0.1l0.2-0.1c0.6-0.4,1-0.7,1.4-0.8c0.5-0.1,0.9,0,1.2,0.4
						c0.2,0.2,0.2,0.6,0,0.8c-0.3,0.3-0.6,0.5-0.9,0.5C131.5,99.9,131.4,99.9,131.3,99.9z M130.2,99.1c1,0.6,1.6,0.7,2,0.1
						c0.1-0.1,0.1-0.3,0-0.5c-0.1-0.2-0.3-0.3-0.6-0.3C131.3,98.5,130.9,98.6,130.2,99.1z"/>
				</g>
				<g>
					<path class="st15" d="M127.4,99.5c-0.2-0.2-0.2-0.6,0-0.8c0.3-0.4,0.7-0.5,1.2-0.4c0.4,0.1,0.9,0.3,1.4,0.8l0.2,0.1l-0.2,0.1
						c-0.5,0.4-1,0.6-1.4,0.7c-0.1,0-0.1,0-0.2,0C128,99.9,127.7,99.7,127.4,99.5z M127.6,98.8c-0.1,0.1-0.1,0.3,0,0.5
						c0.4,0.5,1.1,0.5,2-0.2C128.4,98.2,127.9,98.5,127.6,98.8z"/>
				</g>
			</g>
			<g>
				<g>
					<path class="st15" d="M131.3,97.7c-0.4-0.1-0.9-0.3-1.4-0.6l-0.2-0.1l0.2-0.1c0.6-0.4,1-0.7,1.4-0.8c0.5-0.1,0.9,0,1.2,0.4
						c0.2,0.2,0.2,0.6,0,0.8c-0.3,0.3-0.6,0.5-0.9,0.5C131.4,97.8,131.4,97.8,131.3,97.7z M130.2,97c1,0.6,1.6,0.7,2,0.1
						c0.1-0.1,0.1-0.3,0-0.5c-0.1-0.2-0.3-0.3-0.6-0.3C131.3,96.3,130.8,96.5,130.2,97z"/>
				</g>
				<g>
					<path class="st15" d="M127.4,97.3c-0.2-0.2-0.2-0.6,0-0.8c0.3-0.4,0.7-0.5,1.2-0.4c0.4,0.1,0.9,0.3,1.4,0.8l0.2,0.1l-0.2,0.1
						c-0.5,0.4-1,0.6-1.4,0.7c-0.1,0-0.1,0-0.2,0C128,97.8,127.6,97.6,127.4,97.3z M127.6,96.7c-0.1,0.1-0.1,0.3,0,0.5
						c0.4,0.5,1.1,0.5,2-0.2C128.3,96.1,127.8,96.4,127.6,96.7z"/>
				</g>
			</g>
			<g>
				<g>
					<path class="st15" d="M131.3,95.6c-0.4-0.1-0.9-0.3-1.4-0.6l-0.2-0.1l0.2-0.1c0.6-0.4,1-0.7,1.4-0.8c0.5-0.1,0.9,0,1.2,0.4
						c0.2,0.2,0.2,0.6,0,0.8c-0.3,0.3-0.6,0.5-0.9,0.5C131.4,95.7,131.4,95.7,131.3,95.6z M130.2,94.9c1,0.6,1.6,0.7,2,0.1
						c0.1-0.1,0.1-0.3,0-0.5c-0.1-0.2-0.3-0.3-0.6-0.3C131.3,94.2,130.8,94.4,130.2,94.9z"/>
				</g>
				<g>
					<path class="st15" d="M127.4,95.2c-0.2-0.2-0.2-0.6,0-0.8c0.3-0.4,0.7-0.5,1.2-0.4c0.4,0.1,0.9,0.3,1.4,0.8l0.2,0.1l-0.2,0.1
						c-0.5,0.4-1,0.6-1.4,0.7c-0.1,0-0.1,0-0.2,0C127.9,95.7,127.6,95.5,127.4,95.2z M127.6,94.6c-0.1,0.1-0.1,0.3,0,0.5
						c0.4,0.5,1.1,0.5,2-0.2C128.3,94,127.8,94.3,127.6,94.6z"/>
				</g>
			</g>
			<g>
				<g>
					<g>
						<path class="st15" d="M131.2,92.4c-0.4-0.1-0.9-0.3-1.4-0.6l-0.2-0.1l0.2-0.1c0.6-0.4,1-0.7,1.4-0.8c0.5-0.1,0.9,0,1.2,0.4
							c0.2,0.2,0.2,0.6,0,0.8c-0.3,0.3-0.6,0.5-0.9,0.5C131.4,92.5,131.3,92.5,131.2,92.4z M130.1,91.7c1,0.6,1.6,0.7,2,0.1
							c0.1-0.1,0.1-0.3,0-0.5c-0.1-0.2-0.3-0.3-0.6-0.3C131.2,91,130.8,91.2,130.1,91.7z"/>
					</g>
					<g>
						<path class="st15" d="M127.3,92c-0.2-0.2-0.2-0.6,0-0.8c0.3-0.4,0.7-0.5,1.2-0.4c0.4,0.1,0.9,0.3,1.4,0.8l0.2,0.1l-0.2,0.1
							c-0.5,0.4-1,0.6-1.4,0.7c-0.1,0-0.1,0-0.2,0C127.9,92.5,127.6,92.3,127.3,92z M127.5,91.4c-0.1,0.1-0.1,0.3,0,0.5
							c0.4,0.5,1.1,0.5,2-0.2C128.3,90.8,127.8,91.1,127.5,91.4z"/>
					</g>
				</g>
				<g>
					<g>
						<path class="st15" d="M129.8,91.7c-0.4-0.6-0.7-1-0.8-1.4c-0.1-0.5,0-0.9,0.4-1.2c0.2-0.2,0.6-0.2,0.8,0
							c0.4,0.3,0.5,0.7,0.4,1.2c-0.1,0.4-0.3,0.9-0.6,1.4l-0.1,0.2L129.8,91.7z M129.6,89.3c-0.3,0.3-0.6,0.8,0.3,2
							c0.6-1,0.7-1.6,0.1-2c-0.1-0.1-0.2-0.1-0.2-0.1C129.7,89.2,129.6,89.2,129.6,89.3z"/>
					</g>
					<g>
						<path class="st15" d="M129.4,94.2c-0.4-0.3-0.5-0.7-0.4-1.2c0.1-0.4,0.3-0.9,0.8-1.4l0.1-0.2l0.1,0.2c0.4,0.5,0.6,1,0.7,1.4
							c0.1,0.5-0.1,0.9-0.4,1.2c-0.1,0.1-0.3,0.2-0.4,0.2C129.7,94.3,129.6,94.3,129.4,94.2z M129.6,93.9c0.1,0.1,0.3,0.1,0.5,0
							c0.5-0.4,0.5-1.1-0.2-2C129,93.2,129.3,93.7,129.6,93.9z"/>
					</g>
				</g>
				<g>
					<circle class="st15" cx="129.9" cy="91.6" r="0.4"/>
				</g>
			</g>
		</g>
		<g>
			<g>
				
					<rect x="121" y="91.9" transform="matrix(0.9929 -0.119 0.119 0.9929 -11.2955 15.1305)" class="st16" width="0.3" height="20.5"/>
			</g>
			<g>
				<g>
					<path class="st16" d="M123.4,110.2c-0.4,0-0.9-0.2-1.5-0.5l-0.2-0.1l0.1-0.1c0.5-0.5,0.9-0.8,1.3-0.9c0.5-0.2,0.9-0.1,1.2,0.2
						c0.2,0.2,0.3,0.6,0.1,0.8c-0.2,0.3-0.5,0.5-0.9,0.6C123.6,110.2,123.5,110.2,123.4,110.2z M122.3,109.6c1,0.5,1.7,0.5,2-0.1
						c0.1-0.1,0.1-0.3-0.1-0.5c-0.1-0.1-0.4-0.3-0.7-0.2C123.3,108.8,122.9,109,122.3,109.6z"/>
				</g>
				<g>
					<path class="st16" d="M119.5,110.3c-0.2-0.2-0.3-0.6-0.1-0.8c0.2-0.4,0.6-0.6,1.1-0.5c0.4,0,0.9,0.2,1.5,0.6l0.2,0.1l-0.1,0.1
						c-0.5,0.4-0.9,0.7-1.3,0.8c-0.1,0-0.1,0-0.2,0C120.1,110.6,119.8,110.5,119.5,110.3z M119.6,109.6c-0.1,0.2-0.1,0.3,0.1,0.5
						c0.5,0.5,1.1,0.3,2-0.4C120.3,108.9,119.9,109.2,119.6,109.6z"/>
				</g>
			</g>
			<g>
				<g>
					<path class="st16" d="M123.2,108.1c-0.4,0-0.9-0.2-1.5-0.5l-0.2-0.1l0.1-0.1c0.5-0.5,0.9-0.8,1.3-0.9c0.5-0.2,0.9-0.1,1.2,0.2
						c0.2,0.2,0.3,0.6,0.1,0.8c-0.2,0.3-0.5,0.5-0.9,0.6C123.3,108.1,123.3,108.1,123.2,108.1z M122,107.5c1,0.5,1.7,0.5,2-0.1
						c0.1-0.1,0.1-0.3-0.1-0.5c-0.1-0.1-0.4-0.3-0.7-0.2C123,106.7,122.6,107,122,107.5z"/>
				</g>
				<g>
					<path class="st16" d="M119.3,108.2c-0.2-0.2-0.3-0.6-0.1-0.8c0.2-0.4,0.6-0.6,1.1-0.5c0.4,0,0.9,0.2,1.5,0.6l0.2,0.1l-0.1,0.1
						c-0.5,0.4-0.9,0.7-1.3,0.8c-0.1,0-0.1,0-0.2,0C119.9,108.5,119.5,108.4,119.3,108.2z M119.4,107.5c-0.1,0.2-0.1,0.3,0.1,0.5
						c0.5,0.5,1.1,0.3,2-0.4C120.1,106.8,119.6,107.1,119.4,107.5z"/>
				</g>
			</g>
			<g>
				<g>
					<path class="st16" d="M122.9,106c-0.4,0-0.9-0.2-1.5-0.5l-0.2-0.1l0.1-0.1c0.5-0.5,0.9-0.8,1.3-0.9c0.5-0.2,0.9-0.1,1.2,0.2
						c0.2,0.2,0.3,0.6,0.1,0.8c-0.2,0.3-0.5,0.5-0.9,0.6C123.1,106,123,106,122.9,106z M121.8,105.4c1,0.5,1.7,0.5,2-0.1
						c0.1-0.1,0.1-0.3-0.1-0.5c-0.1-0.1-0.4-0.3-0.7-0.2C122.8,104.7,122.3,104.9,121.8,105.4z"/>
				</g>
				<g>
					<path class="st16" d="M119,106.1c-0.2-0.2-0.3-0.6-0.1-0.8c0.2-0.4,0.6-0.6,1.1-0.5c0.4,0,0.9,0.2,1.5,0.6l0.2,0.1l-0.1,0.1
						c-0.5,0.4-0.9,0.7-1.3,0.8c-0.1,0-0.1,0-0.2,0C119.6,106.5,119.3,106.3,119,106.1z M119.1,105.4c-0.1,0.2-0.1,0.3,0.1,0.5
						c0.5,0.5,1.1,0.3,2-0.4C119.8,104.7,119.4,105.1,119.1,105.4z"/>
				</g>
			</g>
			<g>
				<g>
					<path class="st16" d="M122.7,104c-0.4,0-0.9-0.2-1.5-0.5l-0.2-0.1l0.1-0.1c0.5-0.5,0.9-0.8,1.3-0.9c0.5-0.2,0.9-0.1,1.2,0.2
						c0.2,0.2,0.3,0.6,0.1,0.8c-0.2,0.3-0.5,0.5-0.9,0.6C122.8,104,122.8,104,122.7,104z M121.5,103.3c1,0.5,1.7,0.5,2-0.1
						c0.1-0.1,0.1-0.3-0.1-0.5c-0.1-0.1-0.4-0.3-0.7-0.2C122.5,102.6,122.1,102.8,121.5,103.3z"/>
				</g>
				<g>
					<path class="st16" d="M118.8,104c-0.2-0.2-0.3-0.6-0.1-0.8c0.2-0.4,0.6-0.6,1.1-0.5c0.4,0,0.9,0.2,1.5,0.6l0.2,0.1l-0.1,0.1
						c-0.5,0.4-0.9,0.7-1.3,0.8c-0.1,0-0.1,0-0.2,0C119.4,104.4,119,104.3,118.8,104z M118.9,103.3c-0.1,0.2-0.1,0.3,0.1,0.5
						c0.5,0.5,1.1,0.3,2-0.4C119.6,102.6,119.1,103,118.9,103.3z"/>
				</g>
			</g>
			<g>
				<g>
					<path class="st16" d="M122.4,101.9c-0.4,0-0.9-0.2-1.5-0.5l-0.2-0.1l0.1-0.1c0.5-0.5,0.9-0.8,1.3-0.9c0.5-0.2,0.9-0.1,1.2,0.2
						c0.2,0.2,0.3,0.6,0.1,0.8c-0.2,0.3-0.5,0.5-0.9,0.6C122.6,101.9,122.5,101.9,122.4,101.9z M121.3,101.2c1,0.5,1.7,0.5,2-0.1
						c0.1-0.1,0.1-0.3-0.1-0.5c-0.1-0.1-0.4-0.3-0.7-0.2C122.3,100.5,121.8,100.7,121.3,101.2z"/>
				</g>
				<g>
					<path class="st16" d="M118.5,101.9c-0.2-0.2-0.3-0.6-0.1-0.8c0.2-0.4,0.6-0.6,1.1-0.5c0.4,0,0.9,0.2,1.5,0.6l0.2,0.1l-0.1,0.1
						c-0.5,0.4-0.9,0.7-1.3,0.8c-0.1,0-0.1,0-0.2,0C119.1,102.3,118.8,102.2,118.5,101.9z M118.6,101.2c-0.1,0.2-0.1,0.3,0.1,0.5
						c0.5,0.5,1.1,0.3,2-0.4C119.3,100.5,118.9,100.9,118.6,101.2z"/>
				</g>
			</g>
			<g>
				<g>
					<path class="st16" d="M122.2,99.8c-0.4,0-0.9-0.2-1.5-0.5l-0.2-0.1l0.1-0.1c0.5-0.5,0.9-0.8,1.3-0.9c0.5-0.2,0.9-0.1,1.2,0.2
						c0.2,0.2,0.3,0.6,0.1,0.8c-0.2,0.3-0.5,0.5-0.9,0.6C122.3,99.8,122.3,99.8,122.2,99.8z M121,99.1c1,0.5,1.7,0.5,2-0.1
						c0.1-0.1,0.1-0.3-0.1-0.5c-0.1-0.1-0.4-0.3-0.7-0.2C122,98.4,121.6,98.6,121,99.1z"/>
				</g>
				<g>
					<path class="st16" d="M118.3,99.8c-0.2-0.2-0.3-0.6-0.1-0.8c0.2-0.4,0.6-0.6,1.1-0.5c0.4,0,0.9,0.2,1.5,0.6l0.2,0.1l-0.1,0.1
						c-0.5,0.4-0.9,0.7-1.3,0.8c-0.1,0-0.1,0-0.2,0C118.9,100.2,118.5,100.1,118.3,99.8z M118.4,99.1c-0.1,0.2-0.1,0.3,0.1,0.5
						c0.5,0.5,1.1,0.3,2-0.4C119.1,98.4,118.6,98.8,118.4,99.1z"/>
				</g>
			</g>
			<g>
				<g>
					<path class="st16" d="M121.9,97.7c-0.4,0-0.9-0.2-1.5-0.5l-0.2-0.1l0.1-0.1c0.5-0.5,0.9-0.8,1.3-0.9c0.5-0.2,0.9-0.1,1.2,0.2
						c0.2,0.2,0.3,0.6,0.1,0.8c-0.2,0.3-0.5,0.5-0.9,0.6C122.1,97.7,122,97.7,121.9,97.7z M120.8,97c1,0.5,1.7,0.5,2-0.1
						c0.1-0.1,0.1-0.3-0.1-0.5c-0.1-0.1-0.4-0.3-0.7-0.2C121.8,96.3,121.3,96.5,120.8,97z"/>
				</g>
				<g>
					<path class="st16" d="M118,97.7c-0.2-0.2-0.3-0.6-0.1-0.8c0.2-0.4,0.6-0.6,1.1-0.5c0.4,0,0.9,0.2,1.5,0.6l0.2,0.1l-0.1,0.1
						c-0.5,0.4-0.9,0.7-1.3,0.8c-0.1,0-0.1,0-0.2,0C118.6,98.1,118.3,98,118,97.7z M118.1,97c-0.1,0.2-0.1,0.3,0.1,0.5
						c0.5,0.5,1.1,0.3,2-0.4C118.8,96.3,118.4,96.7,118.1,97z"/>
				</g>
			</g>
			<g>
				<g>
					<path class="st16" d="M121.7,95.6c-0.4,0-0.9-0.2-1.5-0.5L120,95l0.1-0.1c0.5-0.5,0.9-0.8,1.3-0.9c0.5-0.2,0.9-0.1,1.2,0.2
						c0.2,0.2,0.3,0.6,0.1,0.8c-0.2,0.3-0.5,0.5-0.9,0.6C121.8,95.6,121.8,95.6,121.7,95.6z M120.5,95c1,0.5,1.7,0.5,2-0.1
						c0.1-0.1,0.1-0.3-0.1-0.5c-0.1-0.1-0.4-0.3-0.7-0.2C121.5,94.2,121.1,94.4,120.5,95z"/>
				</g>
				<g>
					<path class="st16" d="M117.8,95.6c-0.2-0.2-0.3-0.6-0.1-0.8c0.2-0.4,0.6-0.6,1.1-0.5c0.4,0,0.9,0.2,1.5,0.6l0.2,0.1l-0.1,0.1
						c-0.5,0.4-0.9,0.7-1.3,0.8c-0.1,0-0.1,0-0.2,0C118.4,96,118,95.9,117.8,95.6z M117.9,95c-0.1,0.2-0.1,0.3,0.1,0.5
						c0.5,0.5,1.1,0.3,2-0.4C118.6,94.2,118.1,94.6,117.9,95z"/>
				</g>
			</g>
			<g>
				<g>
					<g>
						<path class="st16" d="M121.3,92.4c-0.4,0-0.9-0.2-1.5-0.5l-0.2-0.1l0.1-0.1c0.5-0.5,0.9-0.8,1.3-0.9c0.5-0.2,0.9-0.1,1.2,0.2
							c0.2,0.2,0.3,0.6,0.1,0.8c-0.2,0.3-0.5,0.5-0.9,0.6C121.4,92.4,121.4,92.4,121.3,92.4z M120.1,91.8c1,0.5,1.7,0.5,2-0.1
							c0.1-0.1,0.1-0.3-0.1-0.5c-0.1-0.1-0.4-0.3-0.7-0.2C121.1,91,120.7,91.2,120.1,91.8z"/>
					</g>
					<g>
						<path class="st16" d="M117.4,92.5c-0.2-0.2-0.3-0.6-0.1-0.8c0.2-0.4,0.6-0.6,1.1-0.5c0.4,0,0.9,0.2,1.5,0.6l0.2,0.1l-0.1,0.1
							c-0.5,0.4-0.9,0.7-1.3,0.8c-0.1,0-0.1,0-0.2,0C118,92.8,117.6,92.7,117.4,92.5z M117.5,91.8c-0.1,0.2-0.1,0.3,0.1,0.5
							c0.5,0.5,1.1,0.3,2-0.4C118.2,91.1,117.7,91.4,117.5,91.8z"/>
					</g>
				</g>
				<g>
					<g>
						<path class="st16" d="M119.8,91.8c-0.5-0.5-0.8-0.9-0.9-1.3c-0.2-0.5-0.1-0.9,0.2-1.2c0.2-0.2,0.6-0.3,0.8-0.1
							c0.4,0.3,0.6,0.6,0.6,1.1c0,0.4-0.2,0.9-0.5,1.5l-0.1,0.2L119.8,91.8z M119.3,89.5c-0.3,0.3-0.5,0.8,0.6,2
							c0.5-1,0.5-1.7-0.1-2c-0.1-0.1-0.2-0.1-0.3-0.1C119.4,89.4,119.4,89.4,119.3,89.5z"/>
					</g>
					<g>
						<path class="st16" d="M119.7,94.3c-0.4-0.2-0.6-0.6-0.5-1.1c0-0.4,0.2-0.9,0.6-1.5l0.1-0.2l0.1,0.1c0.4,0.5,0.7,0.9,0.8,1.3
							c0.1,0.5,0,0.9-0.3,1.2c-0.1,0.1-0.3,0.2-0.4,0.2C120,94.4,119.8,94.4,119.7,94.3z M119.8,94.1c0.2,0.1,0.3,0.1,0.5-0.1
							c0.5-0.5,0.3-1.1-0.4-2C119.1,93.4,119.5,93.9,119.8,94.1z"/>
					</g>
				</g>
				<g>
					<circle class="st16" cx="119.8" cy="91.8" r="0.4"/>
				</g>
			</g>
		</g>
		<g>
			<g>
				
					<rect x="112" y="93" transform="matrix(0.9625 -0.2712 0.2712 0.9625 -23.8026 34.2808)" class="st17" width="0.3" height="20.5"/>
			</g>
			<g>
				<g>
					<path class="st17" d="M115.7,110.9c-0.4,0.1-0.9,0-1.5-0.3l-0.2-0.1l0.1-0.2c0.4-0.6,0.8-0.9,1.2-1.1c0.4-0.2,0.8-0.2,1.2,0.1
						c0.3,0.2,0.3,0.5,0.2,0.8c-0.2,0.4-0.4,0.6-0.8,0.7C115.9,110.8,115.8,110.8,115.7,110.9z M114.4,110.4c1.1,0.3,1.7,0.2,2-0.4
						c0.1-0.2,0-0.4-0.1-0.5c-0.2-0.1-0.4-0.2-0.7-0.1C115.3,109.5,114.9,109.8,114.4,110.4z"/>
				</g>
				<g>
					<path class="st17" d="M111.8,111.5c-0.3-0.2-0.4-0.5-0.2-0.8c0.2-0.4,0.5-0.7,1-0.7c0.4,0,0.9,0.1,1.6,0.4l0.2,0.1l-0.1,0.1
						c-0.4,0.5-0.8,0.8-1.2,1c-0.1,0-0.1,0.1-0.2,0.1C112.5,111.8,112.2,111.7,111.8,111.5z M111.9,110.8c-0.1,0.2,0,0.4,0.1,0.5
						c0.6,0.4,1.2,0.2,1.9-0.7C112.4,110,112,110.4,111.9,110.8z"/>
				</g>
			</g>
			<g>
				<g>
					<path class="st17" d="M115.1,108.8c-0.4,0.1-0.9,0-1.5-0.3l-0.2-0.1l0.1-0.2c0.4-0.6,0.8-0.9,1.2-1.1c0.4-0.2,0.8-0.2,1.2,0.1
						c0.3,0.2,0.3,0.5,0.2,0.8c-0.2,0.4-0.4,0.6-0.8,0.7C115.3,108.8,115.2,108.8,115.1,108.8z M113.9,108.4c1.1,0.3,1.7,0.2,2-0.4
						c0.1-0.2,0-0.4-0.1-0.5c-0.2-0.1-0.4-0.2-0.7-0.1C114.8,107.5,114.4,107.7,113.9,108.4z"/>
				</g>
				<g>
					<path class="st17" d="M111.3,109.5c-0.3-0.2-0.4-0.5-0.2-0.8c0.2-0.4,0.5-0.7,1-0.7c0.4,0,0.9,0.1,1.6,0.4l0.2,0.1l-0.1,0.1
						c-0.4,0.5-0.8,0.8-1.2,1c-0.1,0-0.1,0.1-0.2,0.1C111.9,109.7,111.6,109.7,111.3,109.5z M111.3,108.8c-0.1,0.2,0,0.4,0.1,0.5
						c0.6,0.4,1.2,0.2,1.9-0.7C111.8,108,111.4,108.4,111.3,108.8z"/>
				</g>
			</g>
			<g>
				<g>
					<path class="st17" d="M114.6,106.8c-0.4,0.1-0.9,0-1.5-0.3l-0.2-0.1l0.1-0.2c0.4-0.6,0.8-0.9,1.2-1.1c0.4-0.2,0.8-0.2,1.2,0.1
						c0.3,0.2,0.3,0.5,0.2,0.8c-0.2,0.4-0.4,0.6-0.8,0.7C114.7,106.8,114.6,106.8,114.6,106.8z M113.3,106.3c1.1,0.3,1.7,0.2,2-0.4
						c0.1-0.2,0-0.4-0.1-0.5c-0.2-0.1-0.4-0.2-0.7-0.1C114.2,105.4,113.8,105.7,113.3,106.3z"/>
				</g>
				<g>
					<path class="st17" d="M110.7,107.4c-0.3-0.2-0.4-0.5-0.2-0.8c0.2-0.4,0.5-0.7,1-0.7c0.4,0,0.9,0.1,1.6,0.4l0.2,0.1l-0.1,0.1
						c-0.4,0.5-0.8,0.8-1.2,1c-0.1,0-0.1,0.1-0.2,0.1C111.4,107.7,111,107.7,110.7,107.4z M110.7,106.8c-0.1,0.2,0,0.4,0.1,0.5
						c0.6,0.4,1.2,0.2,1.9-0.7C111.3,105.9,110.9,106.4,110.7,106.8z"/>
				</g>
			</g>
			<g>
				<g>
					<path class="st17" d="M114,104.8c-0.4,0.1-0.9,0-1.5-0.3l-0.2-0.1l0.1-0.2c0.4-0.6,0.8-0.9,1.2-1.1c0.4-0.2,0.8-0.2,1.2,0.1
						c0.3,0.2,0.3,0.5,0.2,0.8c-0.2,0.4-0.4,0.6-0.8,0.7C114.1,104.7,114.1,104.8,114,104.8z M112.7,104.3c1.1,0.3,1.7,0.2,2-0.4
						c0.1-0.2,0-0.4-0.1-0.5c-0.2-0.1-0.4-0.2-0.7-0.1C113.6,103.4,113.2,103.7,112.7,104.3z"/>
				</g>
				<g>
					<path class="st17" d="M110.1,105.4c-0.3-0.2-0.4-0.5-0.2-0.8c0.2-0.4,0.5-0.7,1-0.7c0.4,0,0.9,0.1,1.6,0.4l0.2,0.1l-0.1,0.1
						c-0.4,0.5-0.8,0.8-1.2,1c-0.1,0-0.1,0.1-0.2,0.1C110.8,105.7,110.4,105.6,110.1,105.4z M110.1,104.7c-0.1,0.2,0,0.4,0.1,0.5
						c0.6,0.4,1.2,0.2,1.9-0.7C110.7,103.9,110.3,104.4,110.1,104.7z"/>
				</g>
			</g>
			<g>
				<g>
					<path class="st17" d="M113.4,102.7c-0.4,0.1-0.9,0-1.5-0.3l-0.2-0.1l0.1-0.2c0.4-0.6,0.8-0.9,1.2-1.1c0.4-0.2,0.8-0.2,1.2,0.1
						c0.3,0.2,0.3,0.5,0.2,0.8c-0.2,0.4-0.4,0.6-0.8,0.7C113.6,102.7,113.5,102.7,113.4,102.7z M112.2,102.3c1.1,0.3,1.7,0.2,2-0.4
						c0.1-0.2,0-0.4-0.1-0.5c-0.2-0.1-0.4-0.2-0.7-0.1C113,101.4,112.7,101.7,112.2,102.3z"/>
				</g>
				<g>
					<path class="st17" d="M109.5,103.4c-0.3-0.2-0.4-0.5-0.2-0.8c0.2-0.4,0.5-0.7,1-0.7c0.4,0,0.9,0.1,1.6,0.4l0.2,0.1l-0.1,0.1
						c-0.4,0.5-0.8,0.8-1.2,1c-0.1,0-0.1,0.1-0.2,0.1C110.2,103.7,109.9,103.6,109.5,103.4z M109.6,102.7c-0.1,0.2,0,0.4,0.1,0.5
						c0.6,0.4,1.2,0.2,1.9-0.7C110.1,101.9,109.7,102.3,109.6,102.7z"/>
				</g>
			</g>
			<g>
				<g>
					<path class="st17" d="M112.8,100.7c-0.4,0.1-0.9,0-1.5-0.3l-0.2-0.1l0.1-0.2c0.4-0.6,0.8-0.9,1.2-1.1c0.4-0.2,0.8-0.2,1.2,0.1
						c0.3,0.2,0.3,0.5,0.2,0.8c-0.2,0.4-0.4,0.6-0.8,0.7C113,100.7,112.9,100.7,112.8,100.7z M111.6,100.3c1.1,0.3,1.7,0.2,2-0.4
						c0.1-0.2,0-0.4-0.1-0.5c-0.2-0.1-0.4-0.2-0.7-0.1C112.5,99.4,112.1,99.6,111.6,100.3z"/>
				</g>
				<g>
					<path class="st17" d="M109,101.4c-0.3-0.2-0.4-0.5-0.2-0.8c0.2-0.4,0.5-0.7,1-0.7c0.4,0,0.9,0.1,1.6,0.4l0.2,0.1l-0.1,0.1
						c-0.4,0.5-0.8,0.8-1.2,1c-0.1,0-0.1,0.1-0.2,0.1C109.6,101.6,109.3,101.6,109,101.4z M109,100.7c-0.1,0.2,0,0.4,0.1,0.5
						c0.6,0.4,1.2,0.2,1.9-0.7C109.6,99.9,109.2,100.3,109,100.7z"/>
				</g>
			</g>
			<g>
				<g>
					<path class="st17" d="M112.3,98.7c-0.4,0.1-0.9,0-1.5-0.3l-0.2-0.1l0.1-0.2c0.4-0.6,0.8-0.9,1.2-1.1c0.4-0.2,0.8-0.2,1.2,0.1
						c0.3,0.2,0.3,0.5,0.2,0.8c-0.2,0.4-0.4,0.6-0.8,0.7C112.4,98.7,112.4,98.7,112.3,98.7z M111,98.2c1.1,0.3,1.7,0.2,2-0.4
						c0.1-0.2,0-0.4-0.1-0.5c-0.2-0.1-0.4-0.2-0.7-0.1C111.9,97.3,111.5,97.6,111,98.2z"/>
				</g>
				<g>
					<path class="st17" d="M108.4,99.3c-0.3-0.2-0.4-0.5-0.2-0.8c0.2-0.4,0.5-0.7,1-0.7c0.4,0,0.9,0.1,1.6,0.4l0.2,0.1l-0.1,0.1
						c-0.4,0.5-0.8,0.8-1.2,1c-0.1,0-0.1,0.1-0.2,0.1C109.1,99.6,108.7,99.6,108.4,99.3z M108.4,98.6c-0.1,0.2,0,0.4,0.1,0.5
						c0.6,0.4,1.2,0.2,1.9-0.7C109,97.8,108.6,98.3,108.4,98.6z"/>
				</g>
			</g>
			<g>
				<g>
					<path class="st17" d="M111.7,96.7c-0.4,0.1-0.9,0-1.5-0.3l-0.2-0.1l0.1-0.2c0.4-0.6,0.8-0.9,1.2-1.1c0.4-0.2,0.8-0.2,1.2,0.1
						c0.3,0.2,0.3,0.5,0.2,0.8c-0.2,0.4-0.4,0.6-0.8,0.7C111.9,96.6,111.8,96.7,111.7,96.7z M110.4,96.2c1.1,0.3,1.7,0.2,2-0.4
						c0.1-0.2,0-0.4-0.1-0.5c-0.2-0.1-0.4-0.2-0.7-0.1C111.3,95.3,110.9,95.6,110.4,96.2z"/>
				</g>
				<g>
					<path class="st17" d="M107.8,97.3c-0.3-0.2-0.4-0.5-0.2-0.8c0.2-0.4,0.5-0.7,1-0.7c0.4,0,0.9,0.1,1.6,0.4l0.2,0.1l-0.1,0.1
						c-0.4,0.5-0.8,0.8-1.2,1c-0.1,0-0.1,0.1-0.2,0.1C108.5,97.6,108.2,97.5,107.8,97.3z M107.9,96.6c-0.1,0.2,0,0.4,0.1,0.5
						c0.6,0.4,1.2,0.2,1.9-0.7C108.4,95.8,108,96.2,107.9,96.6z"/>
				</g>
			</g>
			<g>
				<g>
					<g>
						<path class="st17" d="M110.8,93.6c-0.4,0.1-0.9,0-1.5-0.3l-0.2-0.1l0.1-0.2c0.4-0.6,0.8-0.9,1.2-1.1c0.4-0.2,0.8-0.2,1.2,0.1
							c0.3,0.2,0.3,0.5,0.2,0.8c-0.2,0.4-0.4,0.6-0.8,0.7C111,93.6,110.9,93.6,110.8,93.6z M109.6,93.1c1.1,0.3,1.7,0.2,2-0.4
							c0.1-0.2,0-0.4-0.1-0.5c-0.2-0.1-0.4-0.2-0.7-0.1C110.4,92.2,110.1,92.5,109.6,93.1z"/>
					</g>
					<g>
						<path class="st17" d="M106.9,94.2c-0.3-0.2-0.4-0.5-0.2-0.8c0.2-0.4,0.5-0.7,1-0.7c0.4,0,0.9,0.1,1.6,0.4l0.2,0.1l-0.1,0.1
							c-0.4,0.5-0.8,0.8-1.2,1c-0.1,0-0.1,0.1-0.2,0.1C107.6,94.5,107.3,94.5,106.9,94.2z M107,93.5c-0.1,0.2,0,0.4,0.1,0.5
							c0.6,0.4,1.2,0.2,1.9-0.7C107.5,92.7,107.1,93.2,107,93.5z"/>
					</g>
				</g>
				<g>
					<g>
						<path class="st17" d="M109.2,93.2c-0.6-0.4-0.9-0.8-1.1-1.2c-0.2-0.4-0.2-0.8,0.1-1.2c0.2-0.3,0.5-0.3,0.8-0.2
							c0.4,0.2,0.7,0.5,0.7,1c0.1,0.4,0,0.9-0.3,1.5l-0.1,0.2L109.2,93.2z M108.4,91c-0.2,0.3-0.4,0.9,0.9,1.9
							c0.3-1.1,0.2-1.7-0.4-2c-0.1,0-0.2,0-0.3,0C108.5,90.9,108.4,90.9,108.4,91z"/>
					</g>
					<g>
						<path class="st17" d="M109.5,95.7c-0.4-0.2-0.7-0.5-0.7-1c0-0.4,0.1-0.9,0.4-1.6l0.1-0.2l0.1,0.1c0.5,0.4,0.8,0.8,1,1.2
							c0.2,0.4,0.2,0.8-0.1,1.2c-0.1,0.1-0.2,0.2-0.4,0.3C109.8,95.8,109.7,95.8,109.5,95.7z M109.7,95.5c0.2,0.1,0.4,0,0.5-0.1
							c0.4-0.6,0.2-1.2-0.7-1.9C108.9,94.9,109.3,95.3,109.7,95.5z"/>
					</g>
				</g>
				<g>
					<circle class="st17" cx="109.3" cy="93.2" r="0.4"/>
				</g>
			</g>
		</g>
		<path class="st18" d="M114.8,141.9c-1.3-0.7-6.1-4.1-7.6-5.2l7.6-6.8l10.5,11.8L114.8,141.9z"/>
		<path class="st18" d="M138.2,121.1c-0.6-1.4-3.4-6.6-4.3-8.2l-7.6,6.8l10.5,11.8L138.2,121.1z"/>
		<path class="st7" d="M119.9,144.6c-2,1.8-5.6,0.3-6.5-2c-0.2-0.5-0.2-1.2,0-1.7c0.4-0.9,1.4-1.1,2.1-1.2L119.9,144.6z"/>
		<path class="st19" d="M116.2,140.6c-3.5,1.4,0.4,5,2.7,3.1"/>
		<g>
			<path class="st20" d="M116.4,140.6c-0.3,0.1-0.6,0.3-0.9,0.5c-0.1,0.1-0.3,0.2-0.4,0.4c-0.1,0.1-0.2,0.3-0.2,0.4
				c-0.1,0.2-0.1,0.3,0,0.5c0,0.2,0.1,0.3,0.2,0.5c0.1,0.1,0.2,0.3,0.3,0.4c0.1,0.1,0.2,0.2,0.4,0.4c-0.3-0.2-0.5-0.5-0.7-0.8
				c-0.1-0.1-0.2-0.3-0.2-0.5c0-0.2,0-0.4,0-0.5c0-0.2,0.1-0.3,0.2-0.5c0.1-0.1,0.2-0.3,0.4-0.4c0.3-0.2,0.6-0.4,0.9-0.5
				L116.4,140.6z"/>
		</g>
		<path class="st7" d="M140.3,126.5c2-1.8,0.9-5.5-1.2-6.7c-0.5-0.3-1.1-0.4-1.7-0.2c-1,0.3-1.3,1.3-1.5,1.9L140.3,126.5z"/>
		<path class="st19" d="M136.8,122.3c1.8-3.3,4.9,1,2.8,3.1"/>
		<g>
			<path class="st20" d="M136.7,122.5c0.2-0.3,0.4-0.6,0.6-0.8c0.1-0.1,0.2-0.2,0.4-0.3c0.1-0.1,0.3-0.2,0.5-0.2c0.2,0,0.3,0,0.5,0
				c0.2,0,0.3,0.1,0.5,0.2c0.1,0.1,0.3,0.2,0.4,0.3c0.1,0.1,0.2,0.3,0.3,0.4c-0.2-0.3-0.4-0.6-0.7-0.8c-0.1-0.1-0.3-0.2-0.5-0.2
				c-0.2-0.1-0.3-0.1-0.5,0c-0.2,0-0.3,0.1-0.5,0.2c-0.2,0.1-0.3,0.2-0.4,0.3c-0.3,0.2-0.5,0.5-0.6,0.8L136.7,122.5z"/>
		</g>
		<path class="st7" d="M126.9,112.2l-20.2,18c8.4,14.9,17.7,21.4,28.6,12.1l0.3-0.2C146.1,132.2,140.8,122.2,126.9,112.2z"/>
		<path class="st21" d="M121.8,138.1l-1,0.9c-0.3,0.3-0.5,0.8-0.3,1.2c0.1,0.3,0.4,0.5,0.7,0.5c0.4,0.1,0.8-0.1,1-0.3l0.5-0.5
			c0.2-0.3,0.4-0.5,0.4-0.7c0,0,0.3-0.7,0.1-1c-0.1-0.2-0.4-0.4-0.6-0.4C122.3,137.7,122,137.8,121.8,138.1z"/>
		<path class="st21" d="M133.2,127.9l1-0.9c0.3-0.3,0.8-0.4,1.2-0.2c0.3,0.2,0.5,0.4,0.5,0.8c0,0.4-0.2,0.7-0.5,1l-0.5,0.5
			c-0.3,0.2-0.5,0.3-0.7,0.4c0,0-0.8,0.2-1,0c-0.2-0.2-0.3-0.4-0.3-0.7C132.8,128.4,132.9,128.1,133.2,127.9z"/>
		<path class="st21" d="M129,134.6c0.1,0,0.1-0.1,0.1-0.1c0.6-0.9,1.5-0.1,0.9,0.5c-0.6,0.6-1,0.7-1.5,0.6c-0.2,0-0.3-0.3-0.2-0.5
			C128.5,134.9,128.7,134.8,129,134.6z"/>
		<path class="st11" d="M113.4,139.7c4.4,4.3,5.6,4.5,5.6,4.5c-3.9-3.7-6.6-8.1-6.3-12.4l-3.7,3.3C109,135.1,111.7,138,113.4,139.7z
			"/>
		<path class="st11" d="M136.1,119.4c3.8,4.9,3.9,6.1,3.9,6.1c-3.2-4.3-7.3-7.5-11.6-7.7l3.7-3.3C132,114.6,134.7,117.5,136.1,119.4
			z"/>
		
			<linearGradient id="SVGID_2_" gradientUnits="userSpaceOnUse" x1="157.6486" y1="157.166" x2="157.6486" y2="140.6644" gradientTransform="matrix(0.7471 -0.6648 0.6648 0.7471 -100.0866 113.97)">
			<stop  offset="0" style="stop-color:#1B75BC"/>
			<stop  offset="1" style="stop-color:#27AAE1"/>
		</linearGradient>
		<path class="st22" d="M131.9,110.6c-8.5,0.2-20.3,1.4-21.3,3c-1.7,0.8-4.3,12.3-5.5,20.8c-0.1,0.4,0.1,0.9,0.5,1.2l4.8,3.4
			c1.2-5.1,3.3-9.5,6.2-13l0.3,0.4l3.5-1.7l2.1-3.3l-0.4-0.4c3.8-2.6,8.4-4.2,13.6-4.6l-2.9-5.1
			C132.7,110.8,132.3,110.6,131.9,110.6z"/>
		
			<linearGradient id="SVGID_3_" gradientUnits="userSpaceOnUse" x1="140.4487" y1="152.6448" x2="141.8428" y2="152.6448" gradientTransform="matrix(0.7471 -0.6648 0.6648 0.7471 -100.0866 113.97)">
			<stop  offset="0" style="stop-color:#D7DF23"/>
			<stop  offset="1" style="stop-color:#8DC63F"/>
		</linearGradient>
		<circle class="st23" cx="106.8" cy="134.2" r="0.7"/>
		
			<linearGradient id="SVGID_4_" gradientUnits="userSpaceOnUse" x1="157.6464" y1="140.2797" x2="157.6464" y2="172.4079" gradientTransform="matrix(0.7471 -0.6648 0.6648 0.7471 -100.0866 113.97)">
			<stop  offset="0" style="stop-color:#F9ED32"/>
			<stop  offset="1" style="stop-color:#F15A29"/>
		</linearGradient>
		<path class="st24" d="M130.9,115.5c0.3-0.7,1.1-1,2.2-0.9c0.6,0.1,1-0.2,0.8-0.6c-0.1-0.2-0.2-0.3-0.3-0.4
			c-0.9-0.5-1.8-0.4-2.7,0.3c0-0.7-0.3-1.3-0.9-1.9c-0.2-0.2-0.3-0.3-0.6-0.3c-0.5-0.2-1,0-1,0.4c0,0.1,0,0.3,0.1,0.3
			c1.3,1.2,1.4,2.4,0.4,3.5c-1,0.2-2,0.5-2.9,0.9c0.3-1,1.1-1.3,2.1-1.1c0.4,0.1,0.7,0,0.7-0.4c0-0.2-0.1-0.3-0.2-0.4
			c-0.8-0.7-1.8-0.7-3.2,0.7c-1.6-0.3-2.6,0.4-3.2,2c-2.3-0.3-3.7,0.8-4.1,3.5c-0.7-0.5-1.1-1.2-1.3-2c-0.2-2.8-2.5-4.5-5.1-4.3l0,0
			c0,0,0,0,0,0c0,0,0,0,0,0l0,0c-0.5,2.6,0.9,5,3.6,5.6c0.8,0.3,1.4,0.7,1.8,1.5c-2.7,0.1-4,1.4-3.9,3.7c-1.6,0.4-2.5,1.4-2.4,3
			c-1.5,1.2-1.7,2.2-1.1,3.1c0.1,0.1,0.2,0.2,0.4,0.3c0.3,0,0.5-0.2,0.4-0.6c0-1.1,0.3-1.8,1.4-2c-0.4,0.9-0.8,1.8-1.2,2.7
			c-1.2,0.8-2.3,0.5-3.3-0.9c-0.1-0.1-0.2-0.2-0.3-0.2c-0.4,0-0.6,0.5-0.5,1c0,0.2,0.1,0.4,0.3,0.6c0.5,0.6,1.1,1,1.8,1.1
			c-0.8,0.8-1,1.7-0.6,2.7c0.1,0.2,0.2,0.3,0.4,0.4c0.4,0.2,0.7-0.1,0.7-0.7c0-1.1,0.4-1.8,1-2c-0.4,1.3-0.8,2.7-1.1,4.1l1.3,0.9
			c1.3-5.1,3.2-9.5,6.1-12.6c1.7,0.3,3.3,0,5.1-0.2l0,0c0.1,0,0.1-0.1,0.1-0.1c0.4-1.8,0.9-3.3,0.8-5.1c3.4-2.5,8-3.9,13.2-4.6
			l-0.8-1.4C133.6,115.1,132.3,115.3,130.9,115.5z M125,116.7l0,0.5c-0.6,0.3-1.2,0.6-1.8,0.9l-0.2-0.1
			C123.4,117,124.1,116.6,125,116.7z M112,128.3c0-0.9,0.4-1.6,1.5-1.7l0.1,0.2c-0.4,0.5-0.7,1.1-1.1,1.6L112,128.3z M120.3,124.2
			c-0.1,0.1-0.1,0.2-0.2,0.2c-1.2,0.7-2.9,0.8-4.9,0.6c0.7-1.3,1.8-1.8,4.2-0.7l0.7-0.2l0,0l0,0l0,0l0,0l0.3-0.6
			c-0.9-2.5-0.2-3.6,1.2-4.1C121.4,121.4,121.1,123.1,120.3,124.2z"/>
		
			<linearGradient id="SVGID_5_" gradientUnits="userSpaceOnUse" x1="173.5926" y1="152.6448" x2="174.9867" y2="152.6448" gradientTransform="matrix(0.7471 -0.6648 0.6648 0.7471 -100.0866 113.97)">
			<stop  offset="0" style="stop-color:#D7DF23"/>
			<stop  offset="1" style="stop-color:#8DC63F"/>
		</linearGradient>
		<circle class="st25" cx="131.6" cy="112.1" r="0.7"/>
		
			<linearGradient id="SVGID_6_" gradientUnits="userSpaceOnUse" x1="153.2332" y1="146.4641" x2="154.6273" y2="146.4641" gradientTransform="matrix(0.7471 -0.6648 0.6648 0.7471 -100.0866 113.97)">
			<stop  offset="0" style="stop-color:#D7DF23"/>
			<stop  offset="1" style="stop-color:#8DC63F"/>
		</linearGradient>
		<circle class="st26" cx="112.3" cy="121.1" r="0.7"/>
		
			<linearGradient id="SVGID_7_" gradientUnits="userSpaceOnUse" x1="160.6756" y1="146.4641" x2="162.0697" y2="146.4641" gradientTransform="matrix(0.7471 -0.6648 0.6648 0.7471 -100.0866 113.97)">
			<stop  offset="0" style="stop-color:#D7DF23"/>
			<stop  offset="1" style="stop-color:#8DC63F"/>
		</linearGradient>
		<circle class="st27" cx="117.8" cy="116.1" r="0.7"/>
		
			<linearGradient id="SVGID_8_" gradientUnits="userSpaceOnUse" x1="157.6729" y1="157.7609" x2="157.6729" y2="151.897" gradientTransform="matrix(0.7471 -0.6648 0.6648 0.7471 -100.0866 113.97)">
			<stop  offset="0" style="stop-color:#D7DF23"/>
			<stop  offset="1" style="stop-color:#8DC63F"/>
		</linearGradient>
		<path class="st28" d="M118.3,122.2c-0.3,2.1,1.2,3.7,2.6,3.4c0.2,0,0.3-0.2,0.4-0.4C121.8,123.8,120.4,122.1,118.3,122.2z"/>
		<g>
			<g>
				<g>
					
						<ellipse transform="matrix(0.7471 -0.6648 0.6648 0.7471 -58.8058 115.398)" class="st29" cx="122.2" cy="135" rx="1.2" ry="1.9"/>
				</g>
				<g>
					
						<ellipse transform="matrix(0.7471 -0.6647 0.6647 0.7471 -58.4771 114.9556)" class="st0" cx="121.8" cy="134.3" rx="0.5" ry="0.7"/>
				</g>
			</g>
			<g>
				<path class="st29" d="M119.4,132.9c0,0,0.1-0.1,0.1-0.1c0.6-0.4,1.1-0.9,0.7-1.3c-0.6-0.7-2.3,1.2-1.7,1.9
					C118.8,133.6,119,133.4,119.4,132.9z"/>
			</g>
			<g>
				<path class="st21" d="M119.8,134.2c0.2,0.1,0.4,0.3,0.3,0.4c-0.1,0.1-0.3,0.2-0.5,0.1c-0.2-0.1-0.4-0.3-0.3-0.4
					C119.3,134.2,119.5,134.1,119.8,134.2z"/>
			</g>
			<g>
				<path class="st21" d="M120.6,136.5c0.2-0.2,0.2-0.4,0.1-0.5s-0.4,0-0.5,0.1c-0.2,0.2-0.2,0.4-0.1,0.5
					C120.2,136.7,120.4,136.7,120.6,136.5z"/>
			</g>
			<g>
				
					<ellipse transform="matrix(0.9138 -0.4061 0.4061 0.9138 -44.6977 60.3399)" class="st21" cx="119.8" cy="135.5" rx="0.5" ry="0.3"/>
			</g>
		</g>
		<g>
			<g>
				<g>
					
						<ellipse transform="matrix(0.7471 -0.6648 0.6648 0.7471 -52.2239 118.8252)" class="st29" cx="130" cy="128" rx="1.2" ry="1.9"/>
				</g>
				<g>
					
						<ellipse transform="matrix(0.7471 -0.6648 0.6648 0.7471 -52.0504 118.3032)" class="st0" cx="129.4" cy="127.5" rx="0.5" ry="0.7"/>
				</g>
			</g>
			<g>
				<path class="st29" d="M128.3,125c0,0-0.1,0.1-0.1,0.1c-0.5,0.5-1,1-1.4,0.6c-0.6-0.7,1.5-2.2,2.1-1.5
					C129,124.5,128.8,124.7,128.3,125z"/>
			</g>
			<g>
				<path class="st21" d="M129.6,125.5c0.1,0.2,0.2,0.4,0.4,0.4c0.2,0,0.2-0.3,0.2-0.5c-0.1-0.2-0.2-0.4-0.4-0.4
					C129.6,125,129.5,125.2,129.6,125.5z"/>
			</g>
			<g>
				<path class="st21" d="M131.7,126.6c-0.2,0.2-0.4,0.2-0.5,0s0-0.4,0.2-0.5c0.2-0.2,0.4-0.2,0.5,0S131.9,126.4,131.7,126.6z"/>
			</g>
			<g>
				<path class="st21" d="M130.6,125.5c-0.1,0.2-0.1,0.5,0,0.5c0.1,0.1,0.4,0,0.5-0.3c0.1-0.2,0.1-0.5,0-0.5
					C130.9,125.2,130.7,125.3,130.6,125.5z"/>
			</g>
		</g>
		<g>
			<path class="st0" d="M135,135.7c-0.3,0.3-0.7,0.4-1.1,0.5c-0.1,0-0.2,0.1-0.2,0.1c0,0,0,0,0,0c0,0-0.9,0.2-1.4,0.7
				c0,0-0.4,0.3-0.5,0.5c0,0-0.4,0.1-0.7,0.6c0,0-0.5,0.4-0.8,1.1c0,0-0.4,1-0.6,1.2c0,0,0,0.1,0,0.1c0.2-0.1,0.4-0.2,0.6-0.3
				c0.6-0.3,1.6-0.9,1.6-0.9c0.7-0.5,1.3-1.1,1.5-1.4C134,137.3,134.6,136.6,135,135.7z"/>
			<path class="st30" d="M133.9,139.9c1.2-1.1,1.8-2.5,1.7-3.8c0-0.3-0.1-0.7,0-1c-0.2,0.2-0.3,0.3-0.5,0.5c-0.3,0.3-0.5,0.7-0.7,1
				c-0.5,0.7-1,1.4-1.7,2c-0.6,0.6-1.4,1-2.1,1.4c-0.4,0.2-0.7,0.3-1.1,0.5c-0.2,0.1-0.4,0.3-0.6,0.4c0.3-0.1,0.7,0,1,0.1
				C131.2,141.4,132.8,140.9,133.9,139.9z"/>
			<path class="st30" d="M132.2,137.1c0.5-0.5,1.3-0.6,1.9-0.8c0.6-0.2,1.1-0.6,1.4-1.2c-0.8,0.3-1.5,0.2-2.3,0.3
				c-0.3,0-0.5,0.1-0.8,0.2c-0.3,0.1-0.5,0.2-0.7,0.5c-0.2,0.2-0.4,0.6-0.6,0.8c-0.3,0.2-0.6,0.3-0.9,0.5c-0.2,0.2-0.4,0.4-0.5,0.7
				c-0.1,0.3-0.2,0.5-0.3,0.8c-0.2,0.8-0.2,1.6-0.6,2.3c0.6-0.3,1-0.7,1.3-1.2c0.4-0.6,0.5-1.3,1.1-1.8c0.2-0.2,0.5-0.3,0.6-0.5
				C132,137.4,132.1,137.2,132.2,137.1z"/>
		</g>
	</g>
</g>
</svg>
